<svg xmlns="http://www.w3.org/2000/svg" xmlns:xlink="http://www.w3.org/1999/xlink" id="Capa_1" width="100" height="100" x="0" y="0" enable-background="new 0 0 512 512" version="1.1" viewBox="0 0 512 512" xml:space="preserve"><path fill="#FFEFD8" d="M38.92,377.289H5.193c-2.868,0-5.193-2.325-5.193-5.193v-133.82c0-2.868,2.325-5.193,5.193-5.193	H38.92c2.868,0,5.193,2.325,5.193,5.193v133.819C44.113,374.964,41.788,377.289,38.92,377.289z"/><path fill="#EDDDC8" d="M44.113,337.468v34.629c0,2.867-2.327,5.193-5.193,5.193H5.195c-2.867,0-5.193-2.327-5.193-5.193	v-34.629H44.113z"/><g><rect width="300.19" height="73.36" x="211.34" y="176.781" fill="#FFDB76"/><path fill="#FFDB76" d="M403.246,360.234c-0.395,0-359.132,0-359.132,0V250.137h345.355 c49.108,0,94.942-24.633,122.039-65.587c0,19.724,0.35,83.467-0.491,95.583c-1.71,24.631-14.525,46.032-34.872,59.838 C456.815,353.085,426.46,360.234,403.246,360.234z"/></g><path fill="#FFC764" d="M511.012,280.133c-1.703,24.627-14.52,46.033-34.868,59.837	c-19.329,13.118-49.679,20.264-72.903,20.264c-0.395,0-359.127,0-359.127,0v-22.258h332.122c23.224,0,53.574-7.146,72.903-20.264	c20.347-13.804,33.164-35.2,34.868-59.837c0.405-5.837,0.54-23.713,0.561-42.855c10.231-8.745,19.329-18.966,26.943-30.474	C511.51,204.271,511.853,268.013,511.012,280.133z"/><g><path fill="#EAB259" d="M87.45,250.141v55.04c0,4.14-3.35,7.5-7.5,7.5c-4.14,0-7.5-3.36-7.5-7.5v-55.04L87.45,250.141 L87.45,250.141z"/><path fill="#EAB259" d="M121.73,250.141v27.52c0,4.14-3.36,7.5-7.5,7.5s-7.5-3.36-7.5-7.5v-27.52H121.73z"/><path fill="#EAB259" d="M158.08,250.141v27.52c0,4.14-3.35,7.5-7.5,7.5c-4.14,0-7.5-3.36-7.5-7.5v-27.52H158.08z"/><path fill="#EAB259" d="M194.44,250.141v27.52c0,4.14-3.36,7.5-7.5,7.5c-4.15,0-7.5-3.36-7.5-7.5v-27.52H194.44z"/><path fill="#EAB259" d="M230.79,250.141v55.05c0,4.14-3.36,7.5-7.5,7.5s-7.5-3.36-7.5-7.5v-55.05H230.79z"/><path fill="#EAB259" d="M267.14,250.141v27.52c0,4.14-3.36,7.5-7.5,7.5s-7.5-3.36-7.5-7.5v-27.52H267.14z"/><path fill="#EAB259" d="M303.5,250.141v27.52c0,4.14-3.36,7.5-7.5,7.5c-4.15,0-7.5-3.36-7.5-7.5v-27.52H303.5z"/><path fill="#EAB259" d="M339.85,250.141v27.52c0,4.14-3.36,7.5-7.5,7.5s-7.5-3.36-7.5-7.5v-27.52H339.85z"/><path fill="#EAB259" d="M376.2,250.141v55.05c0,4.14-3.36,7.5-7.5,7.5s-7.5-3.36-7.5-7.5v-55.05H376.2z"/><path fill="#EAB259" d="M412.55,248.311v29.35c0,4.14-3.35,7.5-7.5,7.5c-4.14,0-7.5-3.36-7.5-7.5v-27.75 C402.6,249.641,407.61,249.101,412.55,248.311z"/><path fill="#EAB259" d="M448.91,240.001v23.9c0,4.14-3.36,7.5-7.5,7.5s-7.5-3.36-7.5-7.5v-20.67 c5.09-1.62,10.08-3.52,14.94-5.68C448.92,238.43,448.91,239.411,448.91,240.001z"/><path fill="#EAB259" d="M485.26,214.421v32.59c0,4.14-3.36,7.5-7.5,7.5s-7.5-3.36-7.5-7.5v-21.2 C475.49,222.351,480.5,218.551,485.26,214.421z"/></g><ellipse cx="361.67" cy="176.781" fill="#FFEFD8" rx="150.33" ry="42.07"/><path fill="#EDDDC8" d="M511.998,176.777c0,23.235-67.305,42.066-150.325,42.066c-6.492,0-12.879-0.114-19.153-0.343	c73.921-2.649,131.048-20.316,131.048-41.723s-57.126-39.074-131.048-41.723c6.274-0.229,12.661-0.343,19.153-0.343	C444.693,134.712,511.998,153.542,511.998,176.777z"/><ellipse cx="361.67" cy="176.781" fill="#F74A4F" rx="66.3" ry="18.552"/><path fill="#CD3F48" d="M427.971,176.777c0,10.252-29.685,18.55-66.298,18.55c-5.037,0-9.94-0.156-14.655-0.457	c29.55-1.859,51.632-9.254,51.632-18.093c0-8.829-22.082-16.224-51.632-18.093c4.715-0.301,9.618-0.457,14.655-0.457	C398.286,158.227,427.971,166.536,427.971,176.777z"/></svg>