<svg xmlns="http://www.w3.org/2000/svg" xmlns:xlink="http://www.w3.org/1999/xlink" id="Layer_1" width="80" height="80" x="0" y="0" enable-background="new 0 0 395.636 395.636" version="1.1" viewBox="0 0 395.636 395.636" xml:space="preserve"><rect width="328.857" height="257.81" x="6.206" y="74.214" fill="#FFF"/><g><rect width="29.026" height="29.026" x="97.681" y="98.909" fill="#2EA2DB"/><rect width="29.026" height="29.026" x="155.798" y="98.909" fill="#2EA2DB"/><rect width="29.026" height="29.026" x="213.915" y="98.909" fill="#2EA2DB"/><rect width="29.026" height="29.026" x="272.032" y="98.909" fill="#2EA2DB"/><rect width="29.026" height="29.026" x="40.21" y="152.695" fill="#2EA2DB"/><rect width="29.026" height="29.026" x="97.681" y="152.695" fill="#2EA2DB"/><rect width="29.026" height="29.026" x="155.798" y="152.695" fill="#2EA2DB"/><rect width="29.026" height="29.026" x="40.21" y="207.063" fill="#2EA2DB"/><rect width="29.026" height="29.026" x="97.681" y="207.063" fill="#2EA2DB"/><rect width="29.026" height="29.026" x="40.21" y="260.849" fill="#2EA2DB"/><rect width="29.026" height="29.026" x="97.681" y="260.849" fill="#2EA2DB"/></g><rect width="328.857" height="50.683" x="6.206" y="23.467" fill="#F16051"/><path fill="#FFF" d="M263.952,386.392c-69.236,0-125.479-56.242-125.479-125.479s56.242-125.479,125.479-125.479	c69.236,0.646,125.479,56.889,125.479,125.479C389.43,330.085,333.188,386.392,263.952,386.392z"/><g><circle cx="263.952" cy="260.849" r="43.895" fill="#2EA2DB"/><circle cx="263.952" cy="260.849" r="43.895" fill="#2EA2DB"/><circle cx="263.952" cy="260.849" r="43.895" fill="#2EA2DB"/></g><g><path fill="#193651" d="M341.269,154.57V17.325h-48.226V3.103h-12.348v14.222h-45.77V3.103h-12.347v14.222h-45.77V3.103 h-12.347v14.222h-45.77V3.103h-12.347v14.222h-45.77V3.103H48.226v14.222H0v320.84h157.608 c24.113,32.776,62.448,54.368,106.343,54.368c72.921,0,131.685-58.699,131.685-131.685 C395.636,217.6,373.98,178.683,341.269,154.57z M12.347,29.673h35.879v13.576h12.347V29.673h45.77v13.576h12.347V29.673h45.77 v13.576h12.347V29.673h45.77v13.576h12.347V29.673h45.77v13.576h12.348V29.673h35.879v38.335H12.347V29.673z M12.347,325.754 V80.356h316.509v66.78c-19.135-11.119-41.438-17.325-64.905-17.325c-72.339,0-131.038,58.699-131.038,131.038 c0,23.467,6.206,45.77,17.325,64.259H12.347V325.754z M145.261,267.055h12.994v-12.347h-12.994 c1.228-28.444,12.994-53.786,30.319-73.568l9.244,9.244l8.663-8.663l-8.663-8.663c19.782-17.907,45.123-29.026,73.568-30.319 v13.576h12.347v-14.222c28.444,1.228,53.786,12.994,73.568,30.319l-9.244,9.244l8.663,8.663l9.244-9.244 c17.972,19.846,29.091,45.188,30.319,72.986h-12.994v12.347h12.994c-1.228,28.444-12.347,53.786-30.319,73.568l-9.244-9.244 l-9.244,9.244l9.244,9.244c-19.782,17.907-45.123,29.026-73.568,30.319v-12.994H257.81v13.576 c-22.885-0.646-51.329-9.891-74.214-29.673l9.891-9.891l-8.016-9.244l-10.537,10.537 C158.901,323.943,147.135,299.184,145.261,267.055z"/><path fill="#193651" d="M288.065,254.707c-2.457-8.663-9.244-15.451-17.907-17.907v-49.455H257.81V236.8 c-10.537,2.457-18.554,12.347-18.554,24.113c0,13.576,11.119,24.76,24.76,24.76c11.766,0,21.657-8.016,24.113-18.554h64.323 v-12.412H288.065z"/><rect width="12.347" height="12.347" x="230.594" y="329.503" fill="#193651"/><rect width="12.347" height="12.347" x="257.81" y="329.503" fill="#193651"/><rect width="12.347" height="12.347" x="284.962" y="329.503" fill="#193651"/></g><circle cx="263.952" cy="260.849" r="8.663" fill="#2EA2DB"/></svg>