<svg xmlns="http://www.w3.org/2000/svg" width="80" height="80" viewBox="0 0 512 512"><path d="M412.651 128.804H99.349c-10.432 0-19.286 7.655-20.79 17.98l-48.43 332.291c-1.847 12.675 7.98 24.039 20.79 24.039H461.08c12.81 0 22.637-11.364 20.79-24.039l-48.43-332.292c-1.505-10.324-10.357-17.979-20.789-17.979z" fill="#8cc1ea"/><path d="M75.821 479.075l48.43-332.292c1.504-10.323 10.357-17.98 20.79-17.98H99.349c-10.432 0-19.286 7.655-20.79 17.98l-48.43 332.292c-1.847 12.675 7.98 24.039 20.79 24.039h45.692c-12.808.001-22.637-11.364-20.79-24.039z" fill="#79b1d6"/><path d="M491.29 477.068L457.585 245.81c-.758-5.204-5.585-8.803-10.794-8.047-5.203.758-8.805 5.59-8.047 10.793l33.705 231.258c.49 3.352-.462 6.61-2.677 9.173-2.216 2.563-5.303 3.974-8.692 3.974H117.773c-5.257 0-9.52 4.262-9.52 9.52 0 5.257 4.262 9.52 9.52 9.52H461.08a30.51 30.51 0 0 0 23.092-10.559 30.514 30.514 0 0 0 7.118-24.374zM412.651 137.689c5.665 0 10.552 4.228 11.369 9.833l8.549 58.662c.759 5.204 5.59 8.811 10.794 8.047 5.203-.758 8.805-5.59 8.047-10.793l-8.549-58.662c-2.172-14.894-15.158-26.126-30.21-26.126h-28.836C378.929 52.405 323.471 0 256 0S133.071 52.405 128.185 118.65H99.349c-15.051 0-28.039 11.232-30.209 26.126L20.71 477.068a30.51 30.51 0 0 0 7.118 24.373A30.51 30.51 0 0 0 50.919 512h28.775c5.257 0 9.52-4.262 9.52-9.52 0-5.257-4.262-9.52-9.52-9.52H50.919c-3.388 0-6.475-1.411-8.691-3.974-2.216-2.563-3.168-5.82-2.679-9.173l48.43-332.291c.817-5.605 5.705-9.833 11.37-9.833h313.302zM256 19.039c56.965 0 103.846 43.879 108.688 99.61H147.31c4.843-55.73 51.725-99.61 108.69-99.61z"/><path d="M180.888 251.332c-5.257 0-9.52 4.262-9.52 9.52v108.946c0 5.257 4.262 9.52 9.52 9.52 5.257 0 9.52-4.262 9.52-9.52V327.97l11.397 4.312c8.286 3.135 14.686 10.092 17.12 18.612l6.148 21.52c1.194 4.181 5.006 6.906 9.149 6.906.866 0 1.747-.119 2.62-.369 5.054-1.444 7.983-6.713 6.538-11.769l-6.148-21.518c-4.078-14.276-14.803-25.934-28.689-31.188l-3.126-1.183c13.491-9.383 23.247-23.662 26.806-40.116l2.23-10.313c1.111-5.138-2.154-10.205-7.293-11.317-5.136-1.111-10.205 2.153-11.317 7.293l-2.23 10.313c-2.88 13.319-11.481 24.62-23.205 31.067v-39.368a9.52 9.52 0 0 0-9.52-9.52zM298.769 270.371c12.584 0 22.822 10.238 22.822 22.823 0 5.257 4.261 9.52 9.52 9.52s9.52-4.262 9.52-9.52c0-23.083-18.78-41.863-41.863-41.863-23.082 0-41.861 18.779-41.861 41.863v44.259c0 23.083 18.779 41.863 41.863 41.863 23.083 0 41.861-18.779 41.861-41.863v-14.186a9.52 9.52 0 0 0-9.52-9.52H302.74c-5.259 0-9.52 4.262-9.52 9.52s4.261 9.52 9.52 9.52h18.852v4.666c0 12.585-10.238 22.823-22.823 22.823-12.584 0-22.822-10.238-22.822-22.823v-44.259c-.001-12.584 10.237-22.823 22.822-22.823z"/></svg>