<svg xmlns="http://www.w3.org/2000/svg" viewBox="0 0 512 512"><path fill="#b4e1fa" d="M441.379 220.69h-97.103v-88.276h79.448z"/><path d="M17.655 370.759h476.69a8.829 8.829 0 0 0 8.828-8.828v-61.793H8.828v61.793a8.828 8.828 0 0 0 8.827 8.828z" fill="#707487"/><path fill="#5b5d6e" d="M344.276 300.138V158.897h-35.31v141.241H8.828v35.31h494.344v-35.31z"/><g fill="#ffd782"><path d="M8.828 79.448h300.138a8.829 8.829 0 0 1 8.828 8.828v211.862a8.829 8.829 0 0 1-8.828 8.828H8.828A8.829 8.829 0 0 1 0 300.138V88.276a8.829 8.829 0 0 1 8.828-8.828zM490.367 225.858l-41.22-11.777-12.785-70.339c-3.06-16.793-17.673-28.983-34.741-28.983h-57.345a8.823 8.823 0 0 0-8.828 8.828v158.897h167.724v-39.649a17.655 17.655 0 0 0-12.805-16.977zm-119.608-13.996c-9.751 0-17.655-7.904-17.655-17.655v-44.138a8.829 8.829 0 0 1 8.828-8.828H410.7a8.827 8.827 0 0 1 8.687 7.262l10.326 57.292c.569 3.16-1.859 6.067-5.07 6.067h-53.884z"/></g><circle cx="414.897" cy="379.586" r="52.966" fill="#464655"/><circle cx="414.897" cy="379.586" r="35.31" fill="#c7cfe2"/><circle cx="414.897" cy="379.586" r="13.241" fill="#afb9d2"/><circle cx="88.276" cy="379.586" r="52.966" fill="#464655"/><circle cx="88.276" cy="379.586" r="35.31" fill="#c7cfe2"/><circle cx="88.276" cy="379.586" r="13.241" fill="#afb9d2"/><path d="M344.276 361.931h3.372c3.343 0 6.4-1.889 7.895-4.879l19.164-38.326a17.652 17.652 0 0 1 15.791-9.76h48.798a17.654 17.654 0 0 1 15.791 9.76l19.164 38.326a8.827 8.827 0 0 0 7.895 4.879h21.026a8.829 8.829 0 0 0 8.828-8.828V291.31c0-9.751-7.904-17.655-17.655-17.655H335.448v79.448a8.829 8.829 0 0 0 8.828 8.828z" fill="#ffc36e"/><path d="M308.966 388.414H220.69a8.829 8.829 0 0 1-8.828-8.828v-35.31a8.829 8.829 0 0 1 8.828-8.828h88.276a8.829 8.829 0 0 1 8.828 8.828v35.31a8.83 8.83 0 0 1-8.828 8.828z" fill="#afb9d2"/><g fill="#959cb3"><path d="M247.172 353.103a8.829 8.829 0 0 0-8.828 8.828v26.483H256v-26.483a8.829 8.829 0 0 0-8.828-8.828zM282.483 353.103a8.829 8.829 0 0 0-8.828 8.828v26.483h17.655v-26.483a8.828 8.828 0 0 0-8.827-8.828z"/></g><path d="M291.31 291.31H26.483a8.829 8.829 0 0 1 0-17.656H291.31a8.828 8.828 0 0 1 0 17.656z" fill="#ffc36e"/></svg>