<?xml version="1.0" encoding="iso-8859-1"?>
<!-- Generator: Adobe Illustrator 19.0.0, SVG Export Plug-In . SVG Version: 6.00 Build 0)  -->
<svg version="1.1" id="Capa_1" xmlns="http://www.w3.org/2000/svg" xmlns:xlink="http://www.w3.org/1999/xlink" x="0px" y="0px" width="80" height="80"
	 viewBox="0 0 511.999 511.999" style="enable-background:new 0 0 511.999 511.999;" xml:space="preserve">
<path style="fill:#FFEFD8;" d="M45.331,373.706H12.6c-2.783,0-5.04-2.256-5.04-5.04V238.798c0-2.783,2.256-5.04,5.04-5.04h32.731
	c2.783,0,5.04,2.256,5.04,5.04v129.867C50.371,371.45,48.114,373.706,45.331,373.706z"/>
<path style="fill:#EDDDC8;" d="M50.371,335.062v33.606c0,2.782-2.258,5.04-5.04,5.04H12.602c-2.782,0-5.04-2.258-5.04-5.04v-33.606
	H50.371z"/>
<g>
	<rect x="212.66" y="179.119" style="fill:#FFDB76;" width="291.32" height="71.19"/>
	<path style="fill:#FFDB76;" d="M398.897,357.156c-0.383,0-348.526,0-348.526,0V250.309h335.156
		c47.658,0,92.138-23.905,118.435-63.65c0,19.141,0.34,81.002-0.476,92.76c-1.659,23.903-14.096,44.672-33.842,58.071
		C450.885,350.217,421.426,357.156,398.897,357.156z"/>
</g>
<path style="fill:#FFC764;" d="M503.481,279.421c-1.653,23.899-14.092,44.674-33.838,58.07
	c-18.758,12.731-48.212,19.666-70.751,19.666c-0.383,0-348.521,0-348.521,0v-21.601h322.314c22.539,0,51.992-6.935,70.751-19.666
	c19.747-13.396,32.185-34.161,33.838-58.07c0.393-5.665,0.524-23.012,0.544-41.59c9.929-8.487,18.759-18.406,26.147-29.574
	C503.965,205.798,504.297,267.658,503.481,279.421z"/>
<ellipse style="fill:#FFEFD8;" cx="358.55" cy="179.119" rx="145.89" ry="40.823"/>
<path style="fill:#EDDDC8;" d="M504.438,179.115c0,22.549-65.318,40.823-145.886,40.823c-6.3,0-12.499-0.111-18.587-0.333
	c71.738-2.57,127.178-19.716,127.178-40.491s-55.439-37.92-127.178-40.491c6.088-0.222,12.287-0.333,18.587-0.333
	C439.121,138.292,504.438,156.567,504.438,179.115z"/>
<ellipse style="fill:#F74A4F;" cx="358.55" cy="179.119" rx="64.34" ry="18"/>
<path style="fill:#CD3F48;" d="M422.892,179.115c0,9.949-28.808,18.003-64.34,18.003c-4.889,0-9.646-0.151-14.223-0.444
	c28.677-1.804,50.107-8.981,50.107-17.559c0-8.568-21.43-15.745-50.107-17.559c4.576-0.292,9.334-0.444,14.223-0.444
	C394.084,161.113,422.892,169.177,422.892,179.115z"/>
<path d="M463.747,142.969c-28.2-7.891-65.56-12.237-105.198-12.237c-14.971,0-29.745,0.624-43.912,1.853
	c-4.159,0.361-7.239,4.026-6.878,8.185c0.361,4.159,4.021,7.236,8.185,6.878c13.734-1.192,28.069-1.796,42.605-1.796
	c90.822,0,138.332,21.655,138.332,33.264s-47.51,33.264-138.332,33.264s-138.332-21.655-138.332-33.264
	c0-4.756,10.412-16.043,49.817-24.718c4.077-0.898,6.655-4.931,5.758-9.009c-0.897-4.077-4.928-6.654-9.009-5.758
	c-28.14,6.196-61.686,18.075-61.686,39.485v63.633H57.931v-3.95c0-6.948-5.652-12.6-12.6-12.6H12.6c-6.948,0-12.6,5.652-12.6,12.6
	v129.867c0,6.948,5.652,12.6,12.6,12.6h32.731c6.948,0,12.6-5.652,12.6-12.6v-3.951h45.863c4.175,0,7.56-3.385,7.56-7.56
	s-3.385-7.56-7.56-7.56H57.931v-91.727h19.663v45.86c0,4.175,3.385,7.56,7.56,7.56s7.56-3.385,7.56-7.56v-45.86h18.144v19.15
	c0,4.175,3.385,7.56,7.56,7.56s7.56-3.385,7.56-7.56v-19.15h20.16v19.15c0,4.175,3.385,7.56,7.56,7.56s7.56-3.385,7.56-7.56v-19.15
	h20.16v19.15c0,4.175,3.385,7.56,7.56,7.56s7.56-3.385,7.56-7.56v-19.15h16.121h4.039v45.863c0,4.175,3.385,7.56,7.56,7.56
	s7.56-3.385,7.56-7.56v-45.863h20.16v19.15c0,4.175,3.385,7.56,7.56,7.56s7.56-3.385,7.56-7.56v-19.15h20.16v19.15
	c0,4.175,3.385,7.56,7.56,7.56s7.56-3.385,7.56-7.56v-19.15h20.16v19.15c0,4.175,3.385,7.56,7.56,7.56s7.56-3.385,7.56-7.56v-19.15
	h20.16v45.863c0,4.175,3.385,7.56,7.56,7.56s7.56-3.385,7.56-7.56v-45.863c0,0,17.648-0.068,20.16-0.194v19.344
	c0,4.175,3.385,7.56,7.56,7.56s7.56-3.385,7.56-7.56v-20.875c6.852-1.044,13.587-2.548,20.16-4.507v12.027
	c0,4.175,3.385,7.56,7.56,7.56s7.56-3.385,7.56-7.56V247.27c0-0.345-0.031-0.683-0.076-1.016
	c7.002-2.934,13.767-6.393,20.236-10.356v11.372c0,4.175,3.385,7.56,7.56,7.56s7.56-3.385,7.56-7.56v-21.987
	c6.294-5.025,12.211-10.573,17.672-16.621c0.056,25.692,0.086,61.789-0.501,70.232c-1.485,21.394-12.333,39.981-30.545,52.339
	c-15.933,10.811-43.28,18.362-66.501,18.362h-247.23c-4.175,0-7.56,3.385-7.56,7.56s3.385,7.56,7.56,7.56h247.224
	c21.943,0,53.641-6.484,74.99-20.97c21.815-14.801,35.352-38.056,37.139-63.802c0.683-9.83,0.973-98.935,0.973-100.826
	C512,164.09,495.765,151.928,463.747,142.969z M42.811,250.309v106.847v8.991H15.12V241.318h27.691V250.309z M385.527,242.749
	h-165.31v-41.196c7.944,5.174,18.998,9.755,33.134,13.71c28.2,7.891,65.56,12.237,105.198,12.237s76.998-4.346,105.198-12.237
	c1.813-0.507,3.568-1.026,5.28-1.554C445.603,232.292,416.34,242.749,385.527,242.749z"/>
<path d="M311.013,199.128c12.797,3.581,29.679,5.553,47.535,5.553s34.737-1.972,47.535-5.553
	c16.17-4.525,24.368-11.257,24.368-20.011s-8.199-15.487-24.369-20.012c-12.797-3.581-29.679-5.553-47.534-5.553
	c-17.856,0-34.738,1.972-47.535,5.553c-16.17,4.525-24.368,11.258-24.368,20.012C286.645,187.87,294.844,194.602,311.013,199.128z
	 M318.486,172.785c11.074-2.653,25.302-4.114,40.063-4.114c31.062,0,51.462,6.255,56.161,10.406
	c-1.76,1.459-6.392,4.044-16.099,6.37c-11.074,2.653-25.302,4.114-40.062,4.114c-31.062,0-51.461-6.255-56.161-10.406
	C304.148,177.697,308.779,175.111,318.486,172.785z"/>
<g>
</g>
<g>
</g>
<g>
</g>
<g>
</g>
<g>
</g>
<g>
</g>
<g>
</g>
<g>
</g>
<g>
</g>
<g>
</g>
<g>
</g>
<g>
</g>
<g>
</g>
<g>
</g>
<g>
</g>
</svg>
