<svg xmlns="http://www.w3.org/2000/svg" width="60" height="60" viewBox="0 0 395.636 395.636"><path fill="#fff" d="M6.206 6.206h284.38v383.289H6.206z"/><path fill="#e1e6e9" d="M30.901 30.901h234.925v333.834H30.901z"/><g fill="#fff"><path d="M153.277 257.164l-34.586 21.656-28.445 73.568 73.568-28.445 21.657-35.232z"/><path d="M239.892 155.342l47.631 47.63-93.982 93.983-47.631-47.631zM292.396 207.709l-57.471-57.471 85.333-85.333c16.097-16.097 41.438-16.097 57.471 0 16.097 16.097 16.097 41.438 0 57.471l-85.333 85.333z"/></g><g fill="#193651"><path d="M382.061 60.574c-8.663-8.663-20.428-13.576-33.358-13.576-12.347 0-24.113 4.978-33.358 13.576l-18.618 19.2V0H0v395.636h296.727V212.04l85.333-85.333c8.663-8.663 13.576-20.428 13.576-33.358a46.33 46.33 0 0 0-13.575-32.775zM284.38 383.289H12.347V12.347H284.38v79.774l-58.117 58.117 4.913 4.913-94.578 93.996 6.788 6.788-28.444 17.325c-1.228.646-1.875 1.875-2.457 3.103l-27.798 72.921c-.646 2.457 0 4.331 1.228 6.788 1.228 1.875 5.56 2.457 6.788 1.228l72.921-27.798c1.228-.646 2.457-1.228 3.103-2.457l17.325-28.444 6.788 6.788 91.475-90.893v168.792h.065zM154.57 249.147l85.333-85.333 38.917 38.917-85.333 85.333-38.917-38.917zm22.82 40.792l-17.907 29.026-58.117 22.238 22.238-58.117 29.026-17.907 22.885 22.885 1.875 1.875zm196.008-171.895l-81.002 81.002-48.808-48.808 80.937-81.002c6.788-7.434 30.319-18.554 48.808 0 6.853 6.788 17.972 29.027.065 48.808z"/><path d="M244.688 191.369l6.996 6.992-8.728 8.733-6.996-6.992zM232.158 217.237l-8.728 8.733-6.996-6.991 8.728-8.733zM213.048 236.566l-8.733 8.729-6.992-6.996 8.733-8.728zM61.802 61.22h173.705v12.347H61.802zM61.802 102.594h173.705v12.347H61.802zM61.802 143.451h64.259v12.347H61.802z"/></g><path d="M359.887 82.101c-6.141-6.141-16.097-6.141-22.238 0l-68.137 68.137 22.238 22.238 68.073-68.073c6.205-6.14 6.205-16.161.064-22.302z" fill="#f16051"/></svg>