<svg xmlns="http://www.w3.org/2000/svg" viewBox="0 0 58 58"><path d="M54.804 15h-1.635A1.168 1.168 0 0 1 52 13.832V7.168C52 6.523 51.477 6 50.832 6H29.168C28.523 6 28 6.523 28 7.168v6.664c0 .645-.523 1.168-1.168 1.168H16v-3h-4v3H3.196C2.536 15 2 15.536 2 16.196v28.607C2 45.464 2.536 46 3.196 46h51.607c.661 0 1.197-.536 1.197-1.196V16.196c0-.66-.536-1.196-1.196-1.196z" fill="#ecf0f1"/><path d="M28 13.832c0 .645-.523 1.168-1.168 1.168H16v-3h-4v3H3.196C2.536 15 2 15.536 2 16.196v28.607C2 45.464 2.536 46 3.196 46H28V13.832z" fill="#bdc3c7"/><path fill="#6d6d6e" d="M0 50h58v8H0z"/><path d="M19 55H5a1 1 0 1 1 0-2h14a1 1 0 1 1 0 2zM54 55h-1a1 1 0 1 1 0-2h1a1 1 0 1 1 0 2z" fill="#ecf0f1"/><path fill="#94b571" d="M31 9h18v11H31z"/><path fill="#8b8a8b" d="M4 46h50v4H4z"/><path fill="#f29c1f" d="M31 24h4v4h-4zM38 24h4v4h-4zM45 24h4v4h-4zM31 31h4v4h-4zM38 31h4v4h-4zM45 31h4v4h-4zM31 38h4v4h-4zM38 38h4v4h-4z"/><path fill="#71c285" d="M45 38h4v4h-4z"/><path d="M24 40H6a1 1 0 1 1 0-2h18a1 1 0 1 1 0 2z" fill="#6d6d6e"/><path fill="#f0ede0" d="M8 21h14v18H8z"/><path d="M16 36h-5a1 1 0 1 1 0-2h5a1 1 0 1 1 0 2zM19 36c-.26 0-.52-.11-.71-.29-.18-.19-.29-.45-.29-.71s.11-.521.29-.71c.38-.37 1.05-.37 1.42 0 .18.189.29.45.29.71s-.11.52-.29.71c-.19.18-.45.29-.71.29zM19 26h-5a1 1 0 1 1 0-2h5a1 1 0 1 1 0 2z" fill="#d4c3a5"/><path d="M39 13h-5a1 1 0 1 1 0-2h5a1 1 0 1 1 0 2zM39 17h-5a1 1 0 1 1 0-2h5a1 1 0 1 1 0 2z" fill="#70845a"/><path d="M19 31h-1a1 1 0 1 1 0-2h1a1 1 0 1 1 0 2zM12 31h-1a1 1 0 1 1 0-2h1a1 1 0 1 1 0 2zM11 26c-.26 0-.52-.11-.71-.29-.18-.19-.29-.44-.29-.71 0-.26.11-.521.29-.71.37-.37 1.04-.37 1.42 0 .18.189.29.45.29.71 0 .27-.11.52-.29.71-.19.18-.45.29-.71.29zM15 31c-.26 0-.52-.11-.71-.29-.18-.19-.29-.45-.29-.71 0-.271.11-.521.29-.71.38-.37 1.04-.37 1.42 0 .18.189.29.45.29.71s-.11.52-.29.71c-.19.18-.45.29-.71.29z" fill="#d4c3a5"/><path fill="#ecf0f1" d="M3 0h22v13H3z"/><path fill="#94b571" d="M5 2h18v9H5z"/><g fill="#70845a"><path d="M8.382 3.077a1.001 1.001 0 0 0-1.09.217l-.999.999A.999.999 0 0 0 7 6v3a1 1 0 1 0 2 0V4a.996.996 0 0 0-.618-.923zM17.382 3.077a1.001 1.001 0 0 0-1.09.217l-.999.999A.999.999 0 0 0 16 6v3a1 1 0 1 0 2 0V4a.996.996 0 0 0-.618-.923zM12.293 7.293l-1 1a.999.999 0 1 0 1.414 1.414l1-1a.999.999 0 1 0-1.414-1.414zM21.923 3.618a.996.996 0 0 0-1.305-.541 1 1 0 0 0-.326.217l-.999.999A.999.999 0 0 0 20 6v3a1 1 0 1 0 2 0V4c0-.13-.027-.26-.077-.382z"/></g></svg>