<svg xmlns="http://www.w3.org/2000/svg" width="80" height="80" viewBox="0 0 511.999 511.999"><path d="M348.698 347.786l16.016-80.709c1.809-9.116 2.155-18.495.65-27.665-2.76-16.816-10.635-29.234-29.491-29.234l-4.931 29.01c-1.931 11.363-4.603 22.596-8.212 33.541-9 27.29-20.839 44.965-45.571 55.541-12.894 5.514-22.457 9.913-22.457 9.913H214.57V474.252h40.132l18.212 14.743a68.857 68.857 0 0 0 43.328 15.34h49.459V347.786h-17.003z" fill="#f7b081"/><path fill="#546f7a" d="M29.925 309.047h126.277v191.855H29.925z"/><path fill="#465a65" d="M29.925 479.597h126.277v21.301H29.925z"/><path fill="#efe7e4" d="M156.206 324.663h58.366v160.614h-58.366z"/><path fill="#d8d1d0" d="M156.206 462.859h58.366v22.422h-58.366z"/><path d="M345.34 368.247v-4.212c0-9.752 7.906-17.658 17.658-17.658h78.256c9.752 0 17.658 7.906 17.658 17.658v4.212c0 9.752-7.906 17.658-17.658 17.658h-78.257c-9.752 0-17.657-7.906-17.657-17.658z" fill="#ffc89f"/><path d="M439.148 369.088h-74.044c-7.904 0-14.705-4.651-17.866-11.356a19.644 19.644 0 0 0-1.898 8.409c0 10.915 8.849 19.764 19.764 19.764h74.044c10.915 0 19.763-8.849 19.763-19.764a19.65 19.65 0 0 0-1.898-8.409c-3.16 6.705-9.961 11.356-17.865 11.356z" fill="#f7b081"/><path d="M345.34 445.196c0-10.915 8.849-19.764 19.764-19.764h74.044c10.915 0 19.763 8.849 19.763 19.764s-8.849 19.764-19.763 19.764h-74.044c-10.916.001-19.764-8.849-19.764-19.764z" fill="#ffc89f"/><path d="M439.148 448.144h-74.044c-7.904 0-14.705-4.651-17.866-11.356a19.644 19.644 0 0 0-1.898 8.409c0 10.915 8.849 19.764 19.764 19.764h74.044c10.915 0 19.763-8.849 19.763-19.764 0-3.012-.693-5.854-1.898-8.409-3.16 6.705-9.961 11.356-17.865 11.356z" fill="#f7b081"/><path d="M345.34 484.724c0-10.916 8.849-19.764 19.764-19.764h53.662c10.916 0 19.764 8.849 19.764 19.764s-8.849 19.764-19.764 19.764h-53.662c-10.916.001-19.764-8.848-19.764-19.764z" fill="#ffc89f"/><path d="M418.766 487.671h-53.662c-7.904 0-14.705-4.651-17.866-11.356a19.644 19.644 0 0 0-1.898 8.409c0 10.915 8.849 19.764 19.764 19.764h53.662c10.915 0 19.764-8.849 19.764-19.764 0-3.012-.693-5.855-1.898-8.409-3.162 6.705-9.962 11.356-17.866 11.356z" fill="#f7b081"/><path d="M345.34 407.775v-4.213c0-9.752 7.906-17.658 17.658-17.658h87.391c9.752 0 17.658 7.906 17.658 17.658v4.212c0 9.752-7.906 17.658-17.658 17.658h-87.391c-9.753.001-17.658-7.905-17.658-17.657z" fill="#ffc89f"/><path d="M448.283 408.615h-83.179c-7.904 0-14.705-4.651-17.866-11.356a19.644 19.644 0 0 0-1.898 8.409c0 10.915 8.849 19.763 19.764 19.763h83.179c10.915 0 19.764-8.849 19.764-19.763 0-3.012-.693-5.855-1.898-8.409-3.161 6.706-9.962 11.356-17.866 11.356z" fill="#f7b081"/><path d="M345.34 484.724c0-10.916 8.849-19.764 19.764-19.764-10.915 0-19.764-8.849-19.764-19.764s8.849-19.764 19.764-19.764c-10.915 0-19.764-8.849-19.764-19.763s8.849-19.764 19.764-19.764c-10.915 0-19.764-8.849-19.764-19.764 0-10.916 8.849-19.764 19.764-19.764h-22.423c-10.915 0-19.763 8.849-19.763 19.764s8.849 19.764 19.763 19.764c-10.915 0-19.763 8.849-19.763 19.764s8.849 19.763 19.763 19.763c-10.915 0-19.763 8.849-19.763 19.764s8.849 19.764 19.763 19.764c-10.915 0-19.763 8.849-19.763 19.764s8.849 19.764 19.763 19.764h22.422c-10.915.001-19.763-8.848-19.763-19.764z" fill="#dd9a76"/><path d="M105.609 66.247l15.502 31.412a6.541 6.541 0 0 0 4.923 3.577l34.665 5.037c5.363.779 7.504 7.37 3.624 11.153l-25.084 24.45a6.533 6.533 0 0 0-1.88 5.788l5.922 34.525c.916 5.342-4.691 9.414-9.488 6.893l-31.005-16.301a6.537 6.537 0 0 0-6.086 0l-31.005 16.301c-4.797 2.522-10.403-1.552-9.488-6.893l5.922-34.525a6.54 6.54 0 0 0-1.881-5.788l-25.084-24.45c-3.881-3.783-1.739-10.374 3.624-11.153l34.665-5.037a6.54 6.54 0 0 0 4.923-3.577L93.88 66.247c2.4-4.86 9.331-4.86 11.729 0z" fill="#f7cb4f"/><path d="M105.609 66.247l15.502 31.412a6.541 6.541 0 0 0 4.923 3.577l34.665 5.037c5.363.779 7.504 7.37 3.624 11.153l-25.084 24.45a6.533 6.533 0 0 0-1.88 5.788l5.922 34.525c.916 5.342-4.691 9.414-9.488 6.893l-31.005-16.301a6.537 6.537 0 0 0-6.086 0l-31.005 16.301c-4.797 2.522-10.403-1.552-9.488-6.893l5.922-34.525a6.54 6.54 0 0 0-1.881-5.788l-25.084-24.45c-3.881-3.783-1.739-10.374 3.624-11.153l34.665-5.037a6.54 6.54 0 0 0 4.923-3.577L93.88 66.247c2.4-4.86 9.331-4.86 11.729 0z" fill="#f7cb4f"/><path d="M164.324 117.426c3.88-3.783 1.739-10.374-3.624-11.153l-6.032-.876-32.27 31.456a8.42 8.42 0 0 0-2.421 7.45l7.073 41.235 6.744 3.546c4.797 2.522 10.403-1.552 9.488-6.893l-5.922-34.525a6.542 6.542 0 0 1 1.88-5.788l25.084-24.452z" fill="#fbab00"/><path d="M263.637 11.157l15.502 31.412a6.541 6.541 0 0 0 4.923 3.577l34.665 5.037c5.363.779 7.504 7.37 3.624 11.153l-25.084 24.451a6.531 6.531 0 0 0-1.88 5.787l5.922 34.525c.917 5.342-4.691 9.414-9.488 6.893l-31.005-16.301a6.535 6.535 0 0 0-6.085 0l-31.005 16.301c-4.797 2.522-10.403-1.552-9.488-6.893l5.922-34.525a6.537 6.537 0 0 0-1.881-5.787l-25.084-24.451c-3.88-3.783-1.739-10.374 3.624-11.153l34.665-5.037a6.538 6.538 0 0 0 4.923-3.577l15.502-31.412c2.399-4.86 9.33-4.86 11.728 0z" fill="#f7cb4f"/><path d="M263.637 11.157l15.502 31.412a6.541 6.541 0 0 0 4.923 3.577l34.665 5.037c5.363.779 7.504 7.37 3.624 11.153l-25.084 24.451a6.531 6.531 0 0 0-1.88 5.787l5.922 34.525c.917 5.342-4.691 9.414-9.488 6.893l-31.005-16.301a6.535 6.535 0 0 0-6.085 0l-31.005 16.301c-4.797 2.522-10.403-1.552-9.488-6.893l5.922-34.525a6.537 6.537 0 0 0-1.881-5.787l-25.084-24.451c-3.88-3.783-1.739-10.374 3.624-11.153l34.665-5.037a6.538 6.538 0 0 0 4.923-3.577l15.502-31.412c2.399-4.86 9.33-4.86 11.728 0z" fill="#f7cb4f"/><path d="M322.352 62.336c3.881-3.783 1.74-10.374-3.624-11.153l-6.032-.876-32.27 31.456a8.42 8.42 0 0 0-2.421 7.45l7.073 41.235 6.744 3.546c4.797 2.522 10.403-1.552 9.488-6.893l-5.922-34.525a6.54 6.54 0 0 1 1.88-5.787l25.084-24.453z" fill="#fbab00"/><path d="M421.374 66.247l15.502 31.412a6.541 6.541 0 0 0 4.923 3.577l34.665 5.037c5.363.779 7.504 7.37 3.624 11.153l-25.084 24.45a6.533 6.533 0 0 0-1.88 5.788l5.922 34.525c.917 5.342-4.691 9.414-9.488 6.893l-31.005-16.301a6.537 6.537 0 0 0-6.086 0l-31.005 16.301c-4.797 2.522-10.403-1.552-9.488-6.893l5.922-34.525a6.542 6.542 0 0 0-1.88-5.788l-25.084-24.45c-3.881-3.783-1.74-10.374 3.624-11.153l34.665-5.037a6.541 6.541 0 0 0 4.923-3.577l15.502-31.412c2.399-4.86 9.329-4.86 11.728 0z" fill="#f7cb4f"/><path d="M421.374 66.247l15.502 31.412a6.541 6.541 0 0 0 4.923 3.577l34.665 5.037c5.363.779 7.504 7.37 3.624 11.153l-25.084 24.45a6.533 6.533 0 0 0-1.88 5.788l5.922 34.525c.917 5.342-4.691 9.414-9.488 6.893l-31.005-16.301a6.537 6.537 0 0 0-6.086 0l-31.005 16.301c-4.797 2.522-10.403-1.552-9.488-6.893l5.922-34.525a6.542 6.542 0 0 0-1.88-5.788l-25.084-24.45c-3.881-3.783-1.74-10.374 3.624-11.153l34.665-5.037a6.541 6.541 0 0 0 4.923-3.577l15.502-31.412c2.399-4.86 9.329-4.86 11.728 0z" fill="#f7cb4f"/><path d="M480.088 117.426c3.881-3.783 1.74-10.374-3.624-11.153l-6.032-.876-32.27 31.456a8.42 8.42 0 0 0-2.421 7.45l7.073 41.235 6.744 3.546c4.797 2.522 10.403-1.552 9.488-6.893l-5.922-34.525a6.542 6.542 0 0 1 1.88-5.788l25.084-24.452z" fill="#fbab00"/><circle cx="116.32" cy="462.288" r="11.961"/><path d="M462.599 381.562a25.014 25.014 0 0 0 3.825-13.316v-4.212c0-13.88-11.291-25.17-25.17-25.17h-78.257c-1.7 0-3.361.171-4.967.495l14.054-70.82c2.061-10.386 2.295-20.595.695-30.345-2.659-16.209-11.221-35.529-36.907-35.529a7.512 7.512 0 0 0-7.406 6.253l-4.93 29.01c-1.948 11.461-4.621 22.378-7.942 32.448-9.197 27.887-20.802 42.181-41.39 50.987a1080.309 1080.309 0 0 0-21.136 9.307H222.08v-6.005a7.511 7.511 0 0 0-7.512-7.512h-50.853v-8.105a7.511 7.511 0 0 0-7.512-7.512H29.925a7.511 7.511 0 0 0-7.512 7.512v44.576c0 4.15 3.363 7.512 7.512 7.512s7.512-3.362 7.512-7.512V316.56h111.255V493.388H37.438V378.665c0-4.15-3.363-7.512-7.512-7.512s-7.512 3.363-7.512 7.512v122.237a7.511 7.511 0 0 0 7.512 7.512h126.279a7.511 7.511 0 0 0 7.512-7.512v-8.105h50.853a7.51 7.51 0 0 0 7.512-7.512v-3.521h29.96l16.143 13.069c13.552 10.972 30.618 17.014 48.056 17.014h45.767c.053 0 .104-.007.156-.008.966.103 1.944.16 2.937.16h53.663c15.041 0 27.277-12.236 27.277-27.276 0-4.514-1.109-8.772-3.059-12.527 13.23-1.871 23.44-13.263 23.44-27.001a27.125 27.125 0 0 0-4.537-15.043c8.111-4.184 13.672-12.642 13.672-22.38v-4.211c.002-9.449-5.235-17.695-12.958-21.999zm-12.21 36.358h-87.393c-5.594 0-10.146-4.551-10.146-10.146v-4.212c0-5.594 4.551-10.146 10.146-10.146H450.388c5.594 0 10.146 4.551 10.146 10.146v4.212c.001 5.594-4.551 10.146-10.145 10.146zm-9.135-64.03c5.594 0 10.146 4.551 10.146 10.146v4.212c0 5.594-4.551 10.146-10.146 10.146h-78.257c-5.594 0-10.146-4.551-10.146-10.146v-4.038a162.53 162.53 0 0 0 1.286-5.103c1.736-3.107 5.054-5.216 8.86-5.216l78.257-.001zM277.64 483.156l-18.212-14.743a7.51 7.51 0 0 0-4.727-1.674h-32.62v-21.542a7.511 7.511 0 0 0-7.512-7.512 7.51 7.51 0 0 0-7.512 7.512v32.576h-43.341V332.178h43.341v87.979a7.511 7.511 0 0 0 7.512 7.512 7.511 7.511 0 0 0 7.512-7.512v-74.461h32.62a7.506 7.506 0 0 0 3.139-.687c.095-.043 9.631-4.424 22.272-9.831 24.751-10.584 39.164-27.995 49.752-60.096 3.556-10.783 6.41-22.435 8.484-34.635l3.756-22.1c8.815 2.056 13.675 9.044 15.847 22.282 1.307 7.967 1.104 16.374-.606 24.987l-16.016 80.709a6.88 6.88 0 0 0-.076.456c-.019.14-.424 2.962-1.418 7.407a24.972 24.972 0 0 0-1.897 7.522c-5.951 21.245-21.266 57.652-56.33 57.652a7.511 7.511 0 0 0-7.512 7.512 7.512 7.512 0 0 0 7.512 7.512c23.252 0 42.635-11.998 56.54-34.819a25.326 25.326 0 0 0-.321 3.998v4.212c0 7.188 3.033 13.676 7.881 18.267-4.869 4.929-7.881 11.696-7.881 19.155 0 7.773 3.273 14.791 8.507 19.763-5.235 4.973-8.507 11.991-8.507 19.764 0 4.343 1.026 8.45 2.84 12.099H316.24a61.554 61.554 0 0 1-38.6-13.669zm141.126 13.819h-53.663c-6.755 0-12.251-5.496-12.251-12.251 0-6.755 5.496-12.252 12.251-12.252h53.663c6.755 0 12.252 5.496 12.252 12.252-.001 6.755-5.497 12.251-12.252 12.251zm20.383-39.528h-74.045c-6.755 0-12.251-5.496-12.251-12.251 0-6.755 5.496-12.251 12.251-12.251h74.046c6.755 0 12.251 5.496 12.251 12.251-.001 6.755-5.497 12.251-12.252 12.251zM54.641 146.898l-5.834 34.02c-.911 5.311 1.231 10.576 5.588 13.744a14.001 14.001 0 0 0 8.247 2.698c2.233 0 4.477-.539 6.552-1.629l30.552-16.062 30.552 16.062c4.769 2.507 10.438 2.097 14.796-1.069 4.359-3.166 6.501-8.433 5.59-13.744l-5.835-34.02 24.718-24.095c3.858-3.761 5.221-9.281 3.556-14.406-1.666-5.123-6.012-8.786-11.343-9.561l-34.159-4.964-15.276-30.953c-2.385-4.831-7.213-7.832-12.601-7.832-5.387 0-10.215 3.001-12.6 7.832L71.87 93.874l-34.158 4.964c-5.332.774-9.678 4.437-11.344 9.561-1.666 5.123-.303 10.643 3.555 14.407l24.718 24.092zm19.895-38.229a14.043 14.043 0 0 0 10.58-7.687l14.629-29.644 14.628 29.642a14.042 14.042 0 0 0 10.58 7.689l32.712 4.754-23.67 23.073a14.047 14.047 0 0 0-4.042 12.437l5.588 32.58-29.259-15.381a14.047 14.047 0 0 0-13.078-.001l-29.259 15.382 5.587-32.58a14.052 14.052 0 0 0-4.04-12.437L41.82 113.423l32.716-4.754zM212.669 91.81l-5.835 34.019c-.911 5.311 1.231 10.576 5.588 13.744 4.359 3.167 10.027 3.576 14.798 1.07l30.552-16.062 30.552 16.062a14.05 14.05 0 0 0 6.552 1.629c2.901 0 5.783-.91 8.247-2.698 4.358-3.167 6.5-8.433 5.588-13.743l-5.835-34.02 24.72-24.095c3.857-3.762 5.22-9.282 3.554-14.406-1.666-5.123-6.012-8.786-11.343-9.561l-34.159-4.964-15.275-30.953C267.989 3.001 263.161 0 257.773 0s-10.215 3.001-12.6 7.832l-15.276 30.953-34.158 4.964c-5.332.773-9.678 4.437-11.344 9.561s-.303 10.643 3.555 14.407l24.719 24.093zm19.894-38.23a14.046 14.046 0 0 0 10.581-7.687l14.629-29.643 14.629 29.644a14.047 14.047 0 0 0 10.58 7.686l32.713 4.754-23.671 23.073a14.054 14.054 0 0 0-4.042 12.437l5.588 32.58-29.26-15.382a14.051 14.051 0 0 0-13.077 0l-29.259 15.382 5.588-32.58a14.05 14.05 0 0 0-4.041-12.437L199.85 58.334l32.713-4.754zM488.887 108.4c-1.666-5.123-6.012-8.786-11.343-9.561l-34.159-4.964-15.275-30.953c-2.385-4.831-7.212-7.832-12.6-7.832s-10.215 3.001-12.6 7.832l-15.276 30.953-34.158 4.964c-5.332.774-9.678 4.437-11.344 9.561-1.665 5.124-.304 10.644 3.556 14.406l24.718 24.095-5.835 34.019c-.911 5.311 1.23 10.576 5.588 13.744 4.359 3.167 10.026 3.577 14.798 1.07l30.552-16.062 30.552 16.062a14.05 14.05 0 0 0 6.552 1.629c2.902 0 5.783-.91 8.247-2.698 4.358-3.167 6.5-8.433 5.588-13.743l-5.835-34.02 24.72-24.095c3.857-3.764 5.22-9.284 3.554-14.407zm-39.128 28.098a14.051 14.051 0 0 0-4.04 12.435l5.588 32.58-29.26-15.382a14.05 14.05 0 0 0-13.077 0l-29.259 15.382 5.588-32.58a14.047 14.047 0 0 0-4.041-12.437l-23.671-23.073 32.711-4.754a14.046 14.046 0 0 0 10.581-7.687L415.51 71.34l14.629 29.644a14.047 14.047 0 0 0 10.58 7.686l32.713 4.754-23.673 23.074z"/></svg>