<svg xmlns="http://www.w3.org/2000/svg" xmlns:xlink="http://www.w3.org/1999/xlink" width="260" height="555" version="1.1" viewBox="0 0 196 419"><g id="Canvas" fill="none"><g id="Samsung-Galaxy-S8"><g id="g3918"><g id="svg2"><g id="g3794"><g id="path3796"><path stroke="#1A1A1A" d="M 0 22.8C 0 14.8 0 7.19999 0 -6.10352e-06C 0 2.59999 0 5.2 0 7.9C 0 12.6 0 17.6 0 22.8Z" transform="translate(190.734 79.0021) scale(0.648314)"/></g><g id="path3798"><path stroke="#1A1A1A" d="M 0 14.2C 0 9.4 0 4.6 0 3.05176e-06C 0 4.3 0 8.7 0 13.2C 0 13.5 0 13.9 0 14.2Z" transform="translate(190.734 106.166) scale(0.648314)"/></g><g id="path3800"><path stroke="#1A1A1A" d="M -6.10352e-06 16.5C -6.10352e-06 11 -6.10352e-06 5.5 -6.10352e-06 0C -6.10352e-06 4.6 -6.10352e-06 9.3 -6.10352e-06 14L -6.10352e-06 16.5Z" transform="translate(190.669 162.699) scale(0.648314)"/></g><g id="path3802"><path stroke="#1A1A1A" d="M -1.2207e-05 5.10001C -1.2207e-05 3.40001 -1.2207e-05 1.7 -1.2207e-05 0C -1.2207e-05 0.6 -1.2207e-05 1.29999 -1.2207e-05 1.89999L -1.2207e-05 5.10001L -1.2207e-05 5.10001Z" transform="translate(190.604 175.99) scale(0.648314)"/></g><g id="path3804"><path stroke="#1A1A1A" d="M -6.10352e-06 15.7C -6.10352e-06 10.4 -6.10352e-06 5.1 -6.10352e-06 0C -6.10352e-06 4.2 -6.10352e-06 8.49999 -6.10352e-06 12.8C -6.10352e-06 13.7 -6.10352e-06 14.7 -6.10352e-06 15.7Z" transform="translate(190.669 141.305) scale(0.648314)"/></g><g id="path3806"><path stroke="#1A1A1A" d="M 0 18.8C 0 12.2 0 5.90001 0 6.10352e-06C 0 4.70001 0 9.6 0 14.7C 0 16 0 17.4 0 18.8L 0 18.8Z" transform="translate(190.734 62.9239) scale(0.648314)"/></g><g id="path3808"><path stroke="#1A1A1A" d="M -1.2207e-05 1.1L -1.2207e-05 3.99999C -1.2207e-05 7.29999 -1.2207e-05 10.7 -1.2207e-05 14.1C -1.2207e-05 9.4 -1.2207e-05 4.69999 -1.2207e-05 -6.10352e-06C -1.2207e-05 0.399994 -1.2207e-05 0.8 -1.2207e-05 1.1Z" transform="translate(190.604 182.084) scale(0.648314)"/></g><g id="path3810"><path stroke="#1A1A1A" d="M 6.10352e-06 3.05176e-06C 6.10352e-06 3.1 6.10352e-06 6.5 6.10352e-06 10C 6.10352e-06 6.4 6.10352e-06 3.1 6.10352e-06 3.05176e-06Z" transform="translate(190.798 48.4665) scale(0.648314)"/></g><g id="path3812"><path fill="#2D2D2D" d="M 37.7048 34.5889L 251.405 34.5889C 251.405 34.5889 286.305 37.5889 287.405 69.1889C 287.405 55.2889 287.405 45.3889 287.405 40.5889C 287.405 3.98889 264.805 0.78889 251.405 0.48889C 198.405 -0.61111 37.8048 0.48889 37.7048 0.48889C -1.19518 0.48889 0.0048311 39.3889 0.0048311 39.3889L 0.0048311 69.3889C -0.0951689 65.8889 1.00483 34.5889 37.7048 34.5889Z" transform="translate(4.46979 3.48071) scale(0.648314)"/><path stroke="#2D2D2D" stroke-width="10" d="M 37.7048 34.5889L 251.405 34.5889C 251.405 34.5889 286.305 37.5889 287.405 69.1889C 287.405 55.2889 287.405 45.3889 287.405 40.5889C 287.405 3.98889 264.805 0.78889 251.405 0.48889C 198.405 -0.61111 37.8048 0.48889 37.7048 0.48889C -1.19518 0.48889 0.0048311 39.3889 0.0048311 39.3889L 0.0048311 69.3889C -0.0951689 65.8889 1.00483 34.5889 37.7048 34.5889Z" transform="translate(4.46979 3.48071) scale(0.648314)"/></g><g id="path3814"><path fill="#2D2D2D" d="M 244.1 44.8L 42.3 44.8C 42.3 44.8 -1.52588e-06 43.8 -1.52588e-06 12.8L -1.52588e-06 37.5C -1.52588e-06 71.8 42.3 72.9 42.3 72.9L 244 72.9C 266.5 72.9 287 63.7 287 23.3L 287 1.2207e-05C 287 36.5 266.5 44.8 244.1 44.8Z" transform="translate(4.40808 367.696) scale(0.648314)"/><path stroke="#2D2D2D" stroke-width="10" d="M 244.1 44.8L 42.3 44.8C 42.3 44.8 -1.52588e-06 43.8 -1.52588e-06 12.8L -1.52588e-06 37.5C -1.52588e-06 71.8 42.3 72.9 42.3 72.9L 244 72.9C 266.5 72.9 287 63.7 287 23.3L 287 1.2207e-05C 287 36.5 266.5 44.8 244.1 44.8Z" transform="translate(4.40808 367.696) scale(0.648314)"/></g><g id="path3816"><path stroke="#2D2D2D" stroke-width="10" d="M 1.2207e-05 -1.2207e-05C 1.2207e-05 27.3 1.2207e-05 53.6 1.2207e-05 78C 1.2207e-05 53.2 1.2207e-05 26.9 1.2207e-05 -1.2207e-05L 1.2207e-05 -1.2207e-05Z" transform="translate(190.539 293.853) scale(0.648314)"/></g><g id="path3818"><path stroke="#2D2D2D" stroke-width="10" d="M 287.1 242C 287.1 241.6 287.1 241.3 287.1 240.9C 287.1 239.5 287.1 238 287.1 236.6L 287.1 233.4C 287.1 232.8 287.1 232.1 287.1 231.5C 287.1 230.1 287.1 228.8 287.1 227.4L 287.1 225C 287.1 220.3 287.1 215.7 287.1 211C 287.1 205.2 287.1 199.4 287.1 193.7C 287.1 192.7 287.1 191.7 287.1 190.7C 287.1 186.4 287.1 182.1 287.1 177.9C 287.1 164.1 287.1 150.7 287.1 138C 287.1 137.7 287.1 137.3 287.1 137C 287.1 132.5 287.1 128.1 287.1 123.8C 287.1 117.2 287.1 110.8 287.1 104.7C 287.1 99.6 287.1 94.6 287.1 89.8C 287.1 87.1 287.1 84.5 287.1 81.9C 287.1 79.9 287.1 77.9 287.1 75.9C 287.1 74.5 287.1 73.2 287.1 71.8C 287.1 66.6 287.1 61.7 287.1 57.1C 287.1 52.8 287.1 48.7 287.1 44.8C 287.1 41.3 287.1 37.9 287.1 34.8C 287.1 34.7 287.1 34.7 287.1 34.6C 286 3 251.1 0 251.1 0L 37.7 0C 0.999992 0 -3.05176e-06 31.3 -3.05176e-06 34.7C -3.05176e-06 34.9 -3.05176e-06 35 -3.05176e-06 35L -3.05176e-06 540C -3.05176e-06 570.9 42.3 572 42.3 572L 244 572C 266.5 572 287 563.7 287 527.3C 287 515.9 287 503.8 287 491.3C 287 466.9 287 440.6 287 413.3C 287 404.3 287 395.3 287 386.1C 287 383.4 287 380.7 287 378C 287 372.7 287 367.3 287 362C 287 329.7 287.1 297.1 287.1 265.5C 287.1 262 287.1 258.5 287.1 255C 287.1 251.6 287.1 248.3 287.1 244.9L 287.1 242L 287.1 242Z" transform="translate(4.4729 25.9052) scale(0.648314)"/></g><g id="path3820"><path stroke="#2D2D2D" stroke-width="10" d="M -1.2207e-05 0.3L -1.2207e-05 1.2207e-05C -1.2207e-05 0.100012 -1.2207e-05 0.300006 -1.2207e-05 0.400006C -1.2207e-05 0.300006 -1.2207e-05 0.3 -1.2207e-05 0.3L -1.2207e-05 0.3Z" transform="translate(190.604 181.306) scale(0.648314)"/></g><g id="path3822"><path stroke="#2D2D2D" stroke-width="10" d="M -1.2207e-05 15C -1.2207e-05 10 -1.2207e-05 5 -1.2207e-05 0C -1.2207e-05 0.3 -1.2207e-05 0.599994 -1.2207e-05 0.899994C -1.2207e-05 5.59999 -1.2207e-05 10.3 -1.2207e-05 15Z" transform="translate(190.604 181.501) scale(0.648314)"/></g><g id="path3824"><path stroke="#2D2D2D" stroke-width="10" d="M 6.10352e-06 3.05176e-06C 6.10352e-06 3.1 6.10352e-06 6.5 6.10352e-06 10C 6.10352e-06 13.9 6.10352e-06 18 6.10352e-06 22.3C 6.10352e-06 28.2 6.10352e-06 34.5 6.10352e-06 41.1C 6.10352e-06 43.1 6.10352e-06 45.1 6.10352e-06 47.1C 6.10352e-06 54.3 6.10352e-06 62 6.10352e-06 69.9C 6.10352e-06 76.1 6.10352e-06 82.5 6.10352e-06 89C 6.10352e-06 93.6 6.10352e-06 98.4 6.10352e-06 103.2C 6.10352e-06 106.1 6.10352e-06 109 6.10352e-06 111.9C 6.10352e-06 114.9 6.10352e-06 118 6.10352e-06 121.1C 6.10352e-06 124.2 6.10352e-06 127.3 6.10352e-06 130.5C 6.10352e-06 134.7 6.10352e-06 138.9 6.10352e-06 143.1C 6.10352e-06 148.3 6.10352e-06 153.5 6.10352e-06 158.8C 6.10352e-06 161.6 6.10352e-06 164.3 6.10352e-06 167.1C 6.10352e-06 170.1 6.10352e-06 173.1 6.10352e-06 176.1C 6.10352e-06 181.5 6.10352e-06 187 6.10352e-06 192.6L 6.10352e-06 195.1C 6.10352e-06 195.6 6.10352e-06 196.1 6.10352e-06 196.7C 6.10352e-06 198.4 6.10352e-06 200.1 6.10352e-06 201.8L 6.10352e-06 204.8C 0.100006 103.5 0.299994 18.1 0.299994 1.3C -6.10948e-06 0.899999 6.10352e-06 0.400003 6.10352e-06 3.05176e-06L 6.10352e-06 3.05176e-06Z" transform="translate(190.798 48.4665) scale(0.648314)"/></g><g id="path3826"><path stroke="#2D2D2D" stroke-width="10" d="M -6.10352e-06 8.3C -6.10352e-06 5.5 -6.10352e-06 2.80001 -6.10352e-06 1.2207e-05C -6.10352e-06 5.70001 -6.10352e-06 11.5 -6.10352e-06 17.3C -6.10352e-06 14.3 -6.10352e-06 11.3 -6.10352e-06 8.3Z" transform="translate(190.669 151.484) scale(0.648314)"/></g><g id="path3828"><path stroke="#2D2D2D" stroke-width="10" d="M -6.10352e-06 2.5L -6.10352e-06 0C -6.10352e-06 1.4 -6.10352e-06 2.70001 -6.10352e-06 4.10001C -6.10352e-06 3.60001 -6.10352e-06 3 -6.10352e-06 2.5Z" transform="translate(190.669 173.397) scale(0.648314)"/></g><g id="path3830"><path stroke="#2D2D2D" stroke-width="10" d="M -1.2207e-05 4.29999C -1.2207e-05 3.99999 -1.2207e-05 3.7 -1.2207e-05 3.4C -1.2207e-05 3.3 -1.2207e-05 3.10001 -1.2207e-05 3.00001L -1.2207e-05 6.10352e-06C -1.2207e-05 1.50001 -1.2207e-05 2.89999 -1.2207e-05 4.29999L -1.2207e-05 4.29999Z" transform="translate(190.604 179.296) scale(0.648314)"/></g><g id="path3832"><path stroke="#2D2D2D" stroke-width="10" d="M 6.10352e-06 3.05176e-06C 6.10352e-06 3.9 6.10352e-06 8.00001 6.10352e-06 12.3C 6.10352e-06 7.90001 6.10352e-06 3.8 6.10352e-06 3.05176e-06Z" transform="translate(190.798 54.9496) scale(0.648314)"/></g><g id="path3834"><path stroke="#2D2D2D" stroke-width="10" d="M -6.10352e-06 27.3C -6.10352e-06 24.1 -6.10352e-06 21 -6.10352e-06 17.9C -6.10352e-06 14.8 -6.10352e-06 11.7 -6.10352e-06 8.7C -6.10352e-06 5.8 -6.10352e-06 2.9 -6.10352e-06 0C -6.10352e-06 12.8 -6.10352e-06 26.1 -6.10352e-06 39.9C -6.10352e-06 35.7 -6.10352e-06 31.5 -6.10352e-06 27.3L -6.10352e-06 27.3Z" transform="translate(190.669 115.373) scale(0.648314)"/></g><g id="path3836"><path stroke="#2D2D2D" stroke-width="10" d="M 0 -3.05176e-06C 0 6.2 0 12.6 0 19.1C 0 12.5 0 6.1 0 -3.05176e-06Z" transform="translate(190.734 93.7836) scale(0.648314)"/></g><g id="path3838"><path stroke="#2D2D2D" stroke-width="10" d="M 0 -6.10352e-06C 0 1.99999 0 3.89999 0 5.99999C 0 3.89999 0 1.89999 0 -6.10352e-06Z" transform="translate(190.734 75.1122) scale(0.648314)"/></g></g></g><g id="buttons"><g id="path3864"><path fill="#2D2D2D" d="M 2.39999 43.8C 1.09999 43.8 0 42.7 0 41.4L 0 2.40001C 0 1.10001 1.09999 -3.05176e-06 2.39999 -3.05176e-06C 3.69999 -3.05176e-06 4.79999 1.10001 4.79999 2.40001L 4.79999 41.4C 4.79999 42.7 3.69999 43.8 2.39999 43.8Z" transform="translate(192.678 131.062) scale(0.648314)"/></g><g id="path3866"><path fill="#2D2D2D" d="M 2.30632 42.3C 3.60632 42.3 4.60632 41.3 4.60632 40L 4.60632 2.30001C 4.60632 1.00001 3.60632 -6.10352e-06 2.30632 -6.10352e-06C 1.00632 -6.10352e-06 0.00632582 1.00001 0.00632582 2.30001L 0.00632582 40C -0.0936742 41.2 1.00632 42.3 2.30632 42.3Z" transform="translate(0.0602722 154.531) scale(0.648314)"/></g><g id="path3868"><path fill="#2D2D2D" d="M 2.30632 -3.05176e-06C 3.60632 -3.05176e-06 4.60632 1 4.60632 2.3L 4.60632 86C 4.60632 87.3 3.60632 88.3 2.30632 88.3C 1.00632 88.3 0.00632582 87.2 0.00632582 86L 0.00632582 2.3C -0.0936742 1 1.00632 -3.05176e-06 2.30632 -3.05176e-06Z" transform="translate(0.0602722 73.6859) scale(0.648314)"/></g></g></g><g id="camera_and_sensors"><g id="circle3841"><path fill="#3A3A3A" d="M 3.5 7C 5.433 7 7 5.433 7 3.5C 7 1.567 5.433 0 3.5 0C 1.567 0 0 1.567 0 3.5C 0 5.433 1.567 7 3.5 7Z" transform="translate(30.9241 14.8839) scale(0.648314)"/></g><g id="circle3843"><path fill="#3A3A3A" d="M 4.3 8.6C 6.67482 8.6 8.6 6.67483 8.6 4.3C 8.6 1.92518 6.67482 -2.37764e-06 4.3 -2.37764e-06C 1.92517 -2.37764e-06 -6.74824e-06 1.92518 -6.74824e-06 4.3C -6.74824e-06 6.67483 1.92517 8.6 4.3 8.6Z" transform="translate(55.7545 15.0783) scale(0.648314)"/></g><g id="circle3845"><path fill="#1D2830" d="M 2.9 5.8C 4.50162 5.8 5.80001 4.50163 5.80001 2.9C 5.80001 1.29837 4.50162 0 2.9 0C 1.29837 0 2.30703e-06 1.29837 2.30703e-06 2.9C 2.30703e-06 4.50163 1.29837 5.8 2.9 5.8Z" transform="translate(56.6622 15.986) scale(0.648314)"/></g><g id="circle3847"><path fill="#1D2830" d="M 4.3 8.6C 6.67482 8.6 8.6 6.67483 8.6 4.3C 8.6 1.92518 6.67482 -2.37764e-06 4.3 -2.37764e-06C 1.92518 -2.37764e-06 -2.85176e-06 1.92518 -2.85176e-06 4.3C -2.85176e-06 6.67483 1.92518 8.6 4.3 8.6Z" transform="translate(65.4144 15.0783) scale(0.648314)"/></g><g id="circle3849"><path fill="#1D2830" d="M 6.6 13.2C 10.2451 13.2 13.2 10.2451 13.2 6.6C 13.2 2.95492 10.2451 0 6.6 0C 2.95492 0 5.15879e-06 2.95492 5.15879e-06 6.6C 5.15879e-06 10.2451 2.95492 13.2 6.6 13.2Z" transform="translate(40.3247 12.6147) scale(0.648314)"/></g><g id="circle3851"><path fill="#3A3A3A" d="M 7.3 14.6C 11.3317 14.6 14.6 11.3317 14.6 7.3C 14.6 3.26832 11.3317 0 7.3 0C 3.26832 0 1.02e-05 3.26832 1.02e-05 7.3C 1.02e-05 11.3317 3.26832 14.6 7.3 14.6Z" transform="translate(129.468 12.6147) scale(0.648314)"/></g><g id="circle3853"><path fill="#3A3A3A" d="M 7.3 14.6C 11.3317 14.6 14.6 11.3317 14.6 7.3C 14.6 3.26832 11.3317 0 7.3 0C 3.26832 0 1.02e-05 3.26832 1.02e-05 7.3C 1.02e-05 11.3317 3.26832 14.6 7.3 14.6Z" transform="translate(129.468 12.6147) scale(0.648314)"/></g><g id="circle3855"><path fill="#1D2830" d="M 4.3 8.6C 6.67482 8.6 8.59999 6.67482 8.59999 4.3C 8.59999 1.92518 6.67482 -2.8e-06 4.3 -2.8e-06C 1.92517 -2.8e-06 1.02e-05 1.92518 1.02e-05 4.3C 1.02e-05 6.67482 1.92517 8.6 4.3 8.6Z" transform="translate(131.413 14.5597) scale(0.648314)"/></g><g id="circle3857"><path fill="#1D2830" d="M 4.3 8.6C 6.67482 8.6 8.59999 6.67482 8.59999 4.3C 8.59999 1.92518 6.67482 -2.8e-06 4.3 -2.8e-06C 1.92517 -2.8e-06 1.02e-05 1.92518 1.02e-05 4.3C 1.02e-05 6.67482 1.92517 8.6 4.3 8.6Z" transform="translate(131.413 14.5597) scale(0.648314)"/></g><g id="circle3859"><path fill="#1D2830" d="M 4.9 9.8C 7.6062 9.8 9.79999 7.6062 9.79999 4.9C 9.79999 2.1938 7.6062 0 4.9 0C 2.1938 0 6.20352e-06 2.1938 6.20352e-06 4.9C 6.20352e-06 7.6062 2.1938 9.8 4.9 9.8Z" transform="translate(146.713 14.6245) scale(0.648314)"/></g><g id="path3861"><path fill="#515151" d="M 38.3 5.8L 2.9 5.8C 1.3 5.8 6.10352e-06 4.5 6.10352e-06 2.9C 6.10352e-06 1.3 1.3 -3.05176e-06 2.9 -3.05176e-06L 38.3 -3.05176e-06C 39.9 -3.05176e-06 41.2 1.3 41.2 2.9C 41.2 4.5 39.9 5.8 38.3 5.8Z" transform="translate(84.4749 15.986) scale(0.648314)"/></g></g></g></g></svg>