<svg xmlns="http://www.w3.org/2000/svg" width="80" height="80" viewBox="0 0 395.636 395.636"><path fill="#fff" d="M6.206 74.214h328.857v257.81H6.206z"/><g fill="#2ea2db"><path d="M97.681 98.909h29.026v29.026H97.681zM155.798 98.909h29.026v29.026h-29.026zM213.915 98.909h29.026v29.026h-29.026zM272.032 98.909h29.026v29.026h-29.026zM40.21 152.695h29.026v29.026H40.21zM97.681 152.695h29.026v29.026H97.681zM155.798 152.695h29.026v29.026h-29.026zM40.21 207.063h29.026v29.026H40.21zM97.681 207.063h29.026v29.026H97.681zM40.21 260.849h29.026v29.026H40.21zM97.681 260.849h29.026v29.026H97.681z"/></g><path fill="#f16051" d="M6.206 23.467h328.857V74.15H6.206z"/><path d="M263.952 386.392c-69.236 0-125.479-56.242-125.479-125.479s56.242-125.479 125.479-125.479c69.236.646 125.479 56.889 125.479 125.479-.001 69.172-56.243 125.479-125.479 125.479z" fill="#fff"/><g fill="#2ea2db"><circle cx="263.952" cy="260.849" r="43.895"/><circle cx="263.952" cy="260.849" r="43.895"/><circle cx="263.952" cy="260.849" r="43.895"/></g><g fill="#193651"><path d="M341.269 154.57V17.325h-48.226V3.103h-12.348v14.222h-45.77V3.103h-12.347v14.222h-45.77V3.103h-12.347v14.222h-45.77V3.103h-12.347v14.222h-45.77V3.103H48.226v14.222H0v320.84h157.608c24.113 32.776 62.448 54.368 106.343 54.368 72.921 0 131.685-58.699 131.685-131.685 0-43.248-21.656-82.165-54.367-106.278zM12.347 29.673h35.879v13.576h12.347V29.673h45.77v13.576h12.347V29.673h45.77v13.576h12.347V29.673h45.77v13.576h12.347V29.673h45.77v13.576h12.348V29.673h35.879v38.335H12.347V29.673zm0 296.081V80.356h316.509v66.78c-19.135-11.119-41.438-17.325-64.905-17.325-72.339 0-131.038 58.699-131.038 131.038 0 23.467 6.206 45.77 17.325 64.259H12.347v.646zm132.914-58.699h12.994v-12.347h-12.994c1.228-28.444 12.994-53.786 30.319-73.568l9.244 9.244 8.663-8.663-8.663-8.663c19.782-17.907 45.123-29.026 73.568-30.319v13.576h12.347v-14.222c28.444 1.228 53.786 12.994 73.568 30.319l-9.244 9.244 8.663 8.663 9.244-9.244c17.972 19.846 29.091 45.188 30.319 72.986h-12.994v12.347h12.994c-1.228 28.444-12.347 53.786-30.319 73.568l-9.244-9.244-9.244 9.244 9.244 9.244c-19.782 17.907-45.123 29.026-73.568 30.319v-12.994H257.81v13.576c-22.885-.646-51.329-9.891-74.214-29.673l9.891-9.891-8.016-9.244-10.537 10.537c-16.033-17.907-27.799-42.666-29.673-74.795z"/><path d="M288.065 254.707a26.001 26.001 0 0 0-17.907-17.907v-49.455H257.81V236.8c-10.537 2.457-18.554 12.347-18.554 24.113 0 13.576 11.119 24.76 24.76 24.76 11.766 0 21.657-8.016 24.113-18.554h64.323v-12.412h-64.387zM230.594 329.503h12.347v12.347h-12.347zM257.81 329.503h12.347v12.347H257.81zM284.962 329.503h12.347v12.347h-12.347z"/></g><circle cx="263.952" cy="260.849" r="8.663" fill="#2ea2db"/></svg>