<svg width="433" height="860" xmlns="http://www.w3.org/2000/svg" xmlns:xlink="http://www.w3.org/1999/xlink"><use xlink:href="#path0_fill" transform="translate(413.1 203.606)"/><use xlink:href="#path1_fill" transform="translate(0 120.494)"/><use xlink:href="#path2_fill" transform="translate(0 183.141)"/><use xlink:href="#path3_fill" transform="translate(0 261.827)"/><use xlink:href="#path4_fill" transform="translate(3.71 .586)"/><use xlink:href="#path5_fill" transform="translate(283.15 19.081)" fill="#0F0F0F"/><use xlink:href="#path6_fill" transform="translate(188.43 25.884)" fill="#1E1E1E"/><use xlink:href="#path7_fill" transform="translate(254.54 22.638)" fill="#2B2B2B"/><use xlink:href="#path8_fill" transform="translate(255.76 23.848)" fill="#0A0D13"/><use xlink:href="#path9_fill" transform="translate(256.92 25.009)" fill="#091427"/><use xlink:href="#path10_fill" transform="translate(170.7 24.5)" fill="#0F0F0F"/><use xlink:href="#path11_fill" transform="translate(138.56 22.293)" fill="#101010"/><defs><path id="path0_fill" d="M17.844 0c1.136 0 2.051.91 2.051 2.041v94.864a2.043 2.043 0 0 1-2.05 2.043H2.05A2.043 2.043 0 0 1 0 96.905V2.04C0 .909.915 0 2.05 0h15.794z"/><path id="path1_fill" d="M17.845 0H2.05C.918 0 0 .915 0 2.043V31.55c0 1.128.918 2.043 2.05 2.043h15.795c1.133 0 2.05-.915 2.05-2.043V2.043A2.047 2.047 0 0 0 17.845 0z"/><path id="path2_fill" d="M2.05 0C.916 0 0 .91 0 2.041v58.485c0 1.131.915 2.043 2.05 2.043h15.794c1.136 0 2.051-.912 2.051-2.043V2.04A2.04 2.04 0 0 0 17.845 0H2.05z"/><path id="path3_fill" d="M2.05 0C.916 0 0 .91 0 2.041v58.485c0 1.131.915 2.043 2.05 2.043h15.794c1.136 0 2.051-.912 2.051-2.043V2.04A2.04 2.04 0 0 0 17.845 0H2.05z"/><path id="path4_fill" d="M424.341 61.763C424.341 27.29 396.452 0 361.831 0H62.87C28.25 0 0 27.41 0 61.763v734.69c0 34.473 28.25 62.961 62.87 62.961H361.83c34.621 0 62.51-28.488 62.51-62.961V61.763zM257.369 22.862c2.885 0 5.289 2.394 5.289 5.267 0 2.872-2.404 5.266-5.289 5.266s-5.288-2.394-5.288-5.267c0-2.872 2.403-5.266 5.288-5.266zM401.501 793.7c0 20.947-16.469 38.183-37.386 38.183H64.793c-21.037 0-38.347-17.236-38.347-38.183V59.608c0-20.827 17.31-36.866 38.347-36.866h34.62c7.333 0 9.978-.479 10.459 8.738.481 9.576 7.092 15.8 15.988 18.553 3.005.957 6.371 1.436 9.616 1.436H293.552c3.246 0 6.612-.718 9.618-1.676 8.895-2.753 15.626-8.498 15.987-18.074.48-9.216 3.125-8.977 10.458-8.977h34.26c21.037 0 37.386 16.04 37.386 36.866v734.093h.24z"/><path id="path5_fill" d="M19.392 9.555a9.484 9.484 0 0 1-2.827 6.743 9.769 9.769 0 0 1-6.833 2.811 9.771 9.771 0 0 1-6.854-2.761A9.487 9.487 0 0 1 0 9.625a9.482 9.482 0 0 1 2.777-6.764A9.767 9.767 0 0 1 9.59 0a9.773 9.773 0 0 1 6.874 2.711 9.488 9.488 0 0 1 2.928 6.702l-9.695.14h9.696z"/><path id="path6_fill" d="M48.38 0H3.275A3.27 3.27 0 0 0 0 3.263a3.27 3.27 0 0 0 3.275 3.264H48.38a3.27 3.27 0 0 0 3.275-3.264A3.27 3.27 0 0 0 48.38 0z"/><path id="path7_fill" d="M6.113 12.181c3.376 0 6.113-2.727 6.113-6.09C12.226 2.727 9.489 0 6.113 0 2.737 0 0 2.727 0 6.09c0 3.364 2.737 6.091 6.113 6.091z"/><path id="path8_fill" d="M4.898 9.76c2.705 0 4.898-2.185 4.898-4.88S7.603 0 4.898 0C2.193 0 0 2.185 0 4.88s2.193 4.88 4.898 4.88z"/><path id="path9_fill" d="M3.732 7.436a3.725 3.725 0 0 0 3.732-3.718A3.725 3.725 0 0 0 3.732 0 3.725 3.725 0 0 0 0 3.718a3.725 3.725 0 0 0 3.732 3.718z"/><path id="path10_fill" d="M9.612 4.788a4.78 4.78 0 0 1-1.402 3.38 4.815 4.815 0 0 1-6.784.024 4.78 4.78 0 0 1-.05-6.758 4.814 4.814 0 0 1 6.784-.075A4.78 4.78 0 0 1 9.61 4.718l-4.805.07h4.806z"/><path id="path11_fill" d="M14.498 7.108c0 1.88-.76 3.684-2.114 5.016a7.322 7.322 0 0 1-5.108 2.091 7.324 7.324 0 0 1-5.124-2.054 7.04 7.04 0 0 1-2.152-5 7.036 7.036 0 0 1 2.076-5.033A7.32 7.32 0 0 1 7.17 0a7.326 7.326 0 0 1 5.14 2.018 7.042 7.042 0 0 1 2.188 4.985l-7.248.105h7.249z"/></defs></svg>