<svg xmlns="http://www.w3.org/2000/svg" xmlns:xlink="http://www.w3.org/1999/xlink" width="699" height="931" version="1.1" viewBox="0 0 699 931"><g id="Canvas" fill="none"><g id="Really Blue"><g id="Phone Shadow"><g id="Rectangle" filter="url(#filter0_f)" opacity=".352"><path fill="url(#paint0_linear)" fill-rule="evenodd" d="M 0 2.5C 0 1.11929 1.11929 0 2.5 0L 468.5 0C 469.881 0 471 1.11929 471 2.5L 471 2.5C 471 3.88071 469.881 5 468.5 5L 2.5 5C 1.11929 5 0 3.88071 0 2.5L 0 2.5Z" clip-rule="evenodd" transform="translate(114 820)"/></g><g id="Rectangle_2" filter="url(#filter1_f)" opacity=".374"><path fill="url(#paint1_linear)" fill-rule="evenodd" d="M 0 7C 0 3.13401 3.13401 0 7 0L 428 0C 431.866 0 435 3.13401 435 7L 435 7C 435 10.866 431.866 14 428 14L 7 14C 3.13401 14 0 10.866 0 7L 0 7Z" clip-rule="evenodd" transform="translate(132 814)"/></g><g id="Rectangle_3" filter="url(#filter2_f)" opacity=".257"><path fill="url(#paint2_linear)" fill-rule="evenodd" d="M 0 40C 0 17.9086 17.9086 0 40 0L 453 0C 475.091 0 493 17.9086 493 40L 493 40C 493 62.0914 475.091 80 453 80L 40 80C 17.9086 80 0 62.0914 0 40L 0 40Z" clip-rule="evenodd" transform="translate(103 748)"/></g></g><g id="Buttons"><g id="Power Button" filter="url(#filter3_ii)"><path fill="#3944AF" fill-rule="evenodd" d="M 0 2C 0 0.895431 0.895431 0 2 0L 15 0C 16.1046 0 17 0.895431 17 2L 17 46C 17 47.1046 16.1046 48 15 48L 2 48C 0.895431 48 0 47.1046 0 46L 0 2Z" clip-rule="evenodd" transform="translate(534 198)"/></g><g id="Volume Rocker" filter="url(#filter4_ii)"><path fill="#3640A6" fill-rule="evenodd" d="M 0 2C 0 0.895431 0.895431 0 2 0L 15 0C 16.1046 0 17 0.895431 17 2L 17 98C 17 99.1046 16.1046 100 15 100L 2 100C 0.895431 100 0 99.1046 0 98L 0 2Z" clip-rule="evenodd" transform="translate(534 312)"/></g></g><g id="Phone"><g id="Phone BG" filter="url(#filter5_iiii)"><path fill="#7882DB" fill-rule="evenodd" d="M 0 59.2141C 0 26.511 26.511 0 59.2141 0L 339.786 0C 372.489 0 399 26.511 399 59.2141L 399 758.786C 399 791.489 372.489 818 339.786 818L 59.2141 818C 26.511 818 0 791.489 0 758.786L 0 59.2141Z" clip-rule="evenodd" transform="translate(149 0)"/></g><mask id="mask0" width="399" height="818" x="149" y="0" mask-type="alpha" maskUnits="userSpaceOnUse"><g id="Phone BG_2"><path fill="#fff" fill-rule="evenodd" d="M 0 59.2141C 0 26.511 26.511 0 59.2141 0L 339.786 0C 372.489 0 399 26.511 399 59.2141L 399 758.786C 399 791.489 372.489 818 339.786 818L 59.2141 818C 26.511 818 0 791.489 0 758.786L 0 59.2141Z" clip-rule="evenodd" transform="translate(149 0)"/></g></mask><g mask="url(#mask0)"><g id="Top" filter="url(#filter6_i)"><path fill="url(#paint3_linear)" fill-rule="evenodd" d="M 0 0L 8 0L 8 5L 0 5L 0 0Z" clip-rule="evenodd" transform="translate(441 0)"/></g><g id="Top Left" filter="url(#filter7_i)"><path fill="url(#paint4_linear)" fill-rule="evenodd" d="M 0 3L 7 0L 7 9L 0 11L 0 3Z" clip-rule="evenodd" transform="translate(149 66)"/></g><g id="Top Right" filter="url(#filter8_i)"><path fill="url(#paint5_linear)" fill-rule="evenodd" d="M 0 3L 8 0L 8 9L 0 11L 0 3Z" clip-rule="evenodd" transform="translate(548 66) scale(-1 1)"/></g><g id="Bottom Right" filter="url(#filter9_i)"><path fill="url(#paint6_linear)" fill-rule="evenodd" d="M 0 0L 8.04131 0L 10.904 11L 0 11L 0 0Z" clip-rule="evenodd" transform="translate(548 764) scale(-1 1)"/></g><g id="Bottom Right_2" filter="url(#filter10_i)"><path fill="url(#paint7_linear)" fill-rule="evenodd" d="M 0 0L 8.04131 0L 10.904 11L 0 11L 0 0Z" clip-rule="evenodd" transform="translate(149 764)"/></g></g></g><g id="White Front"><g id="Front Face 1" opacity=".392"><path fill="url(#paint8_linear)" fill-rule="evenodd" d="M 0 52.755C 0 23.6192 23.6192 0 52.755 0L 331.245 0C 360.381 0 384 23.6192 384 52.755L 384 755.245C 384 783.276 361.276 806 333.245 806L 50.7549 806C 22.7238 806 0 783.276 0 755.245L 0 52.755Z" clip-rule="evenodd" transform="translate(156 8)"/></g><g id="Front Face 2" filter="url(#filter11_diii)"><path fill="url(#paint9_linear)" fill-rule="evenodd" d="M 0 52.755C 0 23.6192 23.6192 0 52.755 0L 331.245 0C 360.381 0 384 23.6192 384 52.755L 384 755.245C 384 783.276 361.276 806 333.245 806L 50.7549 806C 22.7238 806 0 783.276 0 755.245L 0 52.755Z" clip-rule="evenodd" transform="translate(156 5)"/></g></g><g id="Screen"><g id="Black border around Screen"><path fill="#000" fill-rule="evenodd" d="M 0 0L 364 0L 364 644L 0 644L 0 0Z" clip-rule="evenodd" transform="translate(166 80)"/></g></g><g id="Sensors"><g id="Sensor" filter="url(#filter12_di)"><path fill="#1F1F1F" fill-rule="evenodd" d="M 6 -0.25L 21 -0.25C 24.4518 -0.25 27.25 2.54822 27.25 6C 27.25 9.45178 24.4518 12.25 21 12.25L 6 12.25C 2.54822 12.25 -0.25 9.45178 -0.25 6C -0.25 2.54822 2.54822 -0.25 6 -0.25Z" clip-rule="evenodd" transform="translate(335 59)"/><path fill-rule="evenodd" stroke="#fff" stroke-miterlimit="8" stroke-opacity=".5" stroke-width=".5" d="M 6 -0.25L 21 -0.25C 24.4518 -0.25 27.25 2.54822 27.25 6C 27.25 9.45178 24.4518 12.25 21 12.25L 6 12.25C 2.54822 12.25 -0.25 9.45178 -0.25 6C -0.25 2.54822 2.54822 -0.25 6 -0.25Z" clip-rule="evenodd" transform="translate(335 59)"/></g><g id="Earphone" filter="url(#filter13_ddii)"><path fill="#F4F4F4" fill-rule="evenodd" d="M 0 3.5C 0 1.567 1.567 0 3.5 0L 75.5 0C 77.433 0 79 1.567 79 3.5L 79 3.5C 79 5.433 77.433 7 75.5 7L 3.5 7C 1.567 7 0 5.433 0 3.5L 0 3.5Z" clip-rule="evenodd" transform="translate(309 30)"/></g><g id="Camera"><g id="Oval 7" filter="url(#filter14_i)"><path fill="#686868" fill-rule="evenodd" d="M 7.9894 15.9724C 12.4018 15.9724 15.9788 12.3968 15.9788 7.98618C 15.9788 3.57554 12.4018 0 7.9894 0C 3.57698 0 0 3.57554 0 7.98618C 0 12.3968 3.57698 15.9724 7.9894 15.9724Z" clip-rule="evenodd" transform="translate(210.035 24.7772)"/></g><g id="Oval 8"><path fill="url(#paint10_radial)" fill-rule="evenodd" d="M 4.43856 8.87354C 6.8899 8.87354 8.87711 6.88713 8.87711 4.43677C 8.87711 1.98641 6.8899 0 4.43856 0C 1.98721 0 0 1.98641 0 4.43677C 0 6.88713 1.98721 8.87354 4.43856 8.87354Z" clip-rule="evenodd" transform="translate(213.586 28.3266)"/><path fill="#000" fill-opacity=".351" fill-rule="evenodd" d="M 4.43856 8.87354C 6.8899 8.87354 8.87711 6.88713 8.87711 4.43677C 8.87711 1.98641 6.8899 0 4.43856 0C 1.98721 0 0 1.98641 0 4.43677C 0 6.88713 1.98721 8.87354 4.43856 8.87354Z" clip-rule="evenodd" transform="translate(213.586 28.3266)"/></g><g id="Oval 9" opacity=".33"><path fill="#fff" fill-rule="evenodd" d="M 0.887711 1.77471C 1.37798 1.77471 1.77542 1.37743 1.77542 0.887354C 1.77542 0.397282 1.37798 0 0.887711 0C 0.397442 0 0 0.397282 0 0.887354C 0 1.37743 0.397442 1.77471 0.887711 1.77471Z" clip-rule="evenodd" transform="translate(216.249 30.9887)"/></g><g id="Oval 9_2" opacity=".33"><path fill="#fff" fill-opacity=".654" fill-rule="evenodd" d="M 1.49164 2.98207C 2.31545 2.98207 2.98327 2.31451 2.98327 1.49104C 2.98327 0.66756 2.31545 0 1.49164 0C 0.667829 0 0 0.66756 0 1.49104C 0 2.31451 0.667829 2.98207 1.49164 2.98207Z" clip-rule="evenodd" transform="translate(218.052 34.6785)"/></g></g></g></g></g><defs><filter id="filter0_f" width="498.243" height="32.243" x="100.378" y="806.378" color-interpolation-filters="sRGB" filterUnits="userSpaceOnUse"><feFlood flood-opacity="0" result="BackgroundImageFix"/><feBlend in="SourceGraphic" in2="BackgroundImageFix" mode="normal" result="shape"/><feGaussianBlur result="effect1_foregroundBlur" stdDeviation="6.811"/></filter><filter id="filter1_f" width="459.619" height="38.619" x="119.69" y="801.69" color-interpolation-filters="sRGB" filterUnits="userSpaceOnUse"><feFlood flood-opacity="0" result="BackgroundImageFix"/><feBlend in="SourceGraphic" in2="BackgroundImageFix" mode="normal" result="shape"/><feGaussianBlur result="effect1_foregroundBlur" stdDeviation="6.155"/></filter><filter id="filter2_f" width="697.144" height="284.144" x=".928" y="645.928" color-interpolation-filters="sRGB" filterUnits="userSpaceOnUse"><feFlood flood-opacity="0" result="BackgroundImageFix"/><feBlend in="SourceGraphic" in2="BackgroundImageFix" mode="normal" result="shape"/><feGaussianBlur result="effect1_foregroundBlur" stdDeviation="51.036"/></filter><filter id="filter3_ii" width="18" height="49" x="533" y="197" color-interpolation-filters="sRGB" filterUnits="userSpaceOnUse"><feFlood flood-opacity="0" result="BackgroundImageFix"/><feBlend in="SourceGraphic" in2="BackgroundImageFix" mode="normal" result="shape"/><feColorMatrix in="SourceAlpha" result="hardAlpha" type="matrix" values="0 0 0 0 0 0 0 0 0 0 0 0 0 0 0 0 0 0 255 0"/><feOffset dx="-1"/><feGaussianBlur stdDeviation=".5"/><feComposite in2="hardAlpha" k2="-1" k3="1" operator="arithmetic"/><feColorMatrix type="matrix" values="0 0 0 0 1 0 0 0 0 1 0 0 0 0 1 0 0 0 0.755378 0"/><feBlend in2="shape" mode="normal" result="effect1_innerShadow"/><feColorMatrix in="SourceAlpha" result="hardAlpha" type="matrix" values="0 0 0 0 0 0 0 0 0 0 0 0 0 0 0 0 0 0 255 0"/><feOffset dy="-1"/><feGaussianBlur stdDeviation="1.5"/><feComposite in2="hardAlpha" k2="-1" k3="1" operator="arithmetic"/><feColorMatrix type="matrix" values="0 0 0 0 0 0 0 0 0 0 0 0 0 0 0 0 0 0 0.377548 0"/><feBlend in2="effect1_innerShadow" mode="normal" result="effect2_innerShadow"/></filter><filter id="filter4_ii" width="18" height="101" x="533" y="311" color-interpolation-filters="sRGB" filterUnits="userSpaceOnUse"><feFlood flood-opacity="0" result="BackgroundImageFix"/><feBlend in="SourceGraphic" in2="BackgroundImageFix" mode="normal" result="shape"/><feColorMatrix in="SourceAlpha" result="hardAlpha" type="matrix" values="0 0 0 0 0 0 0 0 0 0 0 0 0 0 0 0 0 0 255 0"/><feOffset dx="-1"/><feGaussianBlur stdDeviation=".5"/><feComposite in2="hardAlpha" k2="-1" k3="1" operator="arithmetic"/><feColorMatrix type="matrix" values="0 0 0 0 1 0 0 0 0 1 0 0 0 0 1 0 0 0 0.755378 0"/><feBlend in2="shape" mode="normal" result="effect1_innerShadow"/><feColorMatrix in="SourceAlpha" result="hardAlpha" type="matrix" values="0 0 0 0 0 0 0 0 0 0 0 0 0 0 0 0 0 0 255 0"/><feOffset dy="-1"/><feGaussianBlur stdDeviation="1.5"/><feComposite in2="hardAlpha" k2="-1" k3="1" operator="arithmetic"/><feColorMatrix type="matrix" values="0 0 0 0 0 0 0 0 0 0 0 0 0 0 0 0 0 0 0.377548 0"/><feBlend in2="effect1_innerShadow" mode="normal" result="effect2_innerShadow"/></filter><filter id="filter5_iiii" width="399" height="822" x="149" y="-3" color-interpolation-filters="sRGB" filterUnits="userSpaceOnUse"><feFlood flood-opacity="0" result="BackgroundImageFix"/><feBlend in="SourceGraphic" in2="BackgroundImageFix" mode="normal" result="shape"/><feColorMatrix in="SourceAlpha" result="hardAlpha" type="matrix" values="0 0 0 0 0 0 0 0 0 0 0 0 0 0 0 0 0 0 255 0"/><feOffset/><feGaussianBlur stdDeviation="2"/><feComposite in2="hardAlpha" k2="-1" k3="1" operator="arithmetic"/><feColorMatrix type="matrix" values="0 0 0 0 0 0 0 0 0 0 0 0 0 0 0 0 0 0 0.25 0"/><feBlend in2="shape" mode="normal" result="effect1_innerShadow"/><feColorMatrix in="SourceAlpha" result="hardAlpha" type="matrix" values="0 0 0 0 0 0 0 0 0 0 0 0 0 0 0 0 0 0 255 0"/><feOffset/><feGaussianBlur stdDeviation="4.5"/><feComposite in2="hardAlpha" k2="-1" k3="1" operator="arithmetic"/><feColorMatrix type="matrix" values="0 0 0 0 0 0 0 0 0 0 0 0 0 0 0 0 0 0 0.25 0"/><feBlend in2="effect1_innerShadow" mode="normal" result="effect2_innerShadow"/><feColorMatrix in="SourceAlpha" result="hardAlpha" type="matrix" values="0 0 0 0 0 0 0 0 0 0 0 0 0 0 0 0 0 0 255 0"/><feOffset dy="-4"/><feGaussianBlur stdDeviation="1.5"/><feComposite in2="hardAlpha" k2="-1" k3="1" operator="arithmetic"/><feColorMatrix type="matrix" values="0 0 0 0 0 0 0 0 0 0 0 0 0 0 0 0 0 0 0.243008 0"/><feBlend in2="effect2_innerShadow" mode="normal" result="effect3_innerShadow"/><feColorMatrix in="SourceAlpha" result="hardAlpha" type="matrix" values="0 0 0 0 0 0 0 0 0 0 0 0 0 0 0 0 0 0 255 0"/><feOffset dy="1"/><feGaussianBlur stdDeviation="1.5"/><feComposite in2="hardAlpha" k2="-1" k3="1" operator="arithmetic"/><feColorMatrix type="matrix" values="0 0 0 0 1 0 0 0 0 1 0 0 0 0 1 0 0 0 0.25 0"/><feBlend in2="effect3_innerShadow" mode="normal" result="effect4_innerShadow"/></filter><filter id="filter6_i" width="8" height="5" x="441" y="0" color-interpolation-filters="sRGB" filterUnits="userSpaceOnUse"><feFlood flood-opacity="0" result="BackgroundImageFix"/><feBlend in="SourceGraphic" in2="BackgroundImageFix" mode="normal" result="shape"/><feColorMatrix in="SourceAlpha" result="hardAlpha" type="matrix" values="0 0 0 0 0 0 0 0 0 0 0 0 0 0 0 0 0 0 255 0"/><feOffset/><feGaussianBlur stdDeviation=".5"/><feComposite in2="hardAlpha" k2="-1" k3="1" operator="arithmetic"/><feColorMatrix type="matrix" values="0 0 0 0 0 0 0 0 0 0 0 0 0 0 0 0 0 0 0.23296 0"/><feBlend in2="shape" mode="normal" result="effect1_innerShadow"/></filter><filter id="filter7_i" width="7" height="11" x="149" y="66" color-interpolation-filters="sRGB" filterUnits="userSpaceOnUse"><feFlood flood-opacity="0" result="BackgroundImageFix"/><feBlend in="SourceGraphic" in2="BackgroundImageFix" mode="normal" result="shape"/><feColorMatrix in="SourceAlpha" result="hardAlpha" type="matrix" values="0 0 0 0 0 0 0 0 0 0 0 0 0 0 0 0 0 0 255 0"/><feOffset/><feGaussianBlur stdDeviation=".5"/><feComposite in2="hardAlpha" k2="-1" k3="1" operator="arithmetic"/><feColorMatrix type="matrix" values="0 0 0 0 0 0 0 0 0 0 0 0 0 0 0 0 0 0 0.23296 0"/><feBlend in2="shape" mode="normal" result="effect1_innerShadow"/></filter><filter id="filter8_i" width="8" height="11" x="540" y="66" color-interpolation-filters="sRGB" filterUnits="userSpaceOnUse"><feFlood flood-opacity="0" result="BackgroundImageFix"/><feBlend in="SourceGraphic" in2="BackgroundImageFix" mode="normal" result="shape"/><feColorMatrix in="SourceAlpha" result="hardAlpha" type="matrix" values="0 0 0 0 0 0 0 0 0 0 0 0 0 0 0 0 0 0 255 0"/><feOffset/><feGaussianBlur stdDeviation=".5"/><feComposite in2="hardAlpha" k2="-1" k3="1" operator="arithmetic"/><feColorMatrix type="matrix" values="0 0 0 0 0 0 0 0 0 0 0 0 0 0 0 0 0 0 0.23296 0"/><feBlend in2="shape" mode="normal" result="effect1_innerShadow"/></filter><filter id="filter9_i" width="10.904" height="11" x="537.096" y="764" color-interpolation-filters="sRGB" filterUnits="userSpaceOnUse"><feFlood flood-opacity="0" result="BackgroundImageFix"/><feBlend in="SourceGraphic" in2="BackgroundImageFix" mode="normal" result="shape"/><feColorMatrix in="SourceAlpha" result="hardAlpha" type="matrix" values="0 0 0 0 0 0 0 0 0 0 0 0 0 0 0 0 0 0 255 0"/><feOffset/><feGaussianBlur stdDeviation=".5"/><feComposite in2="hardAlpha" k2="-1" k3="1" operator="arithmetic"/><feColorMatrix type="matrix" values="0 0 0 0 0 0 0 0 0 0 0 0 0 0 0 0 0 0 0.23296 0"/><feBlend in2="shape" mode="normal" result="effect1_innerShadow"/></filter><filter id="filter10_i" width="10.904" height="11" x="149" y="764" color-interpolation-filters="sRGB" filterUnits="userSpaceOnUse"><feFlood flood-opacity="0" result="BackgroundImageFix"/><feBlend in="SourceGraphic" in2="BackgroundImageFix" mode="normal" result="shape"/><feColorMatrix in="SourceAlpha" result="hardAlpha" type="matrix" values="0 0 0 0 0 0 0 0 0 0 0 0 0 0 0 0 0 0 255 0"/><feOffset/><feGaussianBlur stdDeviation=".5"/><feComposite in2="hardAlpha" k2="-1" k3="1" operator="arithmetic"/><feColorMatrix type="matrix" values="0 0 0 0 0 0 0 0 0 0 0 0 0 0 0 0 0 0 0.23296 0"/><feBlend in2="shape" mode="normal" result="effect1_innerShadow"/></filter><filter id="filter11_diii" width="386" height="811" x="156" y="4" color-interpolation-filters="sRGB" filterUnits="userSpaceOnUse"><feFlood flood-opacity="0" result="BackgroundImageFix"/><feColorMatrix in="SourceAlpha" type="matrix" values="0 0 0 0 0 0 0 0 0 0 0 0 0 0 0 0 0 0 255 0"/><feOffset dx="1"/><feGaussianBlur stdDeviation=".5"/><feColorMatrix type="matrix" values="0 0 0 0 0 0 0 0 0 0 0 0 0 0 0 0 0 0 0.15141 0"/><feBlend in2="BackgroundImageFix" mode="normal" result="effect1_dropShadow"/><feBlend in="SourceGraphic" in2="effect1_dropShadow" mode="normal" result="shape"/><feColorMatrix in="SourceAlpha" result="hardAlpha" type="matrix" values="0 0 0 0 0 0 0 0 0 0 0 0 0 0 0 0 0 0 255 0"/><feOffset/><feGaussianBlur stdDeviation="5.5"/><feComposite in2="hardAlpha" k2="-1" k3="1" operator="arithmetic"/><feColorMatrix type="matrix" values="0 0 0 0 1 0 0 0 0 1 0 0 0 0 1 0 0 0 1 0"/><feBlend in2="shape" mode="normal" result="effect2_innerShadow"/><feColorMatrix in="SourceAlpha" result="hardAlpha" type="matrix" values="0 0 0 0 0 0 0 0 0 0 0 0 0 0 0 0 0 0 255 0"/><feOffset dy="4"/><feGaussianBlur stdDeviation="4.5"/><feComposite in2="hardAlpha" k2="-1" k3="1" operator="arithmetic"/><feColorMatrix type="matrix" values="0 0 0 0 1 0 0 0 0 1 0 0 0 0 1 0 0 0 1 0"/><feBlend in2="effect2_innerShadow" mode="normal" result="effect3_innerShadow"/><feColorMatrix in="SourceAlpha" result="hardAlpha" type="matrix" values="0 0 0 0 0 0 0 0 0 0 0 0 0 0 0 0 0 0 255 0"/><feOffset dy="-4"/><feComposite in2="hardAlpha" k2="-1" k3="1" operator="arithmetic"/><feColorMatrix type="matrix" values="0 0 0 0 0 0 0 0 0 0 0 0 0 0 0 0 0 0 0.0327785 0"/><feBlend in2="effect3_innerShadow" mode="normal" result="effect4_innerShadow"/></filter><filter id="filter12_di" width="30" height="15" x="333.5" y="58.5" color-interpolation-filters="sRGB" filterUnits="userSpaceOnUse"><feFlood flood-opacity="0" result="BackgroundImageFix"/><feColorMatrix in="SourceAlpha" type="matrix" values="0 0 0 0 0 0 0 0 0 0 0 0 0 0 0 0 0 0 255 0"/><feOffset dy="1"/><feGaussianBlur stdDeviation=".5"/><feColorMatrix type="matrix" values="0 0 0 0 1 0 0 0 0 1 0 0 0 0 1 0 0 0 0.5 0"/><feBlend in2="BackgroundImageFix" mode="normal" result="effect1_dropShadow"/><feBlend in="SourceGraphic" in2="effect1_dropShadow" mode="normal" result="shape"/><feColorMatrix in="SourceAlpha" result="hardAlpha" type="matrix" values="0 0 0 0 0 0 0 0 0 0 0 0 0 0 0 0 0 0 255 0"/><feOffset dy="1"/><feGaussianBlur stdDeviation=".5"/><feComposite in2="hardAlpha" k2="-1" k3="1" operator="arithmetic"/><feColorMatrix type="matrix" values="0 0 0 0 1 0 0 0 0 1 0 0 0 0 1 0 0 0 0.25 0"/><feBlend in2="shape" mode="normal" result="effect2_innerShadow"/></filter><filter id="filter13_ddii" width="83" height="12" x="308" y="28" color-interpolation-filters="sRGB" filterUnits="userSpaceOnUse"><feFlood flood-opacity="0" result="BackgroundImageFix"/><feColorMatrix in="SourceAlpha" type="matrix" values="0 0 0 0 0 0 0 0 0 0 0 0 0 0 0 0 0 0 255 0"/><feOffset/><feGaussianBlur stdDeviation=".5"/><feColorMatrix type="matrix" values="0 0 0 0 0 0 0 0 0 0 0 0 0 0 0 0 0 0 0.25 0"/><feBlend in2="BackgroundImageFix" mode="normal" result="effect1_dropShadow"/><feColorMatrix in="SourceAlpha" type="matrix" values="0 0 0 0 0 0 0 0 0 0 0 0 0 0 0 0 0 0 255 0"/><feOffset dy="-1"/><feGaussianBlur stdDeviation=".5"/><feColorMatrix type="matrix" values="0 0 0 0 1 0 0 0 0 1 0 0 0 0 1 0 0 0 0.5 0"/><feBlend in2="effect1_dropShadow" mode="normal" result="effect2_dropShadow"/><feBlend in="SourceGraphic" in2="effect2_dropShadow" mode="normal" result="shape"/><feColorMatrix in="SourceAlpha" result="hardAlpha" type="matrix" values="0 0 0 0 0 0 0 0 0 0 0 0 0 0 0 0 0 0 255 0"/><feOffset dy="1"/><feGaussianBlur stdDeviation=".5"/><feComposite in2="hardAlpha" k2="-1" k3="1" operator="arithmetic"/><feColorMatrix type="matrix" values="0 0 0 0 0 0 0 0 0 0 0 0 0 0 0 0 0 0 0.185292 0"/><feBlend in2="shape" mode="normal" result="effect3_innerShadow"/><feColorMatrix in="SourceAlpha" result="hardAlpha" type="matrix" values="0 0 0 0 0 0 0 0 0 0 0 0 0 0 0 0 0 0 255 0"/><feOffset dx="3" dy="3"/><feGaussianBlur stdDeviation="1.5"/><feComposite in2="hardAlpha" k2="-1" k3="1" operator="arithmetic"/><feColorMatrix type="matrix" values="0 0 0 0 0 0 0 0 0 0 0 0 0 0 0 0 0 0 0.1 0"/><feBlend in2="effect3_innerShadow" mode="normal" result="effect4_innerShadow"/></filter><filter id="filter14_i" width="15.979" height="16.972" x="210.035" y="24.777" color-interpolation-filters="sRGB" filterUnits="userSpaceOnUse"><feFlood flood-opacity="0" result="BackgroundImageFix"/><feBlend in="SourceGraphic" in2="BackgroundImageFix" mode="normal" result="shape"/><feColorMatrix in="SourceAlpha" result="hardAlpha" type="matrix" values="0 0 0 0 0 0 0 0 0 0 0 0 0 0 0 0 0 0 255 0"/><feOffset dy="1"/><feGaussianBlur stdDeviation="1"/><feComposite in2="hardAlpha" k2="-1" k3="1" operator="arithmetic"/><feColorMatrix type="matrix" values="0 0 0 0 0 0 0 0 0 0 0 0 0 0 0 0 0 0 1 0"/><feBlend in2="shape" mode="normal" result="effect1_innerShadow"/></filter><linearGradient id="paint0_linear" x2="1" gradientTransform="translate(0 5) scale(471 5)" gradientUnits="userSpaceOnUse"><stop stop-opacity=".01"/><stop offset=".237" stop-opacity=".653"/><stop offset=".502"/><stop offset=".772" stop-opacity=".514"/><stop offset="1" stop-opacity=".01"/></linearGradient><linearGradient id="paint1_linear" x2="1" gradientTransform="translate(0 14) scale(435 14)" gradientUnits="userSpaceOnUse"><stop stop-opacity=".01"/><stop offset=".184" stop-opacity=".653"/><stop offset=".502"/><stop offset=".857" stop-opacity=".514"/><stop offset="1" stop-opacity=".01"/></linearGradient><linearGradient id="paint2_linear" x2="1" gradientTransform="translate(0 80) scale(493 80)" gradientUnits="userSpaceOnUse"><stop stop-opacity=".01"/><stop offset=".184" stop-opacity=".653"/><stop offset=".502"/><stop offset=".857" stop-opacity=".514"/><stop offset="1" stop-opacity=".01"/></linearGradient><linearGradient id="paint3_linear" x2="1" gradientTransform="matrix(0 -0.576314 0.922103 0 4 2.78172)" gradientUnits="userSpaceOnUse"><stop stop-color="#6167BC"/><stop offset="1" stop-color="#797DC4"/></linearGradient><linearGradient id="paint4_linear" x2="1" gradientTransform="translate(4.53738 5.5) scale(-1.03738 -1.63017)" gradientUnits="userSpaceOnUse"><stop stop-color="#585EAD"/><stop offset="1" stop-color="#787CC3"/></linearGradient><linearGradient id="paint5_linear" x2="1" gradientTransform="translate(5.18558 5.5) scale(-1.18558 -1.63017)" gradientUnits="userSpaceOnUse"><stop stop-color="#5B61B0"/><stop offset="1" stop-color="#787CC3"/></linearGradient><linearGradient id="paint6_linear" x2="1" gradientTransform="matrix(-2.91027 0.383446 -0.380099 -2.93589 7.06794 5.5)" gradientUnits="userSpaceOnUse"><stop stop-color="#696EBA"/><stop offset="1" stop-color="#8A8DD2"/></linearGradient><linearGradient id="paint7_linear" x2="1" gradientTransform="matrix(-2.91027 0.383446 -0.380099 -2.93589 7.06794 5.5)" gradientUnits="userSpaceOnUse"><stop stop-color="#696EBA"/><stop offset="1" stop-color="#8A8DD2"/></linearGradient><linearGradient id="paint8_linear" x2="1" gradientTransform="matrix(0 776.634 -370.009 0 192 18.5372)" gradientUnits="userSpaceOnUse"><stop stop-color="#F7F7F7"/><stop offset="1" stop-color="#EEE"/></linearGradient><linearGradient id="paint9_linear" x2="1" gradientTransform="matrix(0 776.634 -370.009 0 192 18.5372)" gradientUnits="userSpaceOnUse"><stop stop-color="#F7F7F7"/><stop offset="1" stop-color="#EEE"/></linearGradient><radialGradient id="paint10_radial" cx=".5" cy=".5" r=".5" gradientTransform="matrix(0 8.87354 -8.87711 0 8.87711 0)" gradientUnits="userSpaceOnUse"><stop stop-color="#696969"/><stop offset=".101" stop-color="#3F647D"/><stop offset="1"/></radialGradient></defs></svg>