<svg width="699" height="931" viewBox="0 0 699 931" version="1.1" xmlns="http://www.w3.org/2000/svg" xmlns:xlink="http://www.w3.org/1999/xlink">
<g id="Canvas" fill="none">
<g id="Really Blue">
<g id="Phone Shadow">
<g id="Rectangle" opacity="0.351959" filter="url(#filter0_f)">
<path fill-rule="evenodd" clip-rule="evenodd" d="M 0 2.5C 0 1.11929 1.11929 0 2.5 0L 468.5 0C 469.881 0 471 1.11929 471 2.5L 471 2.5C 471 3.88071 469.881 5 468.5 5L 2.5 5C 1.11929 5 0 3.88071 0 2.5L 0 2.5Z" transform="translate(114 820)" fill="url(#paint0_linear)"/>
</g>
<g id="Rectangle_2" opacity="0.373981" filter="url(#filter1_f)">
<path fill-rule="evenodd" clip-rule="evenodd" d="M 0 7C 0 3.13401 3.13401 0 7 0L 428 0C 431.866 0 435 3.13401 435 7L 435 7C 435 10.866 431.866 14 428 14L 7 14C 3.13401 14 0 10.866 0 7L 0 7Z" transform="translate(132 814)" fill="url(#paint1_linear)"/>
</g>
<g id="Rectangle_3" opacity="0.25702" filter="url(#filter2_f)">
<path fill-rule="evenodd" clip-rule="evenodd" d="M 0 40C 0 17.9086 17.9086 0 40 0L 453 0C 475.091 0 493 17.9086 493 40L 493 40C 493 62.0914 475.091 80 453 80L 40 80C 17.9086 80 0 62.0914 0 40L 0 40Z" transform="translate(103 748)" fill="url(#paint2_linear)"/>
</g>
</g>
<g id="Buttons">
<g id="Power Button" filter="url(#filter3_ii)">
<path fill-rule="evenodd" clip-rule="evenodd" d="M 0 2C 0 0.895431 0.895431 0 2 0L 15 0C 16.1046 0 17 0.895431 17 2L 17 46C 17 47.1046 16.1046 48 15 48L 2 48C 0.895431 48 0 47.1046 0 46L 0 2Z" transform="translate(534 198)" fill="#3944AF"/>
</g>
<g id="Volume Rocker" filter="url(#filter4_ii)">
<path fill-rule="evenodd" clip-rule="evenodd" d="M 0 2C 0 0.895431 0.895431 0 2 0L 15 0C 16.1046 0 17 0.895431 17 2L 17 98C 17 99.1046 16.1046 100 15 100L 2 100C 0.895431 100 0 99.1046 0 98L 0 2Z" transform="translate(534 312)" fill="#3640A6"/>
</g>
</g>
<g id="Phone">
<g id="Phone BG" filter="url(#filter5_iiii)">
<path fill-rule="evenodd" clip-rule="evenodd" d="M 0 59.2141C 0 26.511 26.511 0 59.2141 0L 339.786 0C 372.489 0 399 26.511 399 59.2141L 399 758.786C 399 791.489 372.489 818 339.786 818L 59.2141 818C 26.511 818 0 791.489 0 758.786L 0 59.2141Z" transform="translate(149 0)" fill="#7882DB"/>
</g>
<mask id="mask0" mask-type="alpha" maskUnits="userSpaceOnUse" x="149" y="0" width="399" height="818">
<g id="Phone BG_2">
<path fill-rule="evenodd" clip-rule="evenodd" d="M 0 59.2141C 0 26.511 26.511 0 59.2141 0L 339.786 0C 372.489 0 399 26.511 399 59.2141L 399 758.786C 399 791.489 372.489 818 339.786 818L 59.2141 818C 26.511 818 0 791.489 0 758.786L 0 59.2141Z" transform="translate(149 0)" fill="white"/>
</g>
</mask>
<g mask="url(#mask0)">
<g id="Top" filter="url(#filter6_i)">
<path fill-rule="evenodd" clip-rule="evenodd" d="M 0 0L 8 0L 8 5L 0 5L 0 0Z" transform="translate(441 0)" fill="url(#paint3_linear)"/>
</g>
<g id="Top Left" filter="url(#filter7_i)">
<path fill-rule="evenodd" clip-rule="evenodd" d="M 0 3L 7 0L 7 9L 0 11L 0 3Z" transform="translate(149 66)" fill="url(#paint4_linear)"/>
</g>
<g id="Top Right" filter="url(#filter8_i)">
<path fill-rule="evenodd" clip-rule="evenodd" d="M 0 3L 8 0L 8 9L 0 11L 0 3Z" transform="translate(548 66) scale(-1 1)" fill="url(#paint5_linear)"/>
</g>
<g id="Bottom Right" filter="url(#filter9_i)">
<path fill-rule="evenodd" clip-rule="evenodd" d="M 0 0L 8.04131 0L 10.904 11L 0 11L 0 0Z" transform="translate(548 764) scale(-1 1)" fill="url(#paint6_linear)"/>
</g>
<g id="Bottom Right_2" filter="url(#filter10_i)">
<path fill-rule="evenodd" clip-rule="evenodd" d="M 0 0L 8.04131 0L 10.904 11L 0 11L 0 0Z" transform="translate(149 764)" fill="url(#paint7_linear)"/>
</g>
</g>
</g>
<g id="White Front">
<g id="Front Face 1" opacity="0.391927">
<path fill-rule="evenodd" clip-rule="evenodd" d="M 0 52.755C 0 23.6192 23.6192 0 52.755 0L 331.245 0C 360.381 0 384 23.6192 384 52.755L 384 755.245C 384 783.276 361.276 806 333.245 806L 50.7549 806C 22.7238 806 0 783.276 0 755.245L 0 52.755Z" transform="translate(156 8)" fill="url(#paint8_linear)"/>
</g>
<g id="Front Face 2" filter="url(#filter11_diii)">
<path fill-rule="evenodd" clip-rule="evenodd" d="M 0 52.755C 0 23.6192 23.6192 0 52.755 0L 331.245 0C 360.381 0 384 23.6192 384 52.755L 384 755.245C 384 783.276 361.276 806 333.245 806L 50.7549 806C 22.7238 806 0 783.276 0 755.245L 0 52.755Z" transform="translate(156 5)" fill="url(#paint9_linear)"/>
</g>
</g>
<g id="Screen">
<g id="Black border around Screen">
<path fill-rule="evenodd" clip-rule="evenodd" d="M 0 0L 364 0L 364 644L 0 644L 0 0Z" transform="translate(166 80)" fill="black"/>
</g>
</g>
<g id="Sensors">
<g id="Sensor" filter="url(#filter12_di)">
<path fill-rule="evenodd" clip-rule="evenodd" d="M 6 -0.25L 21 -0.25C 24.4518 -0.25 27.25 2.54822 27.25 6C 27.25 9.45178 24.4518 12.25 21 12.25L 6 12.25C 2.54822 12.25 -0.25 9.45178 -0.25 6C -0.25 2.54822 2.54822 -0.25 6 -0.25Z" transform="translate(335 59)" fill="#1F1F1F"/>
<path fill-rule="evenodd" clip-rule="evenodd" d="M 6 -0.25L 21 -0.25C 24.4518 -0.25 27.25 2.54822 27.25 6C 27.25 9.45178 24.4518 12.25 21 12.25L 6 12.25C 2.54822 12.25 -0.25 9.45178 -0.25 6C -0.25 2.54822 2.54822 -0.25 6 -0.25Z" stroke-width="0.5" stroke-miterlimit="8" transform="translate(335 59)" stroke="white" stroke-opacity="0.5"/>
</g>
<g id="Earphone" filter="url(#filter13_ddii)">
<path fill-rule="evenodd" clip-rule="evenodd" d="M 0 3.5C 0 1.567 1.567 0 3.5 0L 75.5 0C 77.433 0 79 1.567 79 3.5L 79 3.5C 79 5.433 77.433 7 75.5 7L 3.5 7C 1.567 7 0 5.433 0 3.5L 0 3.5Z" transform="translate(309 30)" fill="#F4F4F4"/>
</g>
<g id="Camera">
<g id="Oval 7" filter="url(#filter14_i)">
<path fill-rule="evenodd" clip-rule="evenodd" d="M 7.9894 15.9724C 12.4018 15.9724 15.9788 12.3968 15.9788 7.98618C 15.9788 3.57554 12.4018 0 7.9894 0C 3.57698 0 0 3.57554 0 7.98618C 0 12.3968 3.57698 15.9724 7.9894 15.9724Z" transform="translate(210.035 24.7772)" fill="#686868"/>
</g>
<g id="Oval 8">
<path fill-rule="evenodd" clip-rule="evenodd" d="M 4.43856 8.87354C 6.8899 8.87354 8.87711 6.88713 8.87711 4.43677C 8.87711 1.98641 6.8899 0 4.43856 0C 1.98721 0 0 1.98641 0 4.43677C 0 6.88713 1.98721 8.87354 4.43856 8.87354Z" transform="translate(213.586 28.3266)" fill="url(#paint10_radial)"/>
<path fill-rule="evenodd" clip-rule="evenodd" d="M 4.43856 8.87354C 6.8899 8.87354 8.87711 6.88713 8.87711 4.43677C 8.87711 1.98641 6.8899 0 4.43856 0C 1.98721 0 0 1.98641 0 4.43677C 0 6.88713 1.98721 8.87354 4.43856 8.87354Z" transform="translate(213.586 28.3266)" fill="black" fill-opacity="0.350968"/>
</g>
<g id="Oval 9" opacity="0.33">
<path fill-rule="evenodd" clip-rule="evenodd" d="M 0.887711 1.77471C 1.37798 1.77471 1.77542 1.37743 1.77542 0.887354C 1.77542 0.397282 1.37798 0 0.887711 0C 0.397442 0 0 0.397282 0 0.887354C 0 1.37743 0.397442 1.77471 0.887711 1.77471Z" transform="translate(216.249 30.9887)" fill="white"/>
</g>
<g id="Oval 9_2" opacity="0.33">
<path fill-rule="evenodd" clip-rule="evenodd" d="M 1.49164 2.98207C 2.31545 2.98207 2.98327 2.31451 2.98327 1.49104C 2.98327 0.66756 2.31545 0 1.49164 0C 0.667829 0 0 0.66756 0 1.49104C 0 2.31451 0.667829 2.98207 1.49164 2.98207Z" transform="translate(218.052 34.6785)" fill="white" fill-opacity="0.654297"/>
</g>
</g>
</g>
</g>
</g>
<defs>
<filter id="filter0_f" x="100.378" y="806.378" width="498.243" height="32.2435" filterUnits="userSpaceOnUse" color-interpolation-filters="sRGB">
<feFlood flood-opacity="0" result="BackgroundImageFix"/>
<feBlend mode="normal" in="SourceGraphic" in2="BackgroundImageFix" result="shape"/>
<feGaussianBlur stdDeviation="6.81087" result="effect1_foregroundBlur"/>
</filter>
<filter id="filter1_f" x="119.69" y="801.69" width="459.619" height="38.6193" filterUnits="userSpaceOnUse" color-interpolation-filters="sRGB">
<feFlood flood-opacity="0" result="BackgroundImageFix"/>
<feBlend mode="normal" in="SourceGraphic" in2="BackgroundImageFix" result="shape"/>
<feGaussianBlur stdDeviation="6.15482" result="effect1_foregroundBlur"/>
</filter>
<filter id="filter2_f" x="0.92791" y="645.928" width="697.144" height="284.144" filterUnits="userSpaceOnUse" color-interpolation-filters="sRGB">
<feFlood flood-opacity="0" result="BackgroundImageFix"/>
<feBlend mode="normal" in="SourceGraphic" in2="BackgroundImageFix" result="shape"/>
<feGaussianBlur stdDeviation="51.036" result="effect1_foregroundBlur"/>
</filter>
<filter id="filter3_ii" x="533" y="197" width="18" height="49" filterUnits="userSpaceOnUse" color-interpolation-filters="sRGB">
<feFlood flood-opacity="0" result="BackgroundImageFix"/>
<feBlend mode="normal" in="SourceGraphic" in2="BackgroundImageFix" result="shape"/>
<feColorMatrix in="SourceAlpha" type="matrix" values="0 0 0 0 0 0 0 0 0 0 0 0 0 0 0 0 0 0 255 0" result="hardAlpha"/>
<feOffset dx="-1"/>
<feGaussianBlur stdDeviation="0.5"/>
<feComposite in2="hardAlpha" operator="arithmetic" k2="-1" k3="1"/>
<feColorMatrix type="matrix" values="0 0 0 0 1 0 0 0 0 1 0 0 0 0 1 0 0 0 0.755378 0"/>
<feBlend mode="normal" in2="shape" result="effect1_innerShadow"/>
<feColorMatrix in="SourceAlpha" type="matrix" values="0 0 0 0 0 0 0 0 0 0 0 0 0 0 0 0 0 0 255 0" result="hardAlpha"/>
<feOffset dy="-1"/>
<feGaussianBlur stdDeviation="1.5"/>
<feComposite in2="hardAlpha" operator="arithmetic" k2="-1" k3="1"/>
<feColorMatrix type="matrix" values="0 0 0 0 0 0 0 0 0 0 0 0 0 0 0 0 0 0 0.377548 0"/>
<feBlend mode="normal" in2="effect1_innerShadow" result="effect2_innerShadow"/>
</filter>
<filter id="filter4_ii" x="533" y="311" width="18" height="101" filterUnits="userSpaceOnUse" color-interpolation-filters="sRGB">
<feFlood flood-opacity="0" result="BackgroundImageFix"/>
<feBlend mode="normal" in="SourceGraphic" in2="BackgroundImageFix" result="shape"/>
<feColorMatrix in="SourceAlpha" type="matrix" values="0 0 0 0 0 0 0 0 0 0 0 0 0 0 0 0 0 0 255 0" result="hardAlpha"/>
<feOffset dx="-1"/>
<feGaussianBlur stdDeviation="0.5"/>
<feComposite in2="hardAlpha" operator="arithmetic" k2="-1" k3="1"/>
<feColorMatrix type="matrix" values="0 0 0 0 1 0 0 0 0 1 0 0 0 0 1 0 0 0 0.755378 0"/>
<feBlend mode="normal" in2="shape" result="effect1_innerShadow"/>
<feColorMatrix in="SourceAlpha" type="matrix" values="0 0 0 0 0 0 0 0 0 0 0 0 0 0 0 0 0 0 255 0" result="hardAlpha"/>
<feOffset dy="-1"/>
<feGaussianBlur stdDeviation="1.5"/>
<feComposite in2="hardAlpha" operator="arithmetic" k2="-1" k3="1"/>
<feColorMatrix type="matrix" values="0 0 0 0 0 0 0 0 0 0 0 0 0 0 0 0 0 0 0.377548 0"/>
<feBlend mode="normal" in2="effect1_innerShadow" result="effect2_innerShadow"/>
</filter>
<filter id="filter5_iiii" x="149" y="-3" width="399" height="822" filterUnits="userSpaceOnUse" color-interpolation-filters="sRGB">
<feFlood flood-opacity="0" result="BackgroundImageFix"/>
<feBlend mode="normal" in="SourceGraphic" in2="BackgroundImageFix" result="shape"/>
<feColorMatrix in="SourceAlpha" type="matrix" values="0 0 0 0 0 0 0 0 0 0 0 0 0 0 0 0 0 0 255 0" result="hardAlpha"/>
<feOffset/>
<feGaussianBlur stdDeviation="2"/>
<feComposite in2="hardAlpha" operator="arithmetic" k2="-1" k3="1"/>
<feColorMatrix type="matrix" values="0 0 0 0 0 0 0 0 0 0 0 0 0 0 0 0 0 0 0.25 0"/>
<feBlend mode="normal" in2="shape" result="effect1_innerShadow"/>
<feColorMatrix in="SourceAlpha" type="matrix" values="0 0 0 0 0 0 0 0 0 0 0 0 0 0 0 0 0 0 255 0" result="hardAlpha"/>
<feOffset/>
<feGaussianBlur stdDeviation="4.5"/>
<feComposite in2="hardAlpha" operator="arithmetic" k2="-1" k3="1"/>
<feColorMatrix type="matrix" values="0 0 0 0 0 0 0 0 0 0 0 0 0 0 0 0 0 0 0.25 0"/>
<feBlend mode="normal" in2="effect1_innerShadow" result="effect2_innerShadow"/>
<feColorMatrix in="SourceAlpha" type="matrix" values="0 0 0 0 0 0 0 0 0 0 0 0 0 0 0 0 0 0 255 0" result="hardAlpha"/>
<feOffset dy="-4"/>
<feGaussianBlur stdDeviation="1.5"/>
<feComposite in2="hardAlpha" operator="arithmetic" k2="-1" k3="1"/>
<feColorMatrix type="matrix" values="0 0 0 0 0 0 0 0 0 0 0 0 0 0 0 0 0 0 0.243008 0"/>
<feBlend mode="normal" in2="effect2_innerShadow" result="effect3_innerShadow"/>
<feColorMatrix in="SourceAlpha" type="matrix" values="0 0 0 0 0 0 0 0 0 0 0 0 0 0 0 0 0 0 255 0" result="hardAlpha"/>
<feOffset dy="1"/>
<feGaussianBlur stdDeviation="1.5"/>
<feComposite in2="hardAlpha" operator="arithmetic" k2="-1" k3="1"/>
<feColorMatrix type="matrix" values="0 0 0 0 1 0 0 0 0 1 0 0 0 0 1 0 0 0 0.25 0"/>
<feBlend mode="normal" in2="effect3_innerShadow" result="effect4_innerShadow"/>
</filter>
<filter id="filter6_i" x="441" y="0" width="8" height="5" filterUnits="userSpaceOnUse" color-interpolation-filters="sRGB">
<feFlood flood-opacity="0" result="BackgroundImageFix"/>
<feBlend mode="normal" in="SourceGraphic" in2="BackgroundImageFix" result="shape"/>
<feColorMatrix in="SourceAlpha" type="matrix" values="0 0 0 0 0 0 0 0 0 0 0 0 0 0 0 0 0 0 255 0" result="hardAlpha"/>
<feOffset/>
<feGaussianBlur stdDeviation="0.5"/>
<feComposite in2="hardAlpha" operator="arithmetic" k2="-1" k3="1"/>
<feColorMatrix type="matrix" values="0 0 0 0 0 0 0 0 0 0 0 0 0 0 0 0 0 0 0.23296 0"/>
<feBlend mode="normal" in2="shape" result="effect1_innerShadow"/>
</filter>
<filter id="filter7_i" x="149" y="66" width="7" height="11" filterUnits="userSpaceOnUse" color-interpolation-filters="sRGB">
<feFlood flood-opacity="0" result="BackgroundImageFix"/>
<feBlend mode="normal" in="SourceGraphic" in2="BackgroundImageFix" result="shape"/>
<feColorMatrix in="SourceAlpha" type="matrix" values="0 0 0 0 0 0 0 0 0 0 0 0 0 0 0 0 0 0 255 0" result="hardAlpha"/>
<feOffset/>
<feGaussianBlur stdDeviation="0.5"/>
<feComposite in2="hardAlpha" operator="arithmetic" k2="-1" k3="1"/>
<feColorMatrix type="matrix" values="0 0 0 0 0 0 0 0 0 0 0 0 0 0 0 0 0 0 0.23296 0"/>
<feBlend mode="normal" in2="shape" result="effect1_innerShadow"/>
</filter>
<filter id="filter8_i" x="540" y="66" width="8" height="11" filterUnits="userSpaceOnUse" color-interpolation-filters="sRGB">
<feFlood flood-opacity="0" result="BackgroundImageFix"/>
<feBlend mode="normal" in="SourceGraphic" in2="BackgroundImageFix" result="shape"/>
<feColorMatrix in="SourceAlpha" type="matrix" values="0 0 0 0 0 0 0 0 0 0 0 0 0 0 0 0 0 0 255 0" result="hardAlpha"/>
<feOffset/>
<feGaussianBlur stdDeviation="0.5"/>
<feComposite in2="hardAlpha" operator="arithmetic" k2="-1" k3="1"/>
<feColorMatrix type="matrix" values="0 0 0 0 0 0 0 0 0 0 0 0 0 0 0 0 0 0 0.23296 0"/>
<feBlend mode="normal" in2="shape" result="effect1_innerShadow"/>
</filter>
<filter id="filter9_i" x="537.096" y="764" width="10.904" height="11" filterUnits="userSpaceOnUse" color-interpolation-filters="sRGB">
<feFlood flood-opacity="0" result="BackgroundImageFix"/>
<feBlend mode="normal" in="SourceGraphic" in2="BackgroundImageFix" result="shape"/>
<feColorMatrix in="SourceAlpha" type="matrix" values="0 0 0 0 0 0 0 0 0 0 0 0 0 0 0 0 0 0 255 0" result="hardAlpha"/>
<feOffset/>
<feGaussianBlur stdDeviation="0.5"/>
<feComposite in2="hardAlpha" operator="arithmetic" k2="-1" k3="1"/>
<feColorMatrix type="matrix" values="0 0 0 0 0 0 0 0 0 0 0 0 0 0 0 0 0 0 0.23296 0"/>
<feBlend mode="normal" in2="shape" result="effect1_innerShadow"/>
</filter>
<filter id="filter10_i" x="149" y="764" width="10.904" height="11" filterUnits="userSpaceOnUse" color-interpolation-filters="sRGB">
<feFlood flood-opacity="0" result="BackgroundImageFix"/>
<feBlend mode="normal" in="SourceGraphic" in2="BackgroundImageFix" result="shape"/>
<feColorMatrix in="SourceAlpha" type="matrix" values="0 0 0 0 0 0 0 0 0 0 0 0 0 0 0 0 0 0 255 0" result="hardAlpha"/>
<feOffset/>
<feGaussianBlur stdDeviation="0.5"/>
<feComposite in2="hardAlpha" operator="arithmetic" k2="-1" k3="1"/>
<feColorMatrix type="matrix" values="0 0 0 0 0 0 0 0 0 0 0 0 0 0 0 0 0 0 0.23296 0"/>
<feBlend mode="normal" in2="shape" result="effect1_innerShadow"/>
</filter>
<filter id="filter11_diii" x="156" y="4" width="386" height="811" filterUnits="userSpaceOnUse" color-interpolation-filters="sRGB">
<feFlood flood-opacity="0" result="BackgroundImageFix"/>
<feColorMatrix in="SourceAlpha" type="matrix" values="0 0 0 0 0 0 0 0 0 0 0 0 0 0 0 0 0 0 255 0"/>
<feOffset dx="1"/>
<feGaussianBlur stdDeviation="0.5"/>
<feColorMatrix type="matrix" values="0 0 0 0 0 0 0 0 0 0 0 0 0 0 0 0 0 0 0.15141 0"/>
<feBlend mode="normal" in2="BackgroundImageFix" result="effect1_dropShadow"/>
<feBlend mode="normal" in="SourceGraphic" in2="effect1_dropShadow" result="shape"/>
<feColorMatrix in="SourceAlpha" type="matrix" values="0 0 0 0 0 0 0 0 0 0 0 0 0 0 0 0 0 0 255 0" result="hardAlpha"/>
<feOffset/>
<feGaussianBlur stdDeviation="5.5"/>
<feComposite in2="hardAlpha" operator="arithmetic" k2="-1" k3="1"/>
<feColorMatrix type="matrix" values="0 0 0 0 1 0 0 0 0 1 0 0 0 0 1 0 0 0 1 0"/>
<feBlend mode="normal" in2="shape" result="effect2_innerShadow"/>
<feColorMatrix in="SourceAlpha" type="matrix" values="0 0 0 0 0 0 0 0 0 0 0 0 0 0 0 0 0 0 255 0" result="hardAlpha"/>
<feOffset dy="4"/>
<feGaussianBlur stdDeviation="4.5"/>
<feComposite in2="hardAlpha" operator="arithmetic" k2="-1" k3="1"/>
<feColorMatrix type="matrix" values="0 0 0 0 1 0 0 0 0 1 0 0 0 0 1 0 0 0 1 0"/>
<feBlend mode="normal" in2="effect2_innerShadow" result="effect3_innerShadow"/>
<feColorMatrix in="SourceAlpha" type="matrix" values="0 0 0 0 0 0 0 0 0 0 0 0 0 0 0 0 0 0 255 0" result="hardAlpha"/>
<feOffset dy="-4"/>
<feComposite in2="hardAlpha" operator="arithmetic" k2="-1" k3="1"/>
<feColorMatrix type="matrix" values="0 0 0 0 0 0 0 0 0 0 0 0 0 0 0 0 0 0 0.0327785 0"/>
<feBlend mode="normal" in2="effect3_innerShadow" result="effect4_innerShadow"/>
</filter>
<filter id="filter12_di" x="333.5" y="58.5" width="30" height="15" filterUnits="userSpaceOnUse" color-interpolation-filters="sRGB">
<feFlood flood-opacity="0" result="BackgroundImageFix"/>
<feColorMatrix in="SourceAlpha" type="matrix" values="0 0 0 0 0 0 0 0 0 0 0 0 0 0 0 0 0 0 255 0"/>
<feOffset dy="1"/>
<feGaussianBlur stdDeviation="0.5"/>
<feColorMatrix type="matrix" values="0 0 0 0 1 0 0 0 0 1 0 0 0 0 1 0 0 0 0.5 0"/>
<feBlend mode="normal" in2="BackgroundImageFix" result="effect1_dropShadow"/>
<feBlend mode="normal" in="SourceGraphic" in2="effect1_dropShadow" result="shape"/>
<feColorMatrix in="SourceAlpha" type="matrix" values="0 0 0 0 0 0 0 0 0 0 0 0 0 0 0 0 0 0 255 0" result="hardAlpha"/>
<feOffset dy="1"/>
<feGaussianBlur stdDeviation="0.5"/>
<feComposite in2="hardAlpha" operator="arithmetic" k2="-1" k3="1"/>
<feColorMatrix type="matrix" values="0 0 0 0 1 0 0 0 0 1 0 0 0 0 1 0 0 0 0.25 0"/>
<feBlend mode="normal" in2="shape" result="effect2_innerShadow"/>
</filter>
<filter id="filter13_ddii" x="308" y="28" width="83" height="12" filterUnits="userSpaceOnUse" color-interpolation-filters="sRGB">
<feFlood flood-opacity="0" result="BackgroundImageFix"/>
<feColorMatrix in="SourceAlpha" type="matrix" values="0 0 0 0 0 0 0 0 0 0 0 0 0 0 0 0 0 0 255 0"/>
<feOffset/>
<feGaussianBlur stdDeviation="0.5"/>
<feColorMatrix type="matrix" values="0 0 0 0 0 0 0 0 0 0 0 0 0 0 0 0 0 0 0.25 0"/>
<feBlend mode="normal" in2="BackgroundImageFix" result="effect1_dropShadow"/>
<feColorMatrix in="SourceAlpha" type="matrix" values="0 0 0 0 0 0 0 0 0 0 0 0 0 0 0 0 0 0 255 0"/>
<feOffset dy="-1"/>
<feGaussianBlur stdDeviation="0.5"/>
<feColorMatrix type="matrix" values="0 0 0 0 1 0 0 0 0 1 0 0 0 0 1 0 0 0 0.5 0"/>
<feBlend mode="normal" in2="effect1_dropShadow" result="effect2_dropShadow"/>
<feBlend mode="normal" in="SourceGraphic" in2="effect2_dropShadow" result="shape"/>
<feColorMatrix in="SourceAlpha" type="matrix" values="0 0 0 0 0 0 0 0 0 0 0 0 0 0 0 0 0 0 255 0" result="hardAlpha"/>
<feOffset dy="1"/>
<feGaussianBlur stdDeviation="0.5"/>
<feComposite in2="hardAlpha" operator="arithmetic" k2="-1" k3="1"/>
<feColorMatrix type="matrix" values="0 0 0 0 0 0 0 0 0 0 0 0 0 0 0 0 0 0 0.185292 0"/>
<feBlend mode="normal" in2="shape" result="effect3_innerShadow"/>
<feColorMatrix in="SourceAlpha" type="matrix" values="0 0 0 0 0 0 0 0 0 0 0 0 0 0 0 0 0 0 255 0" result="hardAlpha"/>
<feOffset dx="3" dy="3"/>
<feGaussianBlur stdDeviation="1.5"/>
<feComposite in2="hardAlpha" operator="arithmetic" k2="-1" k3="1"/>
<feColorMatrix type="matrix" values="0 0 0 0 0 0 0 0 0 0 0 0 0 0 0 0 0 0 0.1 0"/>
<feBlend mode="normal" in2="effect3_innerShadow" result="effect4_innerShadow"/>
</filter>
<filter id="filter14_i" x="210.035" y="24.7772" width="15.9788" height="16.9724" filterUnits="userSpaceOnUse" color-interpolation-filters="sRGB">
<feFlood flood-opacity="0" result="BackgroundImageFix"/>
<feBlend mode="normal" in="SourceGraphic" in2="BackgroundImageFix" result="shape"/>
<feColorMatrix in="SourceAlpha" type="matrix" values="0 0 0 0 0 0 0 0 0 0 0 0 0 0 0 0 0 0 255 0" result="hardAlpha"/>
<feOffset dy="1"/>
<feGaussianBlur stdDeviation="1"/>
<feComposite in2="hardAlpha" operator="arithmetic" k2="-1" k3="1"/>
<feColorMatrix type="matrix" values="0 0 0 0 0 0 0 0 0 0 0 0 0 0 0 0 0 0 1 0"/>
<feBlend mode="normal" in2="shape" result="effect1_innerShadow"/>
</filter>

<linearGradient id="paint0_linear" x2="1" gradientUnits="userSpaceOnUse" gradientTransform="translate(0 5) scale(471 5)">
<stop stop-opacity="0.01"/>
<stop offset="0.237145" stop-opacity="0.65336"/>
<stop offset="0.50154"/>
<stop offset="0.772361" stop-opacity="0.51406"/>
<stop offset="1" stop-opacity="0.01"/>
</linearGradient>
<linearGradient id="paint1_linear" x2="1" gradientUnits="userSpaceOnUse" gradientTransform="translate(0 14) scale(435 14)">
<stop stop-opacity="0.01"/>
<stop offset="0.184132" stop-opacity="0.65336"/>
<stop offset="0.50154"/>
<stop offset="0.856824" stop-opacity="0.51406"/>
<stop offset="1" stop-opacity="0.01"/>
</linearGradient>
<linearGradient id="paint2_linear" x2="1" gradientUnits="userSpaceOnUse" gradientTransform="translate(0 80) scale(493 80)">
<stop stop-opacity="0.01"/>
<stop offset="0.184132" stop-opacity="0.65336"/>
<stop offset="0.50154"/>
<stop offset="0.856824" stop-opacity="0.51406"/>
<stop offset="1" stop-opacity="0.01"/>
</linearGradient>
<linearGradient id="paint3_linear" x2="1" gradientUnits="userSpaceOnUse" gradientTransform="matrix(0 -0.576314 0.922103 0 4 2.78172)">
<stop stop-color="#6167BC"/>
<stop offset="1" stop-color="#797DC4"/>
</linearGradient>
<linearGradient id="paint4_linear" x2="1" gradientUnits="userSpaceOnUse" gradientTransform="translate(4.53738 5.5) scale(-1.03738 -1.63017)">
<stop stop-color="#585EAD"/>
<stop offset="1" stop-color="#787CC3"/>
</linearGradient>
<linearGradient id="paint5_linear" x2="1" gradientUnits="userSpaceOnUse" gradientTransform="translate(5.18558 5.5) scale(-1.18558 -1.63017)">
<stop stop-color="#5B61B0"/>
<stop offset="1" stop-color="#787CC3"/>
</linearGradient>
<linearGradient id="paint6_linear" x2="1" gradientUnits="userSpaceOnUse" gradientTransform="matrix(-2.91027 0.383446 -0.380099 -2.93589 7.06794 5.5)">
<stop stop-color="#696EBA"/>
<stop offset="1" stop-color="#8A8DD2"/>
</linearGradient>
<linearGradient id="paint7_linear" x2="1" gradientUnits="userSpaceOnUse" gradientTransform="matrix(-2.91027 0.383446 -0.380099 -2.93589 7.06794 5.5)">
<stop stop-color="#696EBA"/>
<stop offset="1" stop-color="#8A8DD2"/>
</linearGradient>
<linearGradient id="paint8_linear" x2="1" gradientUnits="userSpaceOnUse" gradientTransform="matrix(0 776.634 -370.009 0 192 18.5372)">
<stop stop-color="#F7F7F7"/>
<stop offset="1" stop-color="#EEEEEE"/>
</linearGradient>
<linearGradient id="paint9_linear" x2="1" gradientUnits="userSpaceOnUse" gradientTransform="matrix(0 776.634 -370.009 0 192 18.5372)">
<stop stop-color="#F7F7F7"/>
<stop offset="1" stop-color="#EEEEEE"/>
</linearGradient>
<radialGradient id="paint10_radial" cx="0.5" cy="0.5" r="0.5" gradientUnits="userSpaceOnUse" gradientTransform="matrix(0 8.87354 -8.87711 0 8.87711 0)">
<stop stop-color="#696969"/>
<stop offset="0.100706" stop-color="#3F647D"/>
<stop offset="1"/>
</radialGradient>

</defs>
</svg>

