<svg width="402" height="818" viewBox="0 0 402 818" version="1.1" xmlns="http://www.w3.org/2000/svg" xmlns:xlink="http://www.w3.org/1999/xlink">
<g id="Canvas" fill="none">
<g id="Really Blue">
<g id="Buttons">
<g id="Power Button" filter="url(#filter0_ii)">
<path fill-rule="evenodd" clip-rule="evenodd" d="M 0 2C 0 0.895431 0.895431 0 2 0L 15 0C 16.1046 0 17 0.895431 17 2L 17 46C 17 47.1046 16.1046 48 15 48L 2 48C 0.895431 48 0 47.1046 0 46L 0 2Z" transform="translate(385 198)" fill="#3944AF"/>
</g>
<g id="Volume Rocker" filter="url(#filter1_ii)">
<path fill-rule="evenodd" clip-rule="evenodd" d="M 0 2C 0 0.895431 0.895431 0 2 0L 15 0C 16.1046 0 17 0.895431 17 2L 17 98C 17 99.1046 16.1046 100 15 100L 2 100C 0.895431 100 0 99.1046 0 98L 0 2Z" transform="translate(385 312)" fill="#3640A6"/>
</g>
</g>
<g id="Phone">
<g id="Phone BG" filter="url(#filter2_iiii)">
<path fill-rule="evenodd" clip-rule="evenodd" d="M 0 59.2141C 0 26.511 26.511 0 59.2141 0L 339.786 0C 372.489 0 399 26.511 399 59.2141L 399 758.786C 399 791.489 372.489 818 339.786 818L 59.2141 818C 26.511 818 0 791.489 0 758.786L 0 59.2141Z" fill="#7882DB"/>
</g>
<mask id="mask0" mask-type="alpha" maskUnits="userSpaceOnUse" x="0" y="0" width="399" height="818">
<g id="Phone BG_2">
<path fill-rule="evenodd" clip-rule="evenodd" d="M 0 59.2141C 0 26.511 26.511 0 59.2141 0L 339.786 0C 372.489 0 399 26.511 399 59.2141L 399 758.786C 399 791.489 372.489 818 339.786 818L 59.2141 818C 26.511 818 0 791.489 0 758.786L 0 59.2141Z" fill="white"/>
</g>
</mask>
<g mask="url(#mask0)">
<g id="Top" filter="url(#filter3_i)">
<path fill-rule="evenodd" clip-rule="evenodd" d="M 0 0L 8 0L 8 5L 0 5L 0 0Z" transform="translate(292 0)" fill="url(#paint0_linear)"/>
</g>
<g id="Top Left" filter="url(#filter4_i)">
<path fill-rule="evenodd" clip-rule="evenodd" d="M 0 3L 7 0L 7 9L 0 11L 0 3Z" transform="translate(0 66)" fill="url(#paint1_linear)"/>
</g>
<g id="Top Right" filter="url(#filter5_i)">
<path fill-rule="evenodd" clip-rule="evenodd" d="M 0 3L 8 0L 8 9L 0 11L 0 3Z" transform="translate(399 66) scale(-1 1)" fill="url(#paint2_linear)"/>
</g>
<g id="Bottom Right" filter="url(#filter6_i)">
<path fill-rule="evenodd" clip-rule="evenodd" d="M 0 0L 8.04131 0L 10.904 11L 0 11L 0 0Z" transform="translate(399 764) scale(-1 1)" fill="url(#paint3_linear)"/>
</g>
<g id="Bottom Right_2" filter="url(#filter7_i)">
<path fill-rule="evenodd" clip-rule="evenodd" d="M 0 0L 8.04131 0L 10.904 11L 0 11L 0 0Z" transform="translate(0 764)" fill="url(#paint4_linear)"/>
</g>
</g>
</g>
<g id="White Front">
<g id="Front Face 1" opacity="0.391927">
<path fill-rule="evenodd" clip-rule="evenodd" d="M 0 52.755C 0 23.6192 23.6192 0 52.755 0L 331.245 0C 360.381 0 384 23.6192 384 52.755L 384 755.245C 384 783.276 361.276 806 333.245 806L 50.7549 806C 22.7238 806 0 783.276 0 755.245L 0 52.755Z" transform="translate(7 8)" fill="url(#paint5_linear)"/>
</g>
<g id="Front Face 2" filter="url(#filter8_diii)">
<path fill-rule="evenodd" clip-rule="evenodd" d="M 0 52.755C 0 23.6192 23.6192 0 52.755 0L 331.245 0C 360.381 0 384 23.6192 384 52.755L 384 755.245C 384 783.276 361.276 806 333.245 806L 50.7549 806C 22.7238 806 0 783.276 0 755.245L 0 52.755Z" transform="translate(7 5)" fill="url(#paint6_linear)"/>
</g>
</g>
<g id="Screen">
<g id="Black border around Screen">
<path fill-rule="evenodd" clip-rule="evenodd" d="M 0 0L 364 0L 364 644L 0 644L 0 0Z" transform="translate(17 80)" fill="black"/>
</g>
</g>
<g id="Sensors">
<g id="Sensor" filter="url(#filter9_di)">
<path fill-rule="evenodd" clip-rule="evenodd" d="M 6 -0.25L 21 -0.25C 24.4518 -0.25 27.25 2.54822 27.25 6C 27.25 9.45178 24.4518 12.25 21 12.25L 6 12.25C 2.54822 12.25 -0.25 9.45178 -0.25 6C -0.25 2.54822 2.54822 -0.25 6 -0.25Z" transform="translate(186 59)" fill="#1F1F1F"/>
<path fill-rule="evenodd" clip-rule="evenodd" d="M 6 -0.25L 21 -0.25C 24.4518 -0.25 27.25 2.54822 27.25 6C 27.25 9.45178 24.4518 12.25 21 12.25L 6 12.25C 2.54822 12.25 -0.25 9.45178 -0.25 6C -0.25 2.54822 2.54822 -0.25 6 -0.25Z" stroke-width="0.5" stroke-miterlimit="8" transform="translate(186 59)" stroke="white" stroke-opacity="0.5"/>
</g>
<g id="Earphone" filter="url(#filter10_ddii)">
<path fill-rule="evenodd" clip-rule="evenodd" d="M 0 3.5C 0 1.567 1.567 0 3.5 0L 75.5 0C 77.433 0 79 1.567 79 3.5L 79 3.5C 79 5.433 77.433 7 75.5 7L 3.5 7C 1.567 7 0 5.433 0 3.5L 0 3.5Z" transform="translate(160 30)" fill="#F4F4F4"/>
</g>
<g id="Camera">
<g id="Oval 7" filter="url(#filter11_i)">
<path fill-rule="evenodd" clip-rule="evenodd" d="M 7.9894 15.9724C 12.4018 15.9724 15.9788 12.3968 15.9788 7.98618C 15.9788 3.57554 12.4018 0 7.9894 0C 3.57698 0 0 3.57554 0 7.98618C 0 12.3968 3.57698 15.9724 7.9894 15.9724Z" transform="translate(61.0353 24.7772)" fill="#686868"/>
</g>
<g id="Oval 8">
<path fill-rule="evenodd" clip-rule="evenodd" d="M 4.43856 8.87354C 6.8899 8.87354 8.87711 6.88713 8.87711 4.43677C 8.87711 1.98641 6.8899 0 4.43856 0C 1.98721 0 0 1.98641 0 4.43677C 0 6.88713 1.98721 8.87354 4.43856 8.87354Z" transform="translate(64.5862 28.3266)" fill="url(#paint7_radial)"/>
<path fill-rule="evenodd" clip-rule="evenodd" d="M 4.43856 8.87354C 6.8899 8.87354 8.87711 6.88713 8.87711 4.43677C 8.87711 1.98641 6.8899 0 4.43856 0C 1.98721 0 0 1.98641 0 4.43677C 0 6.88713 1.98721 8.87354 4.43856 8.87354Z" transform="translate(64.5862 28.3266)" fill="black" fill-opacity="0.350968"/>
</g>
<g id="Oval 9" opacity="0.33">
<path fill-rule="evenodd" clip-rule="evenodd" d="M 0.887711 1.77471C 1.37798 1.77471 1.77542 1.37743 1.77542 0.887354C 1.77542 0.397282 1.37798 0 0.887711 0C 0.397442 0 0 0.397282 0 0.887354C 0 1.37743 0.397442 1.77471 0.887711 1.77471Z" transform="translate(67.2493 30.9887)" fill="white"/>
</g>
<g id="Oval 9_2" opacity="0.33">
<path fill-rule="evenodd" clip-rule="evenodd" d="M 1.49164 2.98207C 2.31545 2.98207 2.98327 2.31451 2.98327 1.49104C 2.98327 0.66756 2.31545 0 1.49164 0C 0.667829 0 0 0.66756 0 1.49104C 0 2.31451 0.667829 2.98207 1.49164 2.98207Z" transform="translate(69.0521 34.6785)" fill="white" fill-opacity="0.654297"/>
</g>
</g>
</g>
</g>
</g>
<defs>
<filter id="filter0_ii" x="384" y="197" width="18" height="49" filterUnits="userSpaceOnUse" color-interpolation-filters="sRGB">
<feFlood flood-opacity="0" result="BackgroundImageFix"/>
<feBlend mode="normal" in="SourceGraphic" in2="BackgroundImageFix" result="shape"/>
<feColorMatrix in="SourceAlpha" type="matrix" values="0 0 0 0 0 0 0 0 0 0 0 0 0 0 0 0 0 0 255 0" result="hardAlpha"/>
<feOffset dx="-1"/>
<feGaussianBlur stdDeviation="0.5"/>
<feComposite in2="hardAlpha" operator="arithmetic" k2="-1" k3="1"/>
<feColorMatrix type="matrix" values="0 0 0 0 1 0 0 0 0 1 0 0 0 0 1 0 0 0 0.755378 0"/>
<feBlend mode="normal" in2="shape" result="effect1_innerShadow"/>
<feColorMatrix in="SourceAlpha" type="matrix" values="0 0 0 0 0 0 0 0 0 0 0 0 0 0 0 0 0 0 255 0" result="hardAlpha"/>
<feOffset dy="-1"/>
<feGaussianBlur stdDeviation="1.5"/>
<feComposite in2="hardAlpha" operator="arithmetic" k2="-1" k3="1"/>
<feColorMatrix type="matrix" values="0 0 0 0 0 0 0 0 0 0 0 0 0 0 0 0 0 0 0.377548 0"/>
<feBlend mode="normal" in2="effect1_innerShadow" result="effect2_innerShadow"/>
</filter>
<filter id="filter1_ii" x="384" y="311" width="18" height="101" filterUnits="userSpaceOnUse" color-interpolation-filters="sRGB">
<feFlood flood-opacity="0" result="BackgroundImageFix"/>
<feBlend mode="normal" in="SourceGraphic" in2="BackgroundImageFix" result="shape"/>
<feColorMatrix in="SourceAlpha" type="matrix" values="0 0 0 0 0 0 0 0 0 0 0 0 0 0 0 0 0 0 255 0" result="hardAlpha"/>
<feOffset dx="-1"/>
<feGaussianBlur stdDeviation="0.5"/>
<feComposite in2="hardAlpha" operator="arithmetic" k2="-1" k3="1"/>
<feColorMatrix type="matrix" values="0 0 0 0 1 0 0 0 0 1 0 0 0 0 1 0 0 0 0.755378 0"/>
<feBlend mode="normal" in2="shape" result="effect1_innerShadow"/>
<feColorMatrix in="SourceAlpha" type="matrix" values="0 0 0 0 0 0 0 0 0 0 0 0 0 0 0 0 0 0 255 0" result="hardAlpha"/>
<feOffset dy="-1"/>
<feGaussianBlur stdDeviation="1.5"/>
<feComposite in2="hardAlpha" operator="arithmetic" k2="-1" k3="1"/>
<feColorMatrix type="matrix" values="0 0 0 0 0 0 0 0 0 0 0 0 0 0 0 0 0 0 0.377548 0"/>
<feBlend mode="normal" in2="effect1_innerShadow" result="effect2_innerShadow"/>
</filter>
<filter id="filter2_iiii" x="0" y="-3" width="399" height="822" filterUnits="userSpaceOnUse" color-interpolation-filters="sRGB">
<feFlood flood-opacity="0" result="BackgroundImageFix"/>
<feBlend mode="normal" in="SourceGraphic" in2="BackgroundImageFix" result="shape"/>
<feColorMatrix in="SourceAlpha" type="matrix" values="0 0 0 0 0 0 0 0 0 0 0 0 0 0 0 0 0 0 255 0" result="hardAlpha"/>
<feOffset/>
<feGaussianBlur stdDeviation="2"/>
<feComposite in2="hardAlpha" operator="arithmetic" k2="-1" k3="1"/>
<feColorMatrix type="matrix" values="0 0 0 0 0 0 0 0 0 0 0 0 0 0 0 0 0 0 0.25 0"/>
<feBlend mode="normal" in2="shape" result="effect1_innerShadow"/>
<feColorMatrix in="SourceAlpha" type="matrix" values="0 0 0 0 0 0 0 0 0 0 0 0 0 0 0 0 0 0 255 0" result="hardAlpha"/>
<feOffset/>
<feGaussianBlur stdDeviation="4.5"/>
<feComposite in2="hardAlpha" operator="arithmetic" k2="-1" k3="1"/>
<feColorMatrix type="matrix" values="0 0 0 0 0 0 0 0 0 0 0 0 0 0 0 0 0 0 0.25 0"/>
<feBlend mode="normal" in2="effect1_innerShadow" result="effect2_innerShadow"/>
<feColorMatrix in="SourceAlpha" type="matrix" values="0 0 0 0 0 0 0 0 0 0 0 0 0 0 0 0 0 0 255 0" result="hardAlpha"/>
<feOffset dy="-4"/>
<feGaussianBlur stdDeviation="1.5"/>
<feComposite in2="hardAlpha" operator="arithmetic" k2="-1" k3="1"/>
<feColorMatrix type="matrix" values="0 0 0 0 0 0 0 0 0 0 0 0 0 0 0 0 0 0 0.243008 0"/>
<feBlend mode="normal" in2="effect2_innerShadow" result="effect3_innerShadow"/>
<feColorMatrix in="SourceAlpha" type="matrix" values="0 0 0 0 0 0 0 0 0 0 0 0 0 0 0 0 0 0 255 0" result="hardAlpha"/>
<feOffset dy="1"/>
<feGaussianBlur stdDeviation="1.5"/>
<feComposite in2="hardAlpha" operator="arithmetic" k2="-1" k3="1"/>
<feColorMatrix type="matrix" values="0 0 0 0 1 0 0 0 0 1 0 0 0 0 1 0 0 0 0.25 0"/>
<feBlend mode="normal" in2="effect3_innerShadow" result="effect4_innerShadow"/>
</filter>
<filter id="filter3_i" x="292" y="0" width="8" height="5" filterUnits="userSpaceOnUse" color-interpolation-filters="sRGB">
<feFlood flood-opacity="0" result="BackgroundImageFix"/>
<feBlend mode="normal" in="SourceGraphic" in2="BackgroundImageFix" result="shape"/>
<feColorMatrix in="SourceAlpha" type="matrix" values="0 0 0 0 0 0 0 0 0 0 0 0 0 0 0 0 0 0 255 0" result="hardAlpha"/>
<feOffset/>
<feGaussianBlur stdDeviation="0.5"/>
<feComposite in2="hardAlpha" operator="arithmetic" k2="-1" k3="1"/>
<feColorMatrix type="matrix" values="0 0 0 0 0 0 0 0 0 0 0 0 0 0 0 0 0 0 0.23296 0"/>
<feBlend mode="normal" in2="shape" result="effect1_innerShadow"/>
</filter>
<filter id="filter4_i" x="0" y="66" width="7" height="11" filterUnits="userSpaceOnUse" color-interpolation-filters="sRGB">
<feFlood flood-opacity="0" result="BackgroundImageFix"/>
<feBlend mode="normal" in="SourceGraphic" in2="BackgroundImageFix" result="shape"/>
<feColorMatrix in="SourceAlpha" type="matrix" values="0 0 0 0 0 0 0 0 0 0 0 0 0 0 0 0 0 0 255 0" result="hardAlpha"/>
<feOffset/>
<feGaussianBlur stdDeviation="0.5"/>
<feComposite in2="hardAlpha" operator="arithmetic" k2="-1" k3="1"/>
<feColorMatrix type="matrix" values="0 0 0 0 0 0 0 0 0 0 0 0 0 0 0 0 0 0 0.23296 0"/>
<feBlend mode="normal" in2="shape" result="effect1_innerShadow"/>
</filter>
<filter id="filter5_i" x="391" y="66" width="8" height="11" filterUnits="userSpaceOnUse" color-interpolation-filters="sRGB">
<feFlood flood-opacity="0" result="BackgroundImageFix"/>
<feBlend mode="normal" in="SourceGraphic" in2="BackgroundImageFix" result="shape"/>
<feColorMatrix in="SourceAlpha" type="matrix" values="0 0 0 0 0 0 0 0 0 0 0 0 0 0 0 0 0 0 255 0" result="hardAlpha"/>
<feOffset/>
<feGaussianBlur stdDeviation="0.5"/>
<feComposite in2="hardAlpha" operator="arithmetic" k2="-1" k3="1"/>
<feColorMatrix type="matrix" values="0 0 0 0 0 0 0 0 0 0 0 0 0 0 0 0 0 0 0.23296 0"/>
<feBlend mode="normal" in2="shape" result="effect1_innerShadow"/>
</filter>
<filter id="filter6_i" x="388.096" y="764" width="10.904" height="11" filterUnits="userSpaceOnUse" color-interpolation-filters="sRGB">
<feFlood flood-opacity="0" result="BackgroundImageFix"/>
<feBlend mode="normal" in="SourceGraphic" in2="BackgroundImageFix" result="shape"/>
<feColorMatrix in="SourceAlpha" type="matrix" values="0 0 0 0 0 0 0 0 0 0 0 0 0 0 0 0 0 0 255 0" result="hardAlpha"/>
<feOffset/>
<feGaussianBlur stdDeviation="0.5"/>
<feComposite in2="hardAlpha" operator="arithmetic" k2="-1" k3="1"/>
<feColorMatrix type="matrix" values="0 0 0 0 0 0 0 0 0 0 0 0 0 0 0 0 0 0 0.23296 0"/>
<feBlend mode="normal" in2="shape" result="effect1_innerShadow"/>
</filter>
<filter id="filter7_i" x="0" y="764" width="10.904" height="11" filterUnits="userSpaceOnUse" color-interpolation-filters="sRGB">
<feFlood flood-opacity="0" result="BackgroundImageFix"/>
<feBlend mode="normal" in="SourceGraphic" in2="BackgroundImageFix" result="shape"/>
<feColorMatrix in="SourceAlpha" type="matrix" values="0 0 0 0 0 0 0 0 0 0 0 0 0 0 0 0 0 0 255 0" result="hardAlpha"/>
<feOffset/>
<feGaussianBlur stdDeviation="0.5"/>
<feComposite in2="hardAlpha" operator="arithmetic" k2="-1" k3="1"/>
<feColorMatrix type="matrix" values="0 0 0 0 0 0 0 0 0 0 0 0 0 0 0 0 0 0 0.23296 0"/>
<feBlend mode="normal" in2="shape" result="effect1_innerShadow"/>
</filter>
<filter id="filter8_diii" x="7" y="4" width="386" height="811" filterUnits="userSpaceOnUse" color-interpolation-filters="sRGB">
<feFlood flood-opacity="0" result="BackgroundImageFix"/>
<feColorMatrix in="SourceAlpha" type="matrix" values="0 0 0 0 0 0 0 0 0 0 0 0 0 0 0 0 0 0 255 0"/>
<feOffset dx="1"/>
<feGaussianBlur stdDeviation="0.5"/>
<feColorMatrix type="matrix" values="0 0 0 0 0 0 0 0 0 0 0 0 0 0 0 0 0 0 0.15141 0"/>
<feBlend mode="normal" in2="BackgroundImageFix" result="effect1_dropShadow"/>
<feBlend mode="normal" in="SourceGraphic" in2="effect1_dropShadow" result="shape"/>
<feColorMatrix in="SourceAlpha" type="matrix" values="0 0 0 0 0 0 0 0 0 0 0 0 0 0 0 0 0 0 255 0" result="hardAlpha"/>
<feOffset/>
<feGaussianBlur stdDeviation="5.5"/>
<feComposite in2="hardAlpha" operator="arithmetic" k2="-1" k3="1"/>
<feColorMatrix type="matrix" values="0 0 0 0 1 0 0 0 0 1 0 0 0 0 1 0 0 0 1 0"/>
<feBlend mode="normal" in2="shape" result="effect2_innerShadow"/>
<feColorMatrix in="SourceAlpha" type="matrix" values="0 0 0 0 0 0 0 0 0 0 0 0 0 0 0 0 0 0 255 0" result="hardAlpha"/>
<feOffset dy="4"/>
<feGaussianBlur stdDeviation="4.5"/>
<feComposite in2="hardAlpha" operator="arithmetic" k2="-1" k3="1"/>
<feColorMatrix type="matrix" values="0 0 0 0 1 0 0 0 0 1 0 0 0 0 1 0 0 0 1 0"/>
<feBlend mode="normal" in2="effect2_innerShadow" result="effect3_innerShadow"/>
<feColorMatrix in="SourceAlpha" type="matrix" values="0 0 0 0 0 0 0 0 0 0 0 0 0 0 0 0 0 0 255 0" result="hardAlpha"/>
<feOffset dy="-4"/>
<feComposite in2="hardAlpha" operator="arithmetic" k2="-1" k3="1"/>
<feColorMatrix type="matrix" values="0 0 0 0 0 0 0 0 0 0 0 0 0 0 0 0 0 0 0.0327785 0"/>
<feBlend mode="normal" in2="effect3_innerShadow" result="effect4_innerShadow"/>
</filter>
<filter id="filter9_di" x="184.5" y="58.5" width="30" height="15" filterUnits="userSpaceOnUse" color-interpolation-filters="sRGB">
<feFlood flood-opacity="0" result="BackgroundImageFix"/>
<feColorMatrix in="SourceAlpha" type="matrix" values="0 0 0 0 0 0 0 0 0 0 0 0 0 0 0 0 0 0 255 0"/>
<feOffset dy="1"/>
<feGaussianBlur stdDeviation="0.5"/>
<feColorMatrix type="matrix" values="0 0 0 0 1 0 0 0 0 1 0 0 0 0 1 0 0 0 0.5 0"/>
<feBlend mode="normal" in2="BackgroundImageFix" result="effect1_dropShadow"/>
<feBlend mode="normal" in="SourceGraphic" in2="effect1_dropShadow" result="shape"/>
<feColorMatrix in="SourceAlpha" type="matrix" values="0 0 0 0 0 0 0 0 0 0 0 0 0 0 0 0 0 0 255 0" result="hardAlpha"/>
<feOffset dy="1"/>
<feGaussianBlur stdDeviation="0.5"/>
<feComposite in2="hardAlpha" operator="arithmetic" k2="-1" k3="1"/>
<feColorMatrix type="matrix" values="0 0 0 0 1 0 0 0 0 1 0 0 0 0 1 0 0 0 0.25 0"/>
<feBlend mode="normal" in2="shape" result="effect2_innerShadow"/>
</filter>
<filter id="filter10_ddii" x="159" y="28" width="83" height="12" filterUnits="userSpaceOnUse" color-interpolation-filters="sRGB">
<feFlood flood-opacity="0" result="BackgroundImageFix"/>
<feColorMatrix in="SourceAlpha" type="matrix" values="0 0 0 0 0 0 0 0 0 0 0 0 0 0 0 0 0 0 255 0"/>
<feOffset/>
<feGaussianBlur stdDeviation="0.5"/>
<feColorMatrix type="matrix" values="0 0 0 0 0 0 0 0 0 0 0 0 0 0 0 0 0 0 0.25 0"/>
<feBlend mode="normal" in2="BackgroundImageFix" result="effect1_dropShadow"/>
<feColorMatrix in="SourceAlpha" type="matrix" values="0 0 0 0 0 0 0 0 0 0 0 0 0 0 0 0 0 0 255 0"/>
<feOffset dy="-1"/>
<feGaussianBlur stdDeviation="0.5"/>
<feColorMatrix type="matrix" values="0 0 0 0 1 0 0 0 0 1 0 0 0 0 1 0 0 0 0.5 0"/>
<feBlend mode="normal" in2="effect1_dropShadow" result="effect2_dropShadow"/>
<feBlend mode="normal" in="SourceGraphic" in2="effect2_dropShadow" result="shape"/>
<feColorMatrix in="SourceAlpha" type="matrix" values="0 0 0 0 0 0 0 0 0 0 0 0 0 0 0 0 0 0 255 0" result="hardAlpha"/>
<feOffset dy="1"/>
<feGaussianBlur stdDeviation="0.5"/>
<feComposite in2="hardAlpha" operator="arithmetic" k2="-1" k3="1"/>
<feColorMatrix type="matrix" values="0 0 0 0 0 0 0 0 0 0 0 0 0 0 0 0 0 0 0.185292 0"/>
<feBlend mode="normal" in2="shape" result="effect3_innerShadow"/>
<feColorMatrix in="SourceAlpha" type="matrix" values="0 0 0 0 0 0 0 0 0 0 0 0 0 0 0 0 0 0 255 0" result="hardAlpha"/>
<feOffset dx="3" dy="3"/>
<feGaussianBlur stdDeviation="1.5"/>
<feComposite in2="hardAlpha" operator="arithmetic" k2="-1" k3="1"/>
<feColorMatrix type="matrix" values="0 0 0 0 0 0 0 0 0 0 0 0 0 0 0 0 0 0 0.1 0"/>
<feBlend mode="normal" in2="effect3_innerShadow" result="effect4_innerShadow"/>
</filter>
<filter id="filter11_i" x="61.0353" y="24.7772" width="15.9788" height="16.9724" filterUnits="userSpaceOnUse" color-interpolation-filters="sRGB">
<feFlood flood-opacity="0" result="BackgroundImageFix"/>
<feBlend mode="normal" in="SourceGraphic" in2="BackgroundImageFix" result="shape"/>
<feColorMatrix in="SourceAlpha" type="matrix" values="0 0 0 0 0 0 0 0 0 0 0 0 0 0 0 0 0 0 255 0" result="hardAlpha"/>
<feOffset dy="1"/>
<feGaussianBlur stdDeviation="1"/>
<feComposite in2="hardAlpha" operator="arithmetic" k2="-1" k3="1"/>
<feColorMatrix type="matrix" values="0 0 0 0 0 0 0 0 0 0 0 0 0 0 0 0 0 0 1 0"/>
<feBlend mode="normal" in2="shape" result="effect1_innerShadow"/>
</filter>

<linearGradient id="paint0_linear" x2="1" gradientUnits="userSpaceOnUse" gradientTransform="matrix(0 -0.576314 0.922103 0 4 2.78172)">
<stop stop-color="#6167BC"/>
<stop offset="1" stop-color="#797DC4"/>
</linearGradient>
<linearGradient id="paint1_linear" x2="1" gradientUnits="userSpaceOnUse" gradientTransform="translate(4.53738 5.5) scale(-1.03738 -1.63017)">
<stop stop-color="#585EAD"/>
<stop offset="1" stop-color="#787CC3"/>
</linearGradient>
<linearGradient id="paint2_linear" x2="1" gradientUnits="userSpaceOnUse" gradientTransform="translate(5.18558 5.5) scale(-1.18558 -1.63017)">
<stop stop-color="#5B61B0"/>
<stop offset="1" stop-color="#787CC3"/>
</linearGradient>
<linearGradient id="paint3_linear" x2="1" gradientUnits="userSpaceOnUse" gradientTransform="matrix(-2.91027 0.383446 -0.380099 -2.93589 7.06794 5.5)">
<stop stop-color="#696EBA"/>
<stop offset="1" stop-color="#8A8DD2"/>
</linearGradient>
<linearGradient id="paint4_linear" x2="1" gradientUnits="userSpaceOnUse" gradientTransform="matrix(-2.91027 0.383446 -0.380099 -2.93589 7.06794 5.5)">
<stop stop-color="#696EBA"/>
<stop offset="1" stop-color="#8A8DD2"/>
</linearGradient>
<linearGradient id="paint5_linear" x2="1" gradientUnits="userSpaceOnUse" gradientTransform="matrix(0 776.634 -370.009 0 192 18.5372)">
<stop stop-color="#F7F7F7"/>
<stop offset="1" stop-color="#EEEEEE"/>
</linearGradient>
<linearGradient id="paint6_linear" x2="1" gradientUnits="userSpaceOnUse" gradientTransform="matrix(0 776.634 -370.009 0 192 18.5372)">
<stop stop-color="#F7F7F7"/>
<stop offset="1" stop-color="#EEEEEE"/>
</linearGradient>
<radialGradient id="paint7_radial" cx="0.5" cy="0.5" r="0.5" gradientUnits="userSpaceOnUse" gradientTransform="matrix(0 8.87354 -8.87711 0 8.87711 0)">
<stop stop-color="#696969"/>
<stop offset="0.100706" stop-color="#3F647D"/>
<stop offset="1"/>
</radialGradient>

</defs>
</svg>

