<?xml version="1.0" encoding="iso-8859-1"?>
<!-- Generator: Adobe Illustrator 19.0.0, SVG Export Plug-In . SVG Version: 6.00 Build 0)  -->
<svg version="1.1" id="Layer_1" xmlns="http://www.w3.org/2000/svg" xmlns:xlink="http://www.w3.org/1999/xlink" x="0px" y="0px" width="120" height="120"
	 viewBox="0 0 512 512" style="enable-background:new 0 0 512 512;" xml:space="preserve">
<g transform="translate(0 -60)">
<path style="fill:#62DCD2;" d="M60.829,424.215H25.636V180.885c0-14.667,11.886-26.542,26.542-26.542h314.761
	c17.267,0,33.32,8.855,42.527,23.466l72.008,114.244c4.8,7.615,7.346,16.432,7.346,25.433v106.73h-33.501"/>
<path style="fill:#54CCC0;" d="M72.613,154.344H52.179c-14.656,0-26.542,11.875-26.542,26.542v243.331h20.435V180.886
	C46.071,166.217,57.957,154.344,72.613,154.344z"/>
<path style="fill:#B7E8ED;" d="M423.444,276.632H66.509v-81.42h300.434c3.247,0,6.221,1.635,7.947,4.393L423.444,276.632z"/>
<path style="fill:#E5F8F9;" d="M423.444,276.632H66.509c0,0,207.343-13.135,308.381-77.027L423.444,276.632z"/>
<g>
	<circle style="fill:#415E72;" cx="116.454" cy="424.211" r="55.627"/>
	<circle style="fill:#415E72;" cx="399.701" cy="424.211" r="55.627"/>
</g>
<g>
	<path style="fill:#E6E6E6;" d="M116.457,446.92c-12.52,0-22.705-10.185-22.705-22.705c0-12.52,10.186-22.705,22.705-22.705
		s22.705,10.185,22.705,22.705C139.162,436.735,128.976,446.92,116.457,446.92z"/>
	<path style="fill:#E6E6E6;" d="M399.696,446.92c-12.52,0-22.705-10.185-22.705-22.705c0-12.52,10.186-22.705,22.705-22.705
		c12.52,0,22.705,10.185,22.705,22.705C422.401,436.735,412.217,446.92,399.696,446.92z"/>
</g>
<path d="M317.304,415.676H179.92c-4.18-31.355-31.08-55.627-63.56-55.627s-59.38,24.273-63.56,55.627H34.054v-20.435h8.518
	c4.702,0,8.514-3.812,8.514-8.514c0-4.702-3.812-8.514-8.514-8.514h-8.518V180.86c0-9.94,8.088-18.028,18.028-18.028h35.9
	c4.702,0,8.514-3.812,8.514-8.514s-3.812-8.514-8.514-8.514h-35.9c-19.33,0-35.057,15.727-35.057,35.057v197.353H8.514
	c-4.702,0-8.514,3.812-8.514,8.514c0,4.702,3.812,8.514,8.514,8.514h8.511v28.949c0,4.702,3.812,8.514,8.514,8.514h27.261
	c4.18,31.355,31.08,55.628,63.56,55.628s59.38-24.273,63.56-55.628h137.384c4.703,0,8.514-3.812,8.514-8.514
	C325.818,419.488,322.007,415.676,317.304,415.676z M116.36,471.303c-25.978,0-47.113-21.135-47.113-47.113
	c0-25.978,21.135-47.113,47.113-47.113s47.113,21.135,47.113,47.113C163.473,450.168,142.338,471.303,116.36,471.303z"/>
<path d="M382.013,195.066c-3.288-5.256-8.957-8.394-15.166-8.394H66.412c-4.702,0-8.514,3.812-8.514,8.514v81.42
	c0,4.702,3.812,8.514,8.514,8.514h356.937c3.1,0,5.957-1.686,7.454-4.401c1.499-2.716,1.402-6.03-0.252-8.654L382.013,195.066z
	 M304.248,203.701v64.392h-66.412v-64.392H304.248z M74.927,203.701h145.88v64.392h-66.412V220.98c0-4.702-3.812-8.514-8.514-8.514
	s-8.514,3.812-8.514,8.514v47.113H74.927V203.701z M321.277,268.093v-64.392h45.569c0.319,0,0.564,0.133,0.744,0.42l40.325,63.973
	h-86.638V268.093z"/>
<path d="M116.36,392.971c-4.702,0-8.514,3.812-8.514,8.514S111.658,410,116.36,410c7.825,0,14.191,6.365,14.191,14.191
	s-6.365,14.191-14.191,14.191s-14.191-6.365-14.191-14.191c0-4.702-3.812-8.514-8.514-8.514c-4.702,0-8.514,3.812-8.514,8.514
	c0,17.215,14.005,31.22,31.22,31.22s31.22-14.005,31.22-31.22C147.58,406.975,133.574,392.971,116.36,392.971z"/>
<path d="M399.601,392.971c-17.214,0-31.22,14.004-31.22,31.22c0,17.215,14.006,31.22,31.22,31.22s31.22-14.005,31.22-31.22
	C430.82,406.975,416.815,392.971,399.601,392.971z M399.601,438.381c-7.825,0-14.191-6.365-14.191-14.191S391.775,410,399.601,410
	s14.191,6.365,14.191,14.191S407.425,438.381,399.601,438.381z"/>
<path d="M503.486,378.212h-6.248V317.46c0-10.623-2.994-20.987-8.657-29.973l-72.008-114.244
	c-10.828-17.182-29.418-27.44-49.73-27.44H116.364c-4.702,0-8.514,3.812-8.514,8.514s3.812,8.514,8.514,8.514h250.479
	c14.427,0,27.632,7.286,35.323,19.491l72.008,114.244c3.948,6.264,6.034,13.489,6.034,20.893v60.752h-10.78
	c-4.703,0-8.514,3.812-8.514,8.514c0,4.702,3.811,8.514,8.514,8.514h10.78v20.435h-17.049c-4.18-31.355-31.08-55.627-63.56-55.627
	c-35.368,0-64.142,28.774-64.142,64.142s28.774,64.142,64.142,64.142c32.48,0,59.38-24.273,63.56-55.628h25.564
	c4.703,0,8.514-3.812,8.514-8.514v-28.949h6.248c4.703,0,8.514-3.812,8.514-8.514C512,382.025,508.189,378.212,503.486,378.212z
	 M399.601,471.303c-25.978,0-47.113-21.135-47.113-47.113c0-25.978,21.135-47.113,47.113-47.113
	c25.953,0,47.071,21.095,47.111,47.04c0,0.025-0.003,0.049-0.003,0.073s0.003,0.049,0.003,0.073
	C446.672,450.208,425.554,471.303,399.601,471.303z"/>
<path d="M405.328,313.159c-1.53,2.6-1.57,5.816-0.106,8.452l17.029,30.652c1.502,2.703,4.351,4.38,7.444,4.38h31.783
	c4.703,0,8.514-3.812,8.514-8.514v-30.652c0-4.702-3.811-8.514-8.514-8.514h-48.813
	C409.649,308.962,406.857,310.558,405.328,313.159z M452.963,325.991v13.623h-18.258l-7.569-13.623H452.963z"/>
</g>
</svg>
