<?xml version="1.0" encoding="iso-8859-1"?>
<!-- Generator: Adobe Illustrator 19.0.0, SVG Export Plug-In . SVG Version: 6.00 Build 0)  -->
<svg version="1.1" id="Capa_1" xmlns="http://www.w3.org/2000/svg" xmlns:xlink="http://www.w3.org/1999/xlink" x="0px" y="0px" width="80" height="80"
	 viewBox="0 0 512 512" style="enable-background:new 0 0 512 512;" xml:space="preserve">
<polygon style="fill:#D69060;" points="156.952,81.926 156.952,256.279 297.221,285.065 439.148,256.279 439.148,81.926 "/>
<polygon style="fill:#BF8156;" points="156.952,256.279 156.952,430.633 298.05,457.93 439.148,430.633 439.148,256.279 "/>
<g>
	<polygon style="fill:#FFFFFF;" points="382.737,323.52 352.823,368.658 369.635,368.658 369.635,406.424 395.839,406.424 
		395.839,368.658 412.651,368.658 	"/>
	<polygon style="fill:#FFFFFF;" points="382.737,149.166 352.823,194.305 369.635,194.305 369.635,232.07 395.839,232.07 
		395.839,194.305 412.651,194.305 	"/>
</g>
<polygon style="fill:#BA7D54;" points="207.637,81.926 156.952,81.926 156.952,256.279 207.637,266.681 "/>
<polygon style="fill:#A36E49;" points="207.637,256.279 156.952,256.279 156.952,430.633 207.637,440.439 "/>
<path style="fill:#DBDBDB;" d="M439.148,430.633H184.249V85.92c0-43.241-35.179-78.42-78.42-78.42H72.854
	c-15.076,0-27.297,12.221-27.297,27.297s12.221,27.297,27.297,27.297h32.975c13.138,0,23.826,10.688,23.826,23.826v348.188
	c0,4.271,0.983,8.312,2.731,11.911c-1.749,3.6-2.731,7.64-2.731,11.911c0,15.075,12.221,27.297,27.297,27.297h282.195
	c15.075,0,27.297-12.222,27.297-27.297S454.223,430.633,439.148,430.633z"/>
<circle style="fill:#36474F;" cx="156.951" cy="434.11" r="70.39"/>
<circle style="fill:#DBDBDB;" cx="156.951" cy="434.11" r="35.508"/>
<path d="M156.952,391.099c-23.715,0-43.008,19.293-43.008,43.008c0,23.714,19.293,43.008,43.008,43.008
	c23.714,0,43.008-19.293,43.008-43.008S180.667,391.099,156.952,391.099z M156.952,462.115c-15.444,0-28.008-12.564-28.008-28.008
	s12.564-28.008,28.008-28.008c15.443,0,28.008,12.564,28.008,28.008C184.96,449.55,172.396,462.115,156.952,462.115z"/>
<path d="M352.824,376.158h9.312v30.266c0,4.142,3.358,7.5,7.5,7.5h26.204c4.142,0,7.5-3.358,7.5-7.5v-30.266h9.312
	c2.762,0,5.301-1.519,6.608-3.952c1.307-2.434,1.17-5.388-0.356-7.691l-29.914-45.138c-1.39-2.096-3.737-3.357-6.252-3.357
	s-4.862,1.261-6.252,3.357l-29.914,45.138c-1.526,2.303-1.663,5.257-0.356,7.691C347.523,374.64,350.061,376.158,352.824,376.158z
	 M382.737,337.097l15.946,24.062h-2.844c-4.142,0-7.5,3.358-7.5,7.5v30.266h-11.204v-30.266c0-4.142-3.358-7.5-7.5-7.5h-2.844
	L382.737,337.097z"/>
<path d="M227.345,304.476h44.25c4.142,0,7.5-3.358,7.5-7.5s-3.358-7.5-7.5-7.5h-44.25c-4.142,0-7.5,3.358-7.5,7.5
	S223.203,304.476,227.345,304.476z"/>
<path d="M227.345,331.02h44.25c4.142,0,7.5-3.358,7.5-7.5s-3.358-7.5-7.5-7.5h-44.25c-4.142,0-7.5,3.358-7.5,7.5
	S223.203,331.02,227.345,331.02z"/>
<path d="M369.635,239.57h26.204c4.142,0,7.5-3.358,7.5-7.5v-30.265h9.312c2.762,0,5.301-1.519,6.608-3.952
	c1.307-2.434,1.17-5.388-0.356-7.691l-29.914-45.139c-1.39-2.096-3.737-3.357-6.252-3.357s-4.862,1.261-6.252,3.357l-29.914,45.139
	c-1.526,2.303-1.663,5.257-0.356,7.691c1.307,2.434,3.846,3.952,6.608,3.952h9.312v30.265
	C362.135,236.212,365.493,239.57,369.635,239.57z M382.737,162.743l15.946,24.062h-2.844c-4.142,0-7.5,3.358-7.5,7.5v30.265h-11.204
	v-30.265c0-4.142-3.358-7.5-7.5-7.5h-2.844L382.737,162.743z"/>
<path d="M271.596,115.123h-44.25c-4.142,0-7.5,3.358-7.5,7.5s3.358,7.5,7.5,7.5h44.25c4.142,0,7.5-3.358,7.5-7.5
	S275.738,115.123,271.596,115.123z"/>
<path d="M271.596,141.666h-44.25c-4.142,0-7.5,3.358-7.5,7.5s3.358,7.5,7.5,7.5h44.25c4.142,0,7.5-3.358,7.5-7.5
	S275.738,141.666,271.596,141.666z"/>
<path d="M446.648,423.956V81.926c0-4.142-3.358-7.5-7.5-7.5h-44.706c-4.142,0-7.5,3.358-7.5,7.5s3.358,7.5,7.5,7.5h37.206V248.78
	H191.749V89.426h172.693c4.142,0,7.5-3.358,7.5-7.5s-3.358-7.5-7.5-7.5H190.958C185.32,32.468,149.306,0,105.829,0H72.854
	C53.667,0,38.057,15.61,38.057,34.797s15.61,34.796,34.797,34.796h32.975c9.003,0,16.327,7.324,16.327,16.327v278.528
	c-25.525,12.803-43.097,39.21-43.097,69.659c0,42.95,34.943,77.893,77.893,77.893c19.593,0,37.505-7.288,51.208-19.273h230.987
	c19.187,0,34.796-15.61,34.796-34.797C473.945,441.318,462.241,427.396,446.648,423.956z M431.648,263.779v159.354H234.062
	c-0.007-0.051-0.366-2.028-0.492-2.971c-4.342-23.737-20.112-44.887-41.822-55.757V263.779H431.648z M137.156,358.75V85.92
	c0-17.273-14.053-31.327-31.327-31.327H72.854c-10.916,0-19.797-8.88-19.797-19.796S61.938,15,72.854,15h32.975
	c39.105,0,70.92,31.814,70.92,70.92v272.831c-6.449-1.694-13.13-2.538-19.796-2.538C150.288,356.213,143.602,357.059,137.156,358.75
	z M94.059,434.107c0-33.496,26.323-60.954,59.368-62.789c0.103-0.006,0.205-0.018,0.308-0.023
	c29.571-1.537,57.597,19.677,64.431,48.429c4.927,20.73-1.545,43.429-16.506,58.564C189.916,490.17,173.666,497,156.952,497
	C122.273,497,94.059,468.786,94.059,434.107z M439.148,477.727H221.513c7.182-10.555,11.596-22.67,12.909-35.511
	c0.011-0.106,0.022-0.212,0.032-0.318c0.123-1.249,0.227-2.502,0.29-3.764h204.403c10.916,0,19.796,8.881,19.796,19.797
	S450.064,477.727,439.148,477.727z"/>
<g>
</g>
<g>
</g>
<g>
</g>
<g>
</g>
<g>
</g>
<g>
</g>
<g>
</g>
<g>
</g>
<g>
</g>
<g>
</g>
<g>
</g>
<g>
</g>
<g>
</g>
<g>
</g>
<g>
</g>
</svg>
