<svg width="78" height="80" viewBox="0 0 501 512" version="1.1" xmlns="http://www.w3.org/2000/svg" xmlns:xlink="http://www.w3.org/1999/xlink">
<g id="Canvas" fill="none">
<g id="features__blanket_style_flat">
<g id="Vector">
<path d="M 49.703 4.88281e-06L 5.61523e-06 162.87L 33.758 162.87C 61.102 162.87 83.461 140.5 83.461 113.167L 83.461 0.0199939L 49.703 4.88281e-06Z" transform="translate(403.176 349.13)" fill="#D68A1E"/>
</g>
<g id="Vector_2">
<path d="M 414.429 113.417L 414.429 0.250005L 6.10351e-08 4.88281e-06L 11.253 100.937L 11.253 163.12L 364.724 163.12C 392.07 163.12 414.429 140.75 414.429 113.417Z" transform="translate(38.45 348.88)" fill="#EC9922"/>
</g>
<g id="Vector_3">
<path d="M 33.758 0L -1.3916e-05 0L -1.3916e-05 375.268L 33.758 375.268C 61.091 375.268 83.461 352.898 83.461 325.565L 83.461 49.703C 83.461 22.37 61.091 0 33.758 0Z" transform="translate(416.656 0)" fill="#EC9922"/>
</g>
<g id="Vector_4">
<path d="M 49.704 0C 22.371 0 2.5177e-07 22.37 2.5177e-07 49.703L 2.5177e-07 400.114C 2.5177e-07 427.458 22.37 449.817 49.703 449.817L 83.461 449.817L 49.703 412.549L 49.703 348.907L 83.462 0L 49.704 0Z" fill="#D68A1E"/>
</g>
<g id="Vector_5">
<path d="M 382.898 0L 49.704 0C 22.371 0 -1.28174e-06 22.37 -1.28174e-06 49.703L -1.28174e-06 400.114C -1.28174e-06 427.458 22.37 449.817 49.703 449.817L 384.541 449.817C 394.837 449.817 403.176 441.479 403.176 431.182C 403.176 420.886 394.838 412.547 384.541 412.547L 52.393 412.547C 42.108 412.547 33.758 404.197 33.758 393.901C 33.758 383.605 42.108 375.266 52.393 375.266L 382.897 375.266C 410.23 375.266 432.6 352.896 432.6 325.563L 432.6 49.703C 432.601 22.37 410.231 0 382.898 0Z" transform="translate(33.7581 0)" fill="#FDBC4B"/>
</g>
<g id="Group">
<g id="Vector_6">
<path d="M 8.43999 16.88C 13.1013 16.88 16.88 13.1013 16.88 8.44C 16.88 3.77872 13.1013 0 8.43999 0C 3.77871 0 -1.36719e-05 3.77872 -1.36719e-05 8.44C -1.36719e-05 13.1013 3.77871 16.88 8.43999 16.88Z" transform="translate(432.6 96.2109)" fill="#D68A1E"/>
</g>
<g id="Vector_7">
<path d="M 8.44 16.88C 13.1013 16.88 16.88 13.1013 16.88 8.44001C 16.88 3.77873 13.1013 1.00098e-05 8.44 1.00098e-05C 3.77872 1.00098e-05 0 3.77873 0 8.44001C 0 13.1013 3.77872 16.88 8.44 16.88Z" transform="translate(98.022 285.954)" fill="#D68A1E"/>
</g>
<g id="Vector_8">
<path d="M 8.44 16.88C 13.1013 16.88 16.88 13.1013 16.88 8.43999C 16.88 3.77871 13.1013 -9.0332e-06 8.44 -9.0332e-06C 3.77871 -9.0332e-06 1.95313e-06 3.77871 1.95313e-06 8.43999C 1.95313e-06 13.1013 3.77871 16.88 8.44 16.88Z" transform="translate(69.891 256.697)" fill="#D68A1E"/>
</g>
</g>
</g>
</g>
</svg>

