<svg width="80" height="80" viewBox="0 0 671 670" version="1.1" xmlns="http://www.w3.org/2000/svg" xmlns:xlink="http://www.w3.org/1999/xlink">
<g id="Canvas" fill="none">
<g id="features__trailer_style_flat">
<g id="Rectangle">
<rect width="670" height="670" fill="transparent"/>
</g>
<g id="Vector">
<path d="M 114.108 3.84259e-06C 55.5921 3.84259e-06 7.14117 43.961 -1.79976e-06 100.618L 228.215 100.618C 221.072 43.961 172.623 3.84259e-06 114.108 3.84259e-06Z" transform="translate(51.8518 444.883)" fill="#FDBC4B"/>
</g>
<g id="Vector_2">
<path d="M 10.8815 174.78C 4.8713 174.78 -1.69578e-05 169.905 -1.69578e-05 163.89L -1.69578e-05 10.8902C -1.69578e-05 4.87654 4.86999 -1.47299e-05 10.8815 -1.47299e-05C 16.8916 -1.47299e-05 21.763 4.87522 21.763 10.8902L 21.763 163.891C 21.763 169.905 16.8903 174.78 10.8815 174.78Z" transform="translate(615.915 471.276)" fill="#E5E5E5"/>
</g>
<g id="Vector_3">
<path d="M 117.429 -2.24151e-06L 117.429 34.2958L 29.0168 34.2958L 4.15945e-06 -2.24151e-06L 117.429 -2.24151e-06Z" transform="translate(553.571 511.203)" fill="#464646"/>
</g>
<g id="Vector_4">
<path d="M 130.575 -2.56172e-06L 87.0505 141.612L 43.5259 141.612L 2.55966e-06 -2.56172e-06L 130.575 -2.56172e-06Z" transform="translate(354.243 403.889)" fill="#EC9922"/>
</g>
<g id="Vector_5">
<path d="M 386.888 -2.56172e-06L 386.888 141.611L 266.384 141.611C 253.516 92.1427 208.483 55.5084 155.078 55.5084C 101.674 55.5084 56.6405 92.1414 43.7723 141.611L 5.89922e-07 141.611L 5.89922e-07 -2.56172e-06L 386.888 -2.56172e-06Z" transform="translate(10.8815 403.889)" fill="#FDBC4B"/>
</g>
<g id="Vector_6">
<path d="M 10.8815 -5.12345e-06C 4.87261 -5.12345e-06 0 4.87523 0 10.8902C 0 16.9053 4.8713 21.7805 10.8815 21.7805L 455.803 21.7805L 455.803 0.00131577L 10.8815 0.00131577L 10.8815 -5.12345e-06Z" transform="translate(0 393)" fill="#E5E5E5"/>
</g>
<g id="Vector_7">
<path d="M 239.082 122.399C 233.679 122.399 228.993 118.375 228.3 112.87C 221.754 60.9397 177.341 21.7805 124.988 21.7805C 72.636 21.7805 28.2229 60.9397 21.6767 112.87C 20.9258 118.838 15.4739 123.074 9.52008 122.311C 3.55709 121.557 -0.665491 116.111 0.0867632 110.144C 8.00247 47.3528 61.6982 1.08873e-05 124.99 1.08873e-05C 188.281 1.08873e-05 241.977 47.3515 249.893 110.144C 250.646 116.111 246.421 121.558 240.459 122.311C 239.997 122.369 239.537 122.399 239.082 122.399Z" transform="translate(40.97 448.513)" fill="#EC9922"/>
</g>
<g id="Vector_8">
<path d="M 102.223 2.09483e-06L 102.223 152.146L 58.4128 152.146L 1.7713e-05 76.073L 58.4128 2.09483e-06L 102.223 2.09483e-06Z" transform="translate(480.971 393.355)" fill="#FDBC4B"/>
</g>
<g id="Vector_9">
<path d="M 96.9805 0L 0 0L 0 152.146L 96.9805 152.146L 96.9805 0Z" transform="translate(441.654 393.355)" fill="#FDBC4B"/>
</g>
<g id="Vector_10">
<path d="M 91.8641 183.876C 142.599 183.876 183.728 142.714 183.728 91.9381C 183.728 41.1621 142.599 0 91.8641 0C 41.129 0 6.39916e-06 41.1621 6.39916e-06 91.9381C 6.39916e-06 142.714 41.129 183.876 91.8641 183.876Z" transform="translate(74.7012 486.124)" fill="#464646"/>
</g>
<g id="Vector_11">
<path d="M 51.2896 102.662C 79.616 102.662 102.579 79.6802 102.579 51.3309C 102.579 22.9816 79.616 -1.02469e-05 51.2896 -1.02469e-05C 22.9631 -1.02469e-05 -4.79937e-06 22.9816 -4.79937e-06 51.3309C -4.79937e-06 79.6802 22.9631 102.662 51.2896 102.662Z" transform="translate(115.328 526.783)" fill="#CACACA"/>
</g>
</g>
</g>
</svg>

