<?xml version="1.0" encoding="iso-8859-1"?>
<!-- Generator: Adobe Illustrator 19.0.0, SVG Export Plug-In . SVG Version: 6.00 Build 0)  -->
<svg version="1.1" id="Capa_1" xmlns="http://www.w3.org/2000/svg" xmlns:xlink="http://www.w3.org/1999/xlink" x="0px" y="0px" width="120" height="120"
	 viewBox="0 0 512 512" style="enable-background:new 0 0 512 512;" xml:space="preserve">
<path style="fill:#FFDC64;" d="M491.104,221.704l-82.797-13.8l-40.081-104.21h-96.194c-8.854,0-16.032,7.178-16.032,16.032v96.243
	H7.5v112.226c0,8.855,7.179,16.033,16.034,16.032l472.951-0.049c4.427,0,8.015-3.589,8.015-8.016v-98.645
	C504.5,229.681,498.834,222.992,491.104,221.704z"/>
<path style="fill:#FFC850;" d="M7.5,304.147h497v32.065c0,4.427-3.589,8.016-8.016,8.016H23.532
	c-8.854,0-16.032-7.178-16.032-16.032V304.147z"/>
<path style="fill:#FFF082;" d="M296.081,248.034H504.5v-10.516c0-7.837-5.666-14.526-13.397-15.814l-82.501-13.75H296.081
	c-8.854,0-16.032,7.178-16.032,16.032v8.016C280.048,240.856,287.226,248.034,296.081,248.034z"/>
<path style="fill:#FFFABE;" d="M472.435,248.034v24.048c0,8.854,7.178,16.032,16.032,16.032H504.5v-40.081L472.435,248.034
	L472.435,248.034z"/>
<path style="fill:#00D7FF;" d="M312.113,207.904h96.194l-27.748-72.145h-84.478v56.113
	C296.081,200.726,303.259,207.904,312.113,207.904z"/>
<rect x="7.5" y="215.971" style="fill:#FFF082;" width="248.5" height="32.06"/>
<path style="fill:#E1A546;" d="M424.339,272.083c-41.545,0-75.693,31.624-79.708,72.111l151.854-0.016
	c3.029,0,5.571-1.747,6.934-4.226C497.511,301.534,464.41,272.083,424.339,272.083z"/>
<circle style="fill:#5B5D6E;" cx="424.34" cy="352.191" r="56.11"/>
<circle style="fill:#C7CFE2;" cx="424.34" cy="352.191" r="23.999"/>
<path style="fill:#E1A546;" d="M191.419,344.21c-4.008-40.495-38.16-72.128-79.709-72.128c-41.554,0-75.709,31.642-79.709,72.144
	L191.419,344.21z"/>
<circle style="fill:#5B5D6E;" cx="111.71" cy="352.191" r="56.11"/>
<circle style="fill:#C7CFE2;" cx="111.71" cy="352.191" r="23.999"/>
<path style="fill:#FFF082;" d="M368.245,103.744h-96.703C262.92,104.009,256,111.04,256,119.727v8.066h121.494L368.245,103.744z"/>
<polygon style="fill:#00C3FF;" points="380.579,135.812 380.577,135.808 296.081,135.759 296.081,159.857 389.827,159.857 "/>
<path d="M135.758,344.694c-4.142,0-7.5,3.358-7.5,7.5c0,9.125-7.424,16.548-16.549,16.548s-16.548-7.423-16.548-16.548
	s7.423-16.548,16.548-16.548c4.142,0,7.5-3.358,7.5-7.5c0-4.142-3.358-7.5-7.5-7.5c-17.396,0-31.548,14.152-31.548,31.548
	s14.152,31.548,31.548,31.548s31.549-14.152,31.549-31.548C143.258,348.052,139.9,344.694,135.758,344.694z"/>
<path d="M448.387,344.694c-4.142,0-7.5,3.358-7.5,7.5c0,9.125-7.423,16.548-16.548,16.548s-16.548-7.423-16.548-16.548
	s7.423-16.548,16.548-16.548c4.142,0,7.5-3.358,7.5-7.5c0-4.142-3.358-7.5-7.5-7.5c-17.396,0-31.548,14.152-31.548,31.548
	s14.152,31.548,31.548,31.548s31.548-14.152,31.548-31.548C455.887,348.052,452.529,344.694,448.387,344.694z"/>
<path d="M492.336,214.306l-78.568-13.095l-34.622-90.017h5.112c4.142,0,7.5-3.358,7.5-7.5s-3.358-7.5-7.5-7.5H272.032
	c-12.976,0-23.532,10.557-23.532,23.532v88.694H7.5c-4.142,0-7.5,3.358-7.5,7.5v112.226c0,12.976,10.557,23.532,23.532,23.532H48.11
	c-0.001,0.173-0.013,0.343-0.013,0.516c0,35.077,28.537,63.613,63.613,63.613c35.077,0,63.613-28.537,63.613-63.613
	c0-0.173-0.012-0.343-0.013-0.516h185.429c-0.001,0.173-0.013,0.343-0.013,0.516c0,35.077,28.537,63.613,63.613,63.613
	s63.613-28.537,63.613-63.613c0-0.173-0.012-0.343-0.013-0.516h8.545c8.556,0,15.516-6.96,15.516-15.516v-98.645
	C512,225.967,503.73,216.205,492.336,214.306z M497,280.565h-8.532c-4.705,0-8.532-3.828-8.532-8.532v-16.548H497V280.565z
	 M397.386,200.404h-85.274c-4.705,0-8.532-3.828-8.532-8.532v-48.613h71.827L397.386,200.404z M111.709,400.808
	c-26.805,0-48.613-21.808-48.613-48.613s21.808-48.613,48.613-48.613c26.806,0,48.613,21.808,48.613,48.613
	C160.323,379,138.515,400.808,111.709,400.808z M424.339,400.808c-26.806,0-48.613-21.808-48.613-48.613
	s21.808-48.613,48.613-48.613s48.613,21.808,48.613,48.613S451.144,400.808,424.339,400.808z M496.484,336.678H486.03
	c-6.945-27.6-31.966-48.097-61.691-48.097s-54.746,20.497-61.691,48.097H173.401c-6.945-27.6-31.966-48.097-61.691-48.097
	s-54.746,20.497-61.691,48.097H23.532c-4.705,0-8.532-3.828-8.532-8.532V223.42h233.5v88.693c0,4.142,3.358,7.5,7.5,7.5
	s7.5-3.358,7.5-7.5V119.727c0-4.705,3.828-8.532,8.532-8.532h91.042l6.563,17.065h-73.558c-4.142,0-7.5,3.358-7.5,7.5v56.113
	c0,12.976,10.557,23.532,23.532,23.532h95.573l82.185,13.697c4.131,0.688,7.129,4.228,7.129,8.416v2.967h-24.564
	c-4.142,0-7.5,3.358-7.5,7.5v24.048c0,12.976,10.557,23.532,23.532,23.532H497v40.597C497,336.447,496.769,336.678,496.484,336.678z
	"/>
<path d="M392.274,240.485h-96.193c-4.142,0-7.5,3.358-7.5,7.5s3.358,7.5,7.5,7.5h96.193c4.142,0,7.5-3.358,7.5-7.5
	S396.416,240.485,392.274,240.485z"/>
<path d="M440.371,240.485h-16.032c-4.142,0-7.5,3.358-7.5,7.5s3.358,7.5,7.5,7.5h16.032c4.142,0,7.5-3.358,7.5-7.5
	S444.513,240.485,440.371,240.485z"/>
<path d="M223.936,240.485H39.564c-4.142,0-7.5,3.358-7.5,7.5s3.358,7.5,7.5,7.5h184.371c4.142,0,7.5-3.358,7.5-7.5
	S228.078,240.485,223.936,240.485z"/>
<g>
</g>
<g>
</g>
<g>
</g>
<g>
</g>
<g>
</g>
<g>
</g>
<g>
</g>
<g>
</g>
<g>
</g>
<g>
</g>
<g>
</g>
<g>
</g>
<g>
</g>
<g>
</g>
<g>
</g>
</svg>
