<svg xmlns="http://www.w3.org/2000/svg" xmlns:xlink="http://www.w3.org/1999/xlink" width="50" height="60" version="1.1" viewBox="0 0 360 470"><title>MUVX__logo-image</title><g id="Canvas" transform="translate(546 68)"><g id="MUVX__logo-image"><g id="part_left_2"><use fill="#1A237E" transform="translate(-546 202)" xlink:href="#path0_fill"/></g><g id="part_left_1"><use fill="#3949AB" transform="translate(-546 122)" xlink:href="#path1_fill"/></g><g id="part_bottom"><use fill="#1A237E" transform="translate(-466 322)" xlink:href="#path2_fill"/></g><g id="part_right_2"><use fill="#1A237E" transform="matrix(-1 0 0 1 -186 202)" xlink:href="#path0_fill"/></g><g id="part_right_1"><use fill="#3949AB" transform="matrix(-1 0 0 1 -186 122)" xlink:href="#path1_fill"/></g><g id="part-top-2"><use fill="#1565C0" transform="translate(-546 32)" xlink:href="#path3_fill"/></g><g id="part_middle_2"><use fill="#1A237E" transform="matrix(1 0 0 -1 -466 342)" xlink:href="#path4_fill"/></g><g id="part_middle_1"><use fill="#3949AB" transform="translate(-466 180)" xlink:href="#path4_fill"/></g><g id="part_top"><use fill="#1E88E5" transform="translate(-546 -68)" xlink:href="#path5_fill"/></g></g></g><defs><path id="path0_fill" d="M 0 0L 0 110L 70 145L 70 35L 0 0Z"/><path id="path1_fill" d="M 0 0L 0 80L 70 115L 70 35L 0 0Z"/><path id="path2_fill" d="M 0 30L 60 0L 100 20L 140 0L 200 30L 100 80L 0 30Z"/><path id="path3_fill" d="M 0 90L 0 0L 180 90L 360 0L 360 90L 180 180L 0 90Z"/><path id="path4_fill" d="M 0 60L 0 0L 100 50L 200 0L 200 60L 100 110L 0 60Z"/><path id="path5_fill" d="M 0 90L 180 0L 360 90L 180 180L 0 90Z"/></defs></svg>