<svg width="50" height="60" viewBox="0 0 360 470" xmlns="http://www.w3.org/2000/svg" xmlns:xlink="http://www.w3.org/1999/xlink"><use xlink:href="#path0_fill" transform="translate(0 270)" fill="#1A237E"/><use xlink:href="#path1_fill" transform="translate(0 190)" fill="#3949AB"/><use xlink:href="#path2_fill" transform="translate(80 390)" fill="#1A237E"/><use xlink:href="#path0_fill" transform="matrix(-1 0 0 1 360 270)" fill="#1A237E"/><use xlink:href="#path1_fill" transform="matrix(-1 0 0 1 360 190)" fill="#3949AB"/><use xlink:href="#path3_fill" transform="translate(0 100)" fill="#1565C0"/><use xlink:href="#path4_fill" transform="matrix(1 0 0 -1 80 410)" fill="#1A237E"/><use xlink:href="#path4_fill" transform="translate(80 248)" fill="#3949AB"/><use xlink:href="#path5_fill" fill="#1E88E5"/><defs><path id="path0_fill" d="M0 0v110l70 35V35L0 0z"/><path id="path1_fill" d="M0 0v80l70 35V35L0 0z"/><path id="path2_fill" d="M0 30L60 0l40 20 40-20 60 30-100 50L0 30z"/><path id="path3_fill" d="M0 90V0l180 90L360 0v90l-180 90L0 90z"/><path id="path4_fill" d="M0 60V0l100 50L200 0v60l-100 50L0 60z"/><path id="path5_fill" d="M0 90L180 0l180 90-180 90L0 90z"/></defs></svg>