<svg xmlns="http://www.w3.org/2000/svg" xmlns:xlink="http://www.w3.org/1999/xlink" id="Layer_1" width="80" height="80" x="0" y="0" enable-background="new 0 0 512 512" version="1.1" viewBox="0 0 512 512" xml:space="preserve"><g><path fill="#C79175" d="M508.023,86.147c5.303,5.303,5.303,13.905,0,19.208l-45.011,45.022l-101.39-101.39l45.022-45.011 c5.303-5.303,13.894-5.303,19.208,0L508.023,86.147z"/><path fill="#C79175" d="M229.572,383.818l-7.078,7.089L105.367,508.023c-5.303,5.303-13.906,5.303-19.208,0L3.977,425.842 c-5.303-5.303-5.303-13.905,0-19.208l117.127-117.116l7.078-7.089L229.572,383.818z"/><polygon fill="#C79175" points="279.458 333.931 277.444 335.945 266.987 346.414 232.951 380.45 229.572 383.818 128.182 282.428 131.562 279.06 165.597 245.025 176.055 234.556 178.069 232.542"/><polygon fill="#C79175" points="451.73 168.681 391.305 222.084 381.656 231.734 279.458 333.931 178.069 232.542 280.266 130.344 289.916 120.694 344.787 54.865 386.492 73.891 386.56 73.926 388.142 75.541 432.339 120.694"/></g><g><polygon fill="#BA8067" points="232.951 380.45 229.572 383.818 222.494 390.907 121.104 289.518 128.182 282.428 131.562 279.06"/><polygon fill="#BA8067" points="277.444 335.945 266.987 346.414 165.597 245.025 176.055 234.556"/></g><g><path fill="#FEE572" d="M233.243,389.494c-1.894,0-3.786-0.723-5.23-2.167l-103.35-103.35c-2.889-2.889-2.889-7.572,0-10.46 c2.888-2.888,7.572-2.888,10.46,0l103.35,103.35c2.889,2.889,2.889,7.572,0,10.46C237.028,388.771,235.135,389.494,233.243,389.494 z"/><path fill="#FEE572" d="M277.741,344.995c-1.892,0-3.786-0.723-5.231-2.167l-103.35-103.35 c-2.889-2.889-2.889-7.572,0-10.46c2.888-2.888,7.572-2.888,10.46,0l103.35,103.35c2.889,2.889,2.889,7.572,0.001,10.46 C281.527,344.274,279.634,344.995,277.741,344.995z"/></g><g><path fill="#666363" d="M295.144,196.885c-1.894,0-3.786-0.721-5.231-2.167l-13.679-13.679 c-2.888-2.889-2.888-7.572,0.001-10.46c2.888-2.889,7.572-2.888,10.46,0l13.679,13.679c2.888,2.889,2.888,7.572-0.001,10.46 C298.93,196.162,297.036,196.885,295.144,196.885z"/><path fill="#666363" d="M256.521,235.507c-1.894,0-3.786-0.723-5.23-2.167l-13.679-13.679c-2.889-2.888-2.889-7.572,0-10.46 c2.888-2.888,7.571-2.888,10.46,0l13.679,13.679c2.889,2.888,2.889,7.572,0.001,10.46 C260.307,234.784,258.414,235.507,256.521,235.507z"/><path fill="#666363" d="M130.594,361.434c-1.894,0-3.786-0.723-5.23-2.167l-13.679-13.679c-2.889-2.889-2.889-7.572,0-10.46 c2.888-2.888,7.572-2.888,10.46,0l13.679,13.679c2.889,2.889,2.889,7.572,0,10.46C134.38,360.711,132.487,361.434,130.594,361.434z"/><path fill="#666363" d="M336.18,237.921c-1.893,0-3.786-0.721-5.231-2.167l-13.679-13.679 c-2.888-2.889-2.888-7.572,0.001-10.46c2.888-2.889,7.572-2.889,10.46,0l13.679,13.679c2.888,2.889,2.888,7.572-0.001,10.46 C339.966,237.198,338.072,237.921,336.18,237.921z"/><path fill="#666363" d="M297.558,276.543c-1.892,0-3.786-0.723-5.23-2.167l-13.679-13.679 c-2.889-2.888-2.889-7.572-0.001-10.46c2.889-2.888,7.573-2.888,10.46,0l13.679,13.679c2.889,2.888,2.889,7.572,0.001,10.46 C301.344,275.82,299.451,276.543,297.558,276.543z"/><path fill="#666363" d="M171.63,402.471c-1.894,0-3.786-0.723-5.23-2.167l-13.679-13.679c-2.889-2.889-2.889-7.572,0-10.46 c2.888-2.888,7.572-2.888,10.46,0l13.679,13.679c2.889,2.889,2.889,7.572,0,10.46C175.416,401.748,173.524,402.471,171.63,402.471z"/></g><path fill="#BA8067" d="M451.73,168.681l-60.424,53.403l-9.65,9.65c-1.57-5.633-0.148-11.926,4.29-16.375l48.487-48.476	l-24.135-24.135l-41.034-41.034l-24.147-24.147l-48.487,48.487c-3.277,3.277-7.567,4.916-11.869,4.916	c-1.513,0-3.027-0.205-4.495-0.626l9.65-9.65l54.871-65.829l41.705,19.026l1.65,1.65l44.197,45.153L451.73,168.681z"/><path fill="#FEE572" d="M421.483,131.562L380.45,90.528l-24.147-24.147l-48.487,48.487	c-3.277,3.277-7.567,4.916-11.869,4.916c-1.878,0-3.767-0.319-5.553-0.944c-2.31-0.808-4.472-2.128-6.316-3.971	c-6.554-6.554-6.554-17.183,0-23.737l58.512-58.512c6.907-6.907,18.093-6.907,25,0l5.2,5.2l101.39,101.39l5.2,5.2	c6.907,6.896,6.907,18.093,0,25l-58.512,58.501c-3.277,3.277-7.579,4.916-11.869,4.916c-4.29,0-8.591-1.639-11.869-4.916	c-1.843-1.843-3.163-4.006-3.971-6.316c-2.06-5.894-0.74-12.699,3.971-17.422l48.487-48.476L421.483,131.562z"/><g><path fill="#FEC274" d="M336.178,142.171c-1.892,0-3.786-0.723-5.23-2.167c-2.889-2.889-2.889-7.572,0-10.46l49.887-49.888 c2.889-2.888,7.573-2.888,10.46,0c2.889,2.889,2.889,7.572,0,10.46l-49.887,49.888 C339.964,141.448,338.071,142.171,336.178,142.171z"/><path fill="#FEC274" d="M377.216,183.207c-1.894,0-3.786-0.721-5.231-2.167c-2.888-2.889-2.888-7.572,0.001-10.46 l49.888-49.887c2.888-2.889,7.572-2.889,10.46,0c2.888,2.889,2.888,7.572-0.001,10.46l-49.888,49.887 C381.002,182.484,379.108,183.207,377.216,183.207z"/></g></svg>