<svg width="230" height="120" viewBox="0 0 504 264" version="1.1" xmlns="http://www.w3.org/2000/svg" xmlns:xlink="http://www.w3.org/1999/xlink">
<g id="Canvas" fill="none">
<g id="van">
<g id="Group">
<g id="Vector">
<path d="M 76 26.4C 76 35.2 68.8 42.4 60 42.4L 16 42.4C 7.2 42.4 0 35.2 0 26.4L 0 16C 0 7.2 7.2 3.05176e-06 16 3.05176e-06L 60 3.05176e-06C 68.8 3.05176e-06 76 7.2 76 16L 76 26.4Z" transform="translate(404 106.4)" fill="#8E0C19"/>
</g>
<g id="Vector_2">
<path d="M 493.6 92C 493.6 98.4 488 104 481.6 104L 12 104C 5.6 104 9.53674e-08 98.4 9.53674e-08 92L 9.53674e-08 12C 9.53674e-08 5.6 5.6 0 12 0L 473.6 0C 480 0 485.6 5.6 485.6 12L 493.6 92Z" transform="translate(6.39999 113.6)" fill="#8E0C19"/>
</g>
</g>
<g id="Vector_3">
<path d="M 9.53674e-08 35.2C 9.53674e-08 41.6 5.6 47.2 12 47.2L 481.6 47.2C 488 47.2 493.6 41.6 493.6 35.2L 489.6 -1.2207e-05L 9.53674e-08 -1.2207e-05L 9.53674e-08 35.2Z" transform="translate(6.39999 170.4)" fill="#770818"/>
</g>
<g id="Vector_4">
<path d="M 504 12.8C 504 17.6 500 20.8 496 20.8L 8 20.8C 3.2 20.8 0 16.8 0 12.8L 0 8.00001C 0 3.20001 4 1.2207e-05 8 1.2207e-05L 496 1.2207e-05C 500.8 1.2207e-05 504 4.00001 504 8.00001L 504 12.8Z" transform="translate(0 208.8)" fill="#490815"/>
</g>
<g id="Vector_5">
<path d="M 1.52588e-06 50.4C 1.52588e-06 22.4 22.4 1.2207e-05 50.4 1.2207e-05C 78.4 1.2207e-05 100.8 22.4 100.8 50.4" transform="translate(50.4 164.8)" fill="black"/>
</g>
<g id="Vector_6">
<path d="M 105.6 52.8L 101.6 52.8C 101.6 26.4 80 3.99999 52.8 3.99999C 26.4 3.99999 4 25.6 4 52.8L 0 52.8C 0 24 23.2 -1.2207e-05 52.8 -1.2207e-05C 82.4 -1.2207e-05 105.6 24 105.6 52.8Z" transform="translate(48 162.4)" fill="#490815"/>
</g>
<g id="Vector_7">
<path d="M 45.6 91.2C 70.7842 91.2 91.2 70.7842 91.2 45.6C 91.2 20.4158 70.7842 -6.10352e-06 45.6 -6.10352e-06C 20.4158 -6.10352e-06 0 20.4158 0 45.6C 0 70.7842 20.4158 91.2 45.6 91.2Z" transform="translate(55.2 172)" fill="#203547"/>
</g>
<g id="Vector_8">
<path d="M 64.8 1.2207e-05C 82.4 17.6 82.4 46.4 64.8 64.8C 47.2 82.4 18.4 82.4 0 64.8" transform="translate(68 184.8)" fill="#122130"/>
</g>
<g id="Vector_9">
<path d="M 28.8 57.6C 44.7058 57.6 57.6 44.7058 57.6 28.8C 57.6 12.8942 44.7058 1.2207e-05 28.8 1.2207e-05C 12.8942 1.2207e-05 0 12.8942 0 28.8C 0 44.7058 12.8942 57.6 28.8 57.6Z" transform="translate(72 188.8)" fill="#6E7577"/>
</g>
<g id="Vector_10">
<path d="M 40.8 1.2207e-05C 52 11.2 52 29.6 40.8 40.8C 29.6 52 11.2 52 0 40.8" transform="translate(80 196.8)" fill="#4C5456"/>
</g>
<g id="Vector_11">
<path d="M 24.8 49.6C 38.4967 49.6 49.6 38.4967 49.6 24.8C 49.6 11.1033 38.4967 1.2207e-05 24.8 1.2207e-05C 11.1033 1.2207e-05 0 11.1033 0 24.8C 0 38.4967 11.1033 49.6 24.8 49.6Z" transform="translate(76 192.8)" fill="#CED8DD"/>
</g>
<g id="Vector_12">
<path d="M 35.2 6.10352e-06C 44.8 9.60001 44.8 25.6 35.2 35.2C 25.6 44.8 9.6 44.8 -3.05176e-06 35.2" transform="translate(83.2 199.2)" fill="#B2BBC1"/>
</g>
<g id="Vector_13" opacity="0.2">
<path d="M 24 12C 24 18.4 18.4 25.6 12 25.6C 5.6 25.6 3.05176e-06 18.4 3.05176e-06 12C 3.05176e-06 5.6 5.6 0 12 0C 18.4 0 24 5.6 24 12Z" transform="translate(88.8 205.6)" fill="#888F91"/>
</g>
<g id="Vector_14">
<path d="M 12 24C 18.6274 24 24 18.6274 24 12C 24 5.37258 18.6274 0 12 0C 5.37259 0 3.05176e-06 5.37258 3.05176e-06 12C 3.05176e-06 18.6274 5.37259 24 12 24Z" transform="translate(88.8 205.6)" fill="#E7EFF2"/>
</g>
<g id="Vector_15">
<path d="M 3.05176e-06 0C 6.4 0 12 5.6 12 12C 12 18.4 6.4 24 3.05176e-06 24" transform="translate(100.8 205.6)" fill="#DAE6EA"/>
</g>
<g id="Vector_16">
<path d="M 3.2 -6.10352e-06C 2.4 -6.10352e-06 0.799998 -6.10352e-06 -1.52588e-06 -6.10352e-06C 0.799998 3.99999 1.6 6.39999 3.2 6.39999C 4.8 6.39999 6.4 3.99999 6.4 -6.10352e-06C 5.6 -6.10352e-06 4.8 -6.10352e-06 3.2 -6.10352e-06Z" transform="translate(97.6 192)" fill="#666E70"/>
</g>
<g id="Vector_17">
<path d="M 3.05176e-06 6.39999C 1.6 6.39999 3.2 3.99999 3.2 -6.10352e-06C 2.4 -6.10352e-06 0.800003 -6.10352e-06 3.05176e-06 -6.10352e-06" transform="translate(100.8 192)" fill="#535A5B"/>
</g>
<g id="Vector_18">
<path d="M -1.52588e-06 6.39999C 2.4 6.39999 4.8 6.39999 6.4 6.39999C 5.6 3.19999 4.8 -6.10352e-06 3.2 -6.10352e-06C 1.6 -6.10352e-06 -1.52588e-06 2.39999 -1.52588e-06 6.39999Z" transform="translate(97.6 236)" fill="#666E70"/>
</g>
<g id="Vector_19">
<path d="M 3.2 6.39999C 2.4 3.19999 1.6 -6.10352e-06 3.05176e-06 -6.10352e-06Z" transform="translate(100.8 236)" fill="#535A5B"/>
</g>
<g id="Vector_20">
<path d="M 3.05176e-06 3.99999C 3.2 6.39999 5.6 7.20001 6.4 6.40001C 7.2 5.60001 6.4 2.39999 4.8 -1.2207e-05C 3.2 -1.2207e-05 1.6 1.59999 3.05176e-06 3.99999Z" transform="translate(80.8 198.4)" fill="#666E70"/>
</g>
<g id="Vector_21">
<path d="M 1.6 6.39999C 2.4 5.59999 1.6 2.4 1.52588e-06 0Z" transform="translate(86.4 197.6)" fill="#535A5B"/>
</g>
<g id="Vector_22">
<path d="M 6.71385 2.43243C 3.51385 0.0324268 1.11385 -0.767579 0.313845 0.832421C -0.486155 1.63242 0.313844 4.83241 1.91384 7.23241C 2.71384 6.43241 3.51385 5.63242 4.31385 4.83242C 5.11385 4.03242 5.91385 3.23243 6.71385 2.43243Z" transform="translate(114.086 230.368)" fill="#666E70"/>
</g>
<g id="Vector_23">
<path d="M 4 4.83242C 4.8 4.03242 5.6 3.23243 6.4 2.43243C 3.2 0.0324268 0.800002 -0.767579 1.52588e-06 0.832421" transform="translate(114.4 230.368)" fill="#535A5B"/>
</g>
<g id="Vector_24">
<path d="M 0 6.40001C 3.2 5.60001 6.4 4.8 6.4 3.2C 6.4 1.6 4 -1.2207e-05 0 -1.2207e-05C 0 0.799988 0 2.4 0 3.2C 0 4 0 4.80001 0 6.40001Z" transform="translate(76 214.4)" fill="#666E70"/>
</g>
<g id="Vector_25">
<path d="M 6.4 3.2C 6.4 1.6 4 -1.2207e-05 0 -1.2207e-05C 0 0.799988 0 2.4 0 3.2" transform="translate(76 214.4)" fill="#535A5B"/>
</g>
<g id="Vector_26">
<path d="M -3.05176e-06 3.2C -3.05176e-06 4.8 2.4 6.40001 6.4 6.40001C 6.4 4.00001 6.4 1.59999 6.4 -1.2207e-05C 3.2 -1.2207e-05 -3.05176e-06 1.6 -3.05176e-06 3.2Z" transform="translate(119.2 214.4)" fill="#666E70"/>
</g>
<g id="Vector_27">
<path d="M 6.4 0C 3.2 0.8 -3.05176e-06 1.60001 -3.05176e-06 3.20001Z" transform="translate(119.2 213.6)" fill="#535A5B"/>
</g>
<g id="Vector_28">
<path d="M 3.05176e-06 2.43243C 1.6 4.03243 3.2 5.63241 4.8 7.23241C 7.2 4.03241 8 1.63242 6.4 0.832421C 5.6 -0.767579 3.2 0.0324268 3.05176e-06 2.43243Z" transform="translate(80.8 230.368)" fill="#666E70"/>
</g>
<g id="Vector_29">
<path d="M -1.52588e-06 6.4C 2.4 3.2 3.2 0.800006 1.6 6.10352e-06Z" transform="translate(85.6 231.2)" fill="#535A5B"/>
</g>
<g id="Vector_30">
<path d="M 2.7 0C 0.3 3.2 -0.500002 5.59999 0.299998 6.39999C 1.1 7.19999 4.3 6.39999 6.7 4.79999C 5.9 2.39999 4.3 0.8 2.7 0Z" transform="translate(113.3 197.6)" fill="#666E70"/>
</g>
<g id="Vector_31">
<path d="M 2.7 0C 0.3 3.2 -0.500002 5.59999 0.299998 6.39999Z" transform="translate(113.3 197.6)" fill="#535A5B"/>
</g>
<g id="Vector_32">
<path d="M 6.10352e-06 50.4C 6.10352e-06 22.4 22.4 1.2207e-05 50.4 1.2207e-05C 78.4 1.2207e-05 100.8 22.4 100.8 50.4" transform="translate(349.6 164.8)" fill="black"/>
</g>
<g id="Vector_33">
<path d="M 104.8 52.8L 100.8 52.8C 100.8 26.4 79.2 3.99999 52 3.99999C 25.6 3.99999 3.20001 25.6 3.20001 52.8L 0 52.8C 0 24 23.2 -1.2207e-05 52.8 -1.2207e-05C 82.4 -1.2207e-05 104.8 24 104.8 52.8Z" transform="translate(348 162.4)" fill="#490815"/>
</g>
<g id="Vector_34">
<path d="M 45.6 91.2C 70.7842 91.2 91.2 70.7842 91.2 45.6C 91.2 20.4158 70.7842 -6.10352e-06 45.6 -6.10352e-06C 20.4158 -6.10352e-06 -6.10352e-06 20.4158 -6.10352e-06 45.6C -6.10352e-06 70.7842 20.4158 91.2 45.6 91.2Z" transform="translate(354.4 172)" fill="#203547"/>
</g>
<g id="Vector_35">
<path d="M 64.8 1.2207e-05C 82.4 17.6 82.4 46.4 64.8 64.8C 47.2 82.4 18.4 82.4 0 64.8" transform="translate(368 184.8)" fill="#122130"/>
</g>
<g id="Vector_36">
<path d="M 28.8 57.6C 44.7058 57.6 57.6 44.7058 57.6 28.8C 57.6 12.8942 44.7058 1.2207e-05 28.8 1.2207e-05C 12.8942 1.2207e-05 1.2207e-05 12.8942 1.2207e-05 28.8C 1.2207e-05 44.7058 12.8942 57.6 28.8 57.6Z" transform="translate(371.2 188.8)" fill="#6E7577"/>
</g>
<g id="Vector_37">
<path d="M 40.8 1.2207e-05C 52 11.2 52 29.6 40.8 40.8C 29.6 52 11.2 52 0 40.8" transform="translate(380 196.8)" fill="#4C5456"/>
</g>
<g id="Vector_38">
<path d="M 24.8 49.6C 38.4967 49.6 49.6 38.4967 49.6 24.8C 49.6 11.1033 38.4967 1.2207e-05 24.8 1.2207e-05C 11.1033 1.2207e-05 1.2207e-05 11.1033 1.2207e-05 24.8C 1.2207e-05 38.4967 11.1033 49.6 24.8 49.6Z" transform="translate(375.2 192.8)" fill="#CED8DD"/>
</g>
<g id="Vector_39">
<path d="M 35.2 6.10352e-06C 44.8 9.60001 44.8 25.6 35.2 35.2C 25.6 44.8 9.60001 44.8 1.2207e-05 35.2" transform="translate(383.2 199.2)" fill="#B2BBC1"/>
</g>
<g id="Vector_40" opacity="0.2">
<path d="M 24 12C 24 18.4 18.4 25.6 12 25.6C 5.6 25.6 0 18.4 0 12C 0 5.6 5.6 0 12 0C 18.4 0 24 5.6 24 12Z" transform="translate(388 205.6)" fill="#888F91"/>
</g>
<g id="Vector_41">
<path d="M 12 24C 18.6274 24 24 18.6274 24 12C 24 5.37258 18.6274 0 12 0C 5.37258 0 0 5.37258 0 12C 0 18.6274 5.37258 24 12 24Z" transform="translate(388 205.6)" fill="#E7EFF2"/>
</g>
<g id="Vector_42">
<path d="M 0 0C 6.4 0 12 5.6 12 12C 12 18.4 6.4 24 0 24" transform="translate(400 205.6)" fill="#DAE6EA"/>
</g>
<g id="Vector_43">
<path d="M 3.2 -6.10352e-06C 2.4 -6.10352e-06 0.799988 -6.10352e-06 -1.2207e-05 -6.10352e-06C 0.799988 3.99999 1.6 6.39999 3.2 6.39999C 4.8 6.39999 6.40001 3.99999 6.40001 -6.10352e-06C 5.60001 -6.10352e-06 4.8 -6.10352e-06 3.2 -6.10352e-06Z" transform="translate(396.8 192)" fill="#666E70"/>
</g>
<g id="Vector_44">
<path d="M 0 6.39999C 1.6 6.39999 3.20001 3.99999 3.20001 -6.10352e-06C 2.40001 -6.10352e-06 0.8 -6.10352e-06 0 -6.10352e-06" transform="translate(400 192)" fill="#535A5B"/>
</g>
<g id="Vector_45">
<path d="M -1.2207e-05 6.39999C 2.39999 6.39999 4.80001 6.39999 6.40001 6.39999C 5.60001 3.19999 4.8 -6.10352e-06 3.2 -6.10352e-06C 2.4 -6.10352e-06 0.799988 2.39999 -1.2207e-05 6.39999Z" transform="translate(396.8 236)" fill="#666E70"/>
</g>
<g id="Vector_46">
<path d="M 3.2 6.39999C 2.4 3.19999 1.59999 -6.10352e-06 -1.2207e-05 -6.10352e-06Z" transform="translate(400.8 236)" fill="#535A5B"/>
</g>
<g id="Vector_47">
<path d="M -1.2207e-05 3.99999C 3.19999 6.39999 5.60001 7.20001 6.40001 6.40001C 7.20001 5.60001 6.39999 2.39999 3.99999 -1.2207e-05C 2.39999 -1.2207e-05 0.799988 1.59999 -1.2207e-05 3.99999Z" transform="translate(380.8 198.4)" fill="#666E70"/>
</g>
<g id="Vector_48">
<path d="M 2.40001 6.39999C 3.20001 5.59999 2.39999 2.4 -1.2207e-05 0Z" transform="translate(384.8 197.6)" fill="#535A5B"/>
</g>
<g id="Vector_49">
<path d="M 6.71384 2.43243C 3.51384 0.0324268 1.11385 -0.767579 0.31385 0.832421C -0.48615 1.63242 0.313856 4.83241 1.91386 7.23241C 2.71386 6.43241 3.51385 5.63242 4.31385 4.83242C 5.91385 4.03242 5.91384 3.23243 6.71384 2.43243Z" transform="translate(413.286 230.368)" fill="#666E70"/>
</g>
<g id="Vector_50">
<path d="M 3.99999 4.83242C 4.79999 4.03242 5.59999 3.23243 6.39999 2.43243C 3.19999 0.0324268 0.799994 -0.767579 -6.10352e-06 0.832421" transform="translate(414.4 230.368)" fill="#535A5B"/>
</g>
<g id="Vector_51">
<path d="M 1.2207e-05 6.40001C 4.00001 5.60001 6.40001 4.8 6.40001 3.2C 6.40001 1.6 4.00001 -1.2207e-05 1.2207e-05 -1.2207e-05C 1.2207e-05 0.799988 1.2207e-05 2.4 1.2207e-05 3.2C 1.2207e-05 4 1.2207e-05 4.80001 1.2207e-05 6.40001Z" transform="translate(375.2 214.4)" fill="#666E70"/>
</g>
<g id="Vector_52">
<path d="M 6.40001 3.2C 6.40001 1.6 4.00001 -1.2207e-05 1.2207e-05 -1.2207e-05C 1.2207e-05 0.799988 1.2207e-05 2.4 1.2207e-05 3.2" transform="translate(375.2 214.4)" fill="#535A5B"/>
</g>
<g id="Vector_53">
<path d="M 1.2207e-05 3.2C 1.2207e-05 4.8 2.40001 6.40001 6.40001 6.40001C 6.40001 4.00001 6.40001 1.59999 6.40001 -1.2207e-05C 2.40001 -1.2207e-05 1.2207e-05 1.6 1.2207e-05 3.2Z" transform="translate(419.2 214.4)" fill="#666E70"/>
</g>
<g id="Vector_54">
<path d="M 6.39999 0C 3.19999 0.8 -6.10352e-06 1.60001 -6.10352e-06 3.20001Z" transform="translate(418.4 213.6)" fill="#535A5B"/>
</g>
<g id="Vector_55">
<path d="M -1.2207e-05 2.43243C 1.59999 4.03243 3.20001 5.63241 4.80001 7.23241C 7.20001 4.03241 8 1.63242 7.2 0.832421C 5.6 -0.767579 2.39999 0.0324268 -1.2207e-05 2.43243Z" transform="translate(380.8 230.368)" fill="#666E70"/>
</g>
<g id="Vector_56">
<path d="M 6.10352e-06 6.4C 2.40001 3.2 3.2 0.800006 2.4 6.10352e-06Z" transform="translate(385.6 231.2)" fill="#535A5B"/>
</g>
<g id="Vector_57">
<path d="M 2.70001 0C 0.300012 3.2 -0.500012 5.59999 0.299988 6.39999C 1.09999 7.19999 4.30001 6.39999 6.70001 4.79999C 6.70001 2.39999 5.10001 0.8 2.70001 0Z" transform="translate(412.5 197.6)" fill="#666E70"/>
</g>
<g id="Vector_58">
<path d="M 2.70001 0C 0.300012 3.2 -0.500012 5.59999 0.299988 6.39999Z" transform="translate(412.5 197.6)" fill="#535A5B"/>
</g>
<g id="Vector_59">
<path d="M 433.6 127.2C 433.6 136 426.4 143.2 417.6 143.2L 16 143.2C 7.2 143.2 0 136 0 127.2L 0 16C 0 7.19999 7.2 1.52588e-06 16 1.52588e-06L 368.8 1.52588e-06C 377.6 1.52588e-06 384.8 7.19999 384.8 16L 433.6 127.2Z" transform="translate(16 0)" fill="#8E0C19"/>
</g>
<g id="Vector_60">
<path d="M 16 48.8C 16 53.6 12 52.8 8 52.8C 3.2 52.8 4.76837e-08 48.8 4.76837e-08 44.8L 4.76837e-08 7.99999C 4.76837e-08 3.19999 4 -6.10352e-06 8 -6.10352e-06C 12.8 -6.10352e-06 16 3.99999 16 7.99999L 16 48.8Z" transform="translate(3.20001 140)" fill="#DB0940"/>
</g>
<g id="Vector_61">
<path d="M -1.90735e-07 -6.10352e-06C 4.8 -6.10352e-06 8 3.99999 8 7.99999L 8 48.8C 8 53.6 4 52.8 -1.90735e-07 52.8" transform="translate(11.2 140)" fill="#BC043D"/>
</g>
<g id="Group_2">
<g id="Vector_62">
<path d="M 164 85.6L 126.4 -6.10352e-06L 8.80001 -6.10352e-06C 4.00001 -6.10352e-06 -1.2207e-05 4 -1.2207e-05 8.8L -1.2207e-05 76.8C -1.2207e-05 81.6 4.00001 85.6 8.80001 85.6L 161.6 85.6C 161.6 86.4 163.2 85.6 164 85.6Z" transform="translate(276.8 20)" fill="#51859B"/>
</g>
</g>
<g id="Group_3">
<g id="Vector_63">
<path d="M 53.6 -6.10352e-06L 0 53.6L 0 76.8C 0 80.8 3.19999 84 6.39999 85.6L 92 -6.10352e-06L 53.6 -6.10352e-06Z" transform="translate(276 20)" fill="#81B6C9"/>
</g>
<g id="Vector_64">
<path d="M 40 -6.10352e-06L 16 -6.10352e-06L 0 16L 0 40L 40 -6.10352e-06Z" transform="translate(276 20)" fill="#81B6C9"/>
</g>
<g id="Vector_65">
<path d="M -6.10352e-06 27.2L 36 27.2C 36.8 27.2 37.6 27.2 38.4 26.4L 27.2 6.10352e-06L -6.10352e-06 27.2Z" transform="translate(402.4 79.2)" fill="#81B6C9"/>
</g>
<g id="Vector_66">
<path d="M 96 9.6L 92 -6.10352e-06L 86.4 -6.10352e-06L 1.2207e-05 86.4L 19.2 86.4L 96 9.6Z" transform="translate(311.2 20)" fill="#81B6C9"/>
</g>
</g>
<g id="Vector_67">
<path d="M 37.0081 110.608C 37.8081 113.008 36.2081 115.408 33.8081 116.208C 31.4081 117.008 29.0081 115.408 28.2081 113.008L 0.20811 5.8081C -0.59189 3.4081 1.00809 1.0081 3.40809 0.208104C 5.80809 -0.591896 8.2081 1.0081 9.0081 3.4081L 37.0081 110.608Z" transform="translate(369.392 1.39189)" fill="#8E0C19"/>
</g>
<g id="Group_4">
<g id="Vector_68">
<path d="M 24 5.6C 24 8.8 21.6 11.2 18.4 11.2L 5.59999 11.2C 2.39999 11.2 -1.2207e-05 8.8 -1.2207e-05 5.6C -1.2207e-05 2.4 2.39999 -3.05176e-06 5.59999 -3.05176e-06L 18.4 -3.05176e-06C 21.6 -3.05176e-06 24 2.4 24 5.6Z" transform="translate(276.8 120.8)" fill="#BC2B48"/>
</g>
<g id="Vector_69">
<path d="M 14.4 1.6C 14.4 2.4 13.6 3.19999 12.8 3.19999L 1.6 3.19999C 0.800002 3.19999 -7.62939e-07 2.4 -7.62939e-07 1.6C -7.62939e-07 0.800003 0.800002 -3.05176e-06 1.6 -3.05176e-06L 12.8 -3.05176e-06C 13.6 -3.05176e-06 14.4 0.800003 14.4 1.6Z" transform="translate(40.8 120.8)" fill="#BC2B48"/>
</g>
<g id="Vector_70">
<path d="M 14.4 1.60001C 14.4 2.40001 13.6 3.2 12.8 3.2L 1.6 3.2C 0.800002 3.2 -7.62939e-07 2.40001 -7.62939e-07 1.60001C -7.62939e-07 0.800006 0.800002 0 1.6 0L 12.8 0C 13.6 0 14.4 0.800006 14.4 1.60001Z" transform="translate(40.8 129.6)" fill="#BC2B48"/>
</g>
<g id="Vector_71">
<path d="M 14.4 1.59999C 14.4 2.39999 13.6 3.2 12.8 3.2L 1.6 3.2C 0.800002 3.2 -7.62939e-07 2.39999 -7.62939e-07 1.59999C -7.62939e-07 0.799994 0.800002 -1.2207e-05 1.6 -1.2207e-05L 12.8 -1.2207e-05C 13.6 -1.2207e-05 14.4 0.799994 14.4 1.59999Z" transform="translate(40.8 138.4)" fill="#BC2B48"/>
</g>
</g>
<g id="Vector_72">
<path d="M 13.6 40C 13.6 44 10.4 47.2 7.19999 47.2C 3.19999 47.2 1.2207e-05 44 1.2207e-05 40L 1.2207e-05 6.40001C 1.2207e-05 2.40001 3.19999 1.2207e-05 7.19999 1.2207e-05C 11.2 1.2207e-05 13.6 3.20001 13.6 6.40001L 13.6 40Z" transform="translate(483.2 140.8)" fill="#FFA300"/>
</g>
<g id="Vector_73">
<path d="M 7.20001 46.4C 3.20001 46.4 -6.10352e-06 43.2 -6.10352e-06 39.2L -6.10352e-06 6.40001C -6.10352e-06 2.40001 3.20001 1.2207e-05 7.20001 1.2207e-05" transform="translate(482.4 140.8)" fill="#FF7300"/>
</g>
</g>
</g>
</svg>

