<?xml version="1.0" encoding="iso-8859-1"?>
<!-- Generator: Adobe Illustrator 19.0.0, SVG Export Plug-In . SVG Version: 6.00 Build 0)  -->
<svg version="1.1" id="Layer_1" xmlns="http://www.w3.org/2000/svg" xmlns:xlink="http://www.w3.org/1999/xlink" x="0px" y="0px" width="80" height="80"
	 viewBox="0 0 512 512" style="enable-background:new 0 0 512 512;" xml:space="preserve">
<path style="fill:#760200;" d="M463.04,349.13L413.337,512h33.758c27.344,0,49.703-22.37,49.703-49.703V349.15L463.04,349.13z"/>
<path style="fill:#9D0200;" d="M463.04,462.297V349.13l-414.429-0.25l11.253,100.937V512h353.471
	C440.681,512,463.04,489.63,463.04,462.297z"/>
<path style="fill:#C30E0C;" d="M460.575,0h-33.758v375.268h33.758c27.333,0,49.703-22.37,49.703-49.703V49.703
	C510.278,22.37,487.908,0,460.575,0z"/>
<path style="fill:#F13936;" d="M59.865,0C32.532,0,10.161,22.37,10.161,49.703v350.411c0,27.344,22.37,49.703,49.703,49.703h33.758
	l-33.758-37.268v-63.642L93.623,0H59.865z"/>
<path style="fill:#EA1A17;" d="M426.817,0H93.623C66.29,0,43.919,22.37,43.919,49.703v350.411c0,27.344,22.37,49.703,49.703,49.703
	H428.46c10.296,0,18.635-8.338,18.635-18.635c0-10.296-8.338-18.635-18.635-18.635H96.312c-10.285,0-18.635-8.35-18.635-18.646
	c0-10.296,8.35-18.635,18.635-18.635h330.504c27.333,0,49.703-22.37,49.703-49.703V49.703C476.52,22.37,454.15,0,426.817,0z"/>
<g>
	<circle style="fill:#9D0200;" cx="451.201" cy="104.651" r="8.44"/>
	<circle style="fill:#9D0200;" cx="116.623" cy="294.394" r="8.44"/>
	<circle style="fill:#9D0200;" cx="88.492" cy="265.137" r="8.44"/>
</g>
</svg>
