<svg xmlns="http://www.w3.org/2000/svg" xmlns:xlink="http://www.w3.org/1999/xlink" width="496" height="280" version="1.1" viewBox="0 0 496 280"><g id="Canvas" fill="none"><g id="pickup"><g id="Group"><g id="Vector"><path fill="#03263A" d="M 12.8 5.60001C 12.8 6.40001 12 8.00001 10.4 8.00001L 2.4 8.00001C 1.6 8.00001 -3.8147e-07 7.20001 -3.8147e-07 5.60001L -3.8147e-07 2.4C -3.8147e-07 1.6 0.799999 6.10352e-06 2.4 6.10352e-06L 10.4 6.10352e-06C 11.2 6.10352e-06 12.8 0.8 12.8 2.4L 12.8 5.60001Z" transform="translate(26.3999 171.6)"/></g><g id="Vector_2"><path fill="#03263A" d="M 12.8 5.60001C 12.8 6.40001 12 8.00001 10.4 8.00001L 2.4 8.00001C 1.6 8.00001 1.52588e-06 7.20001 1.52588e-06 5.60001L 1.52588e-06 2.4C 1.52588e-06 1.6 0.800003 6.10352e-06 2.4 6.10352e-06L 10.4 6.10352e-06C 11.2 6.10352e-06 12.8 0.8 12.8 2.4L 12.8 5.60001Z" transform="translate(102.4 171.6)"/></g></g><g id="Vector_3"><path fill="#FF8B00" d="M -1.52588e-06 0C 3.2 0 6.4 0 8.8 0L -1.52588e-06 0Z" transform="translate(101.6 174)"/></g><g id="Group_2"><g id="Vector_4"><path fill="#A86F3B" d="M 35.2 0.799994L 0.800006 1.60001C 0.800006 1.60001 3.05176e-06 1.59999 3.05176e-06 0.799994C 3.05176e-06 0.799994 6.07967e-06 6.10352e-06 0.800006 6.10352e-06L 35.2 0.799994C 35.2 -6.13928e-06 35.2 -6.13928e-06 35.2 0.799994Z" transform="translate(152.8 131.6)"/></g><g id="Vector_5"><path fill="#A86F3B" d="M 35.2 0.800006C 35.2 0.800006 35.2 1.60001 35.2 0.800006L 0.800006 1.59999C 0.800006 1.59999 3.05176e-06 1.60001 3.05176e-06 0.800006C 3.05176e-06 0.800006 6.07967e-06 -1.2207e-05 0.800006 -1.2207e-05L 35.2 0.800006C 35.2 0.800006 35.2 6.07967e-06 35.2 0.800006Z" transform="translate(152.8 134.8)"/></g><g id="Vector_6"><path fill="#A86F3B" d="M 35.2 0.799988C 35.2 1.59999 35.2 1.59999 35.2 0.799988L 0.800006 1.60001C 0.800006 1.60001 3.05176e-06 1.59999 3.05176e-06 0.799988C 3.05176e-06 0.799988 6.07967e-06 0 0.800006 0L 35.2 0.799988Z" transform="translate(152.8 138)"/></g><g id="Vector_7"><path fill="#A86F3B" d="M 35.2 0.799994C 35.2 0.799994 34.4 0.799994 35.2 0.799994L 0.799997 1.60001C 0.799997 1.60001 -6.10352e-06 1.59999 -6.10352e-06 0.799994C -6.10352e-06 0.799994 -3.03984e-06 6.10352e-06 0.799997 6.10352e-06L 35.2 0.799994C 35.2 -6.13928e-06 34.4 -6.13928e-06 35.2 0.799994Z" transform="translate(226.4 131.6)"/></g><g id="Vector_8"><path fill="#A86F3B" d="M 35.2 0.800006C 35.2 0.800006 34.4 1.60001 35.2 0.800006L 0.799997 1.59999C 0.799997 1.59999 -6.10352e-06 1.60001 -6.10352e-06 0.800006C -6.10352e-06 0.800006 -3.03984e-06 -1.2207e-05 0.799997 -1.2207e-05L 35.2 0.800006C 35.2 0.800006 34.4 6.07967e-06 35.2 0.800006Z" transform="translate(226.4 134.8)"/></g><g id="Vector_9"><path fill="#A86F3B" d="M 35.2 0.799988C 35.2 1.59999 34.4 1.59999 35.2 0.799988L 0.799997 1.60001C 0.799997 1.60001 -6.10352e-06 1.59999 -6.10352e-06 0.799988C -6.10352e-06 0.799988 -3.03984e-06 0 0.799997 0L 35.2 0.799988C 35.2 0.799988 34.4 0.799988 35.2 0.799988Z" transform="translate(226.4 138)"/></g></g><g id="Vector_10"><path fill="#ADC4C3" d="M 289.6 6.52342C 289.6 9.72342 286.4 12.9234 283.2 12.9234L 6.4 12.9234C 3.2 12.9234 -9.53674e-08 9.72342 -9.53674e-08 6.52342C -9.53674e-08 3.32342 3.2 0.123421 6.4 0.123421L 283.2 0.123421C 286.4 -0.676579 289.6 2.52342 289.6 6.52342Z" transform="translate(5.59995 125.077)"/></g><g id="Vector_11"><path fill="#ADC4C3" d="M 135 6.56208C 135 9.78104 133.508 13 132.017 13L 2.98343 13C 1.49171 13 -4.44565e-08 9.78104 -4.44565e-08 6.56208C -4.44565e-08 3.34311 1.49171 0.124153 2.98343 0.124153L 132.017 0.124153C 133.508 -0.680589 135 2.53837 135 6.56208Z" transform="matrix(0 -1 1 0 276 135)"/></g><g id="Vector_12"><path fill="#3F51B5" d="M 477.6 140.8C 477.6 134.4 472 128.8 465.6 128.8L 430.4 128.8L 388 32.8C 388 24 380.8 16.8 372 16.8L 370.4 16.8C 370.4 8.00001 363.2 0 353.6 0C 325.606 0 312.222 0.100082 284.6 0.100082C 284.17 0.100082 280.8 -0.00458759 280.8 0.162582C 280.8 0.329752 280.8 8.10008 280.8 8.10008L 280.8 131.2L 4.8 131.2C 1.6 133.6 0 136.8 0 140.8L 0 219.2C 0 225.6 5.6 231.2 12 231.2L 473.6 231.2C 480 231.2 485.6 225.6 485.6 219.2L 477.6 140.8Z" transform="translate(6.39993 4.39996)"/></g><g id="Vector_13"><path fill="#324298" d="M 9.53674e-08 40.8C 9.53674e-08 47.2 5.6 52.8 12 52.8L 473.6 52.8C 480 52.8 485.6 47.2 485.6 40.8L 481.6 -1.2207e-05L 9.53674e-08 -1.2207e-05L 9.53674e-08 40.8Z" transform="translate(6.39993 182.8)"/></g><g id="Vector_14"><path fill="#DB0940" d="M 16 48C 16 52.8 12 52 8 52C 3.2 52 4.76837e-08 48.8 4.76837e-08 44L 4.76837e-08 7.99999C 4.76837e-08 3.19999 3.2 -1.2207e-05 8 -1.2207e-05C 12.8 -1.2207e-05 16 3.99999 16 7.99999L 16 48Z" transform="translate(3.19995 158.8)"/></g><g id="Vector_15"><path fill="#BC043D" d="M -1.90735e-07 -1.2207e-05C 4.8 -1.2207e-05 8 3.99999 8 7.99999L 8 48C 8 52.8 4 52 -1.90735e-07 52" transform="translate(11.1999 158.8)"/></g><g id="Vector_16"><path fill="#ADC4C3" d="M 496 12.8C 496 17.6 492 20.8 488 20.8L 8 20.8C 3.2 20.8 0 17.6 0 12.8L 0 7.99999C 0 3.19999 4 -1.2207e-05 8 -1.2207e-05L 488 -1.2207e-05C 492.8 -1.2207e-05 496 3.99999 496 7.99999L 496 12.8Z" transform="translate(-6.10352e-05 226.8)"/></g><g id="Vector_17"><path fill="#000" d="M -1.52588e-06 49.6C -1.52588e-06 22.4 22.4 6.10352e-06 49.6 6.10352e-06C 76.8 6.10352e-06 99.2 22.4 99.2 49.6" transform="translate(49.5999 183.6)"/></g><g id="Vector_18"><path fill="#ADC4C3" d="M 104 52L 100 52C 100 25.6 78.4 4.00001 52 4.00001C 25.6 4.00001 4 25.6 4 52L 7.62939e-07 52C 7.62939e-07 23.2 23.2 1.2207e-05 52 1.2207e-05C 80.8 1.2207e-05 104 23.2 104 52Z" transform="translate(47.1999 181.2)"/></g><g id="Vector_19"><path fill="#203547" d="M 44.8 89.6C 69.5424 89.6 89.6 69.5423 89.6 44.8C 89.6 20.0576 69.5424 0 44.8 0C 20.0576 0 0 20.0576 0 44.8C 0 69.5423 20.0576 89.6 44.8 89.6Z" transform="translate(54.3999 190)"/></g><g id="Vector_20"><path fill="#122130" d="M 63.2 6.10352e-06C 80.8 17.6 80.8 45.6 63.2 63.2C 45.6 80.8 17.6 80.8 0 63.2" transform="translate(67.9999 203.6)"/></g><g id="Vector_21"><path fill="#6E7577" d="M 28 56C 43.464 56 56 43.464 56 28C 56 12.536 43.464 -1.2207e-05 28 -1.2207e-05C 12.536 -1.2207e-05 -3.05176e-06 12.536 -3.05176e-06 28C -3.05176e-06 43.464 12.536 56 28 56Z" transform="translate(71.1999 206.8)"/></g><g id="Vector_22"><path fill="#4C5456" d="M 40 -1.2207e-05C 51.2 11.2 51.2 28.8 40 40C 28.8 51.2 11.2 51.2 -3.05176e-06 40" transform="translate(79.1999 214.8)"/></g><g id="Vector_23"><path fill="#CED8DD" d="M 24.8 49.6C 38.4967 49.6 49.6 38.4967 49.6 24.8C 49.6 11.1033 38.4967 0 24.8 0C 11.1033 0 0 11.1033 0 24.8C 0 38.4967 11.1033 49.6 24.8 49.6Z" transform="translate(74.3999 210)"/></g><g id="Vector_24"><path fill="#B2BBC1" d="M 35.2 1.2207e-05C 44.8 9.60001 44.8 25.6 35.2 35.2C 25.6 44.8 9.6 44.8 -1.52588e-06 35.2" transform="translate(81.5999 217.2)"/></g><g id="Vector_25" opacity=".2"><path fill="#888F91" d="M 22.4 11.2C 22.4 17.6 17.6 24.8 11.2 24.8C 4.8 24.8 0 17.6 0 11.2C 0 4.79999 4.8 6.10352e-06 11.2 6.10352e-06C 17.6 6.10352e-06 22.4 4.79999 22.4 11.2Z" transform="translate(87.9999 223.6)"/></g><g id="Vector_26"><path fill="#E7EFF2" d="M 22.4 11.2C 22.4 17.6 17.6 22.4 11.2 22.4C 4.8 22.4 0 17.6 0 11.2C 0 4.79999 4.8 6.10352e-06 11.2 6.10352e-06C 17.6 6.10352e-06 22.4 4.79999 22.4 11.2Z" transform="translate(87.9999 223.6)"/></g><g id="Vector_27"><path fill="#DAE6EA" d="M -3.05176e-06 6.10352e-06C 6.4 6.10352e-06 11.2 4.79999 11.2 11.2C 11.2 17.6 6.4 22.4 -3.05176e-06 22.4" transform="translate(99.1999 223.6)"/></g><g id="Vector_28"><path fill="#666E70" d="M 3.2 0C 2.4 0 0.8 0 0 0C 0.8 3.2 1.6 6.39999 3.2 6.39999C 4.8 6.39999 6.4 4 6.4 0C 5.6 0 4 0 3.2 0Z" transform="translate(95.9999 210)"/></g><g id="Vector_29"><path fill="#535A5B" d="M -3.05176e-06 6.39999C 1.6 6.39999 3.2 4 3.2 0C 2.4 0 0.799997 0 -3.05176e-06 0" transform="translate(99.1999 210)"/></g><g id="Vector_30"><path fill="#666E70" d="M 0 6.40001C 2.4 6.40001 4.8 6.40001 6.4 6.40001C 5.6 3.20001 4.8 1.2207e-05 3.2 1.2207e-05C 1.6 1.2207e-05 0.8 2.40001 0 6.40001Z" transform="translate(95.9999 253.2)"/></g><g id="Vector_31"><path fill="#535A5B" d="M 3.2 6.40001C 2.4 3.20001 1.6 1.2207e-05 -3.05176e-06 1.2207e-05Z" transform="translate(99.1999 253.2)"/></g><g id="Vector_32"><path fill="#666E70" d="M 0 4.79999C 3.2 7.19999 5.6 8 6.4 6.4C 7.2 5.6 6.4 2.40001 4.8 6.10352e-06C 2.4 0.800006 0.8 2.39999 0 4.79999Z" transform="translate(79.9999 215.6)"/></g><g id="Vector_33"><path fill="#535A5B" d="M 1.6 6.4C 2.4 5.6 1.6 2.40001 3.05176e-06 6.10352e-06Z" transform="translate(84.7999 215.6)"/></g><g id="Vector_34"><path fill="#666E70" d="M 6.71384 2.43241C 3.51384 0.0324147 1.11385 -0.767591 0.313847 0.832409C -0.486153 1.63241 0.313845 4.8324 1.91385 7.2324C 2.71385 6.4324 3.51385 5.63241 4.31385 4.83241C 5.11385 4.03241 5.91384 3.23241 6.71384 2.43241Z" transform="translate(112.486 247.568)"/></g><g id="Vector_35"><path fill="#535A5B" d="M 4 4.83241C 4.8 4.03241 5.6 3.23241 6.4 2.43241C 3.2 0.0324147 0.800003 -0.767591 3.05176e-06 0.832409" transform="translate(112.8 247.568)"/></g><g id="Vector_36"><path fill="#666E70" d="M 0.599997 6.4C 3.8 5.6 7 4.79999 7 3.19999C 7 1.59999 4.6 6.10352e-06 0.599997 6.10352e-06C 0.599997 0.800006 0.599997 2.39999 0.599997 3.19999C -0.200003 4.79999 -0.200003 5.6 0.599997 6.4Z" transform="translate(74.5999 231.6)"/></g><g id="Vector_37"><path fill="#535A5B" d="M 6.4 3.19999C 6.4 1.59999 4 6.10352e-06 1.52588e-06 6.10352e-06C 1.52588e-06 0.800006 1.52588e-06 2.39999 1.52588e-06 3.19999" transform="translate(74.3999 231.6)"/></g><g id="Vector_38"><path fill="#666E70" d="M -1.52588e-06 3.19999C -1.52588e-06 4.79999 2.4 6.4 6.4 6.4C 6.4 4 6.4 1.60001 6.4 6.10352e-06C 2.4 0.800006 -1.52588e-06 1.59999 -1.52588e-06 3.19999Z" transform="translate(117.6 231.6)"/></g><g id="Vector_39"><path fill="#535A5B" d="M 6.4 6.10352e-06C 3.2 0.800006 -1.52588e-06 1.59999 -1.52588e-06 3.19999Z" transform="translate(117.6 231.6)"/></g><g id="Vector_40"><path fill="#666E70" d="M 0 2.43241C 1.6 4.03241 3.2 5.6324 4.8 7.2324C 7.2 4.0324 8 1.63241 6.4 0.832409C 5.6 -0.767591 2.4 0.0324147 0 2.43241Z" transform="translate(79.9999 247.568)"/></g><g id="Vector_41"><path fill="#535A5B" d="M 0 6.39999C 2.4 3.19999 3.2 0.799994 1.6 -6.10352e-06Z" transform="translate(83.9999 248.4)"/></g><g id="Vector_42"><path fill="#666E70" d="M 2.43242 6.10352e-06C 0.0324161 3.20001 -0.767582 5.6 0.832418 6.4C 1.63242 7.2 4.83241 6.39999 7.23241 4.79999C 5.63241 2.39999 4.03242 0.800006 2.43242 6.10352e-06Z" transform="translate(111.968 215.6)"/></g><g id="Vector_43"><path fill="#535A5B" d="M 2.43242 6.10352e-06C 0.0324161 3.20001 -0.767582 5.6 0.832418 6.4Z" transform="translate(111.968 215.6)"/></g><g id="Vector_44"><path fill="#000" d="M 0 49.6C 0 22.4 22.4 6.10352e-06 49.6 6.10352e-06C 76.8 6.10352e-06 99.2 22.4 99.2 49.6" transform="translate(344 183.6)"/></g><g id="Vector_45"><path fill="#ADC4C3" d="M 104 52L 100 52C 100 25.6 78.4 4.00001 52 4.00001C 25.6 4.00001 4.00001 25.6 4.00001 52L 6.10352e-06 52C 6.10352e-06 23.2 23.2 1.2207e-05 52 1.2207e-05C 80.8 1.2207e-05 104 23.2 104 52Z" transform="translate(341.6 181.2)"/></g><g id="Vector_46"><path fill="#203547" d="M 44.8 89.6C 69.5424 89.6 89.6 69.5423 89.6 44.8C 89.6 20.0576 69.5424 0 44.8 0C 20.0576 0 6.10352e-06 20.0576 6.10352e-06 44.8C 6.10352e-06 69.5423 20.0576 89.6 44.8 89.6Z" transform="translate(349.6 190)"/></g><g id="Vector_47"><path fill="#122130" d="M 63.2 6.10352e-06C 80.8 17.6 80.8 45.6 63.2 63.2C 45.6 80.8 17.6 80.8 -6.10352e-06 63.2" transform="translate(362.4 203.6)"/></g><g id="Vector_48"><path fill="#6E7577" d="M 28 56C 43.464 56 56 43.464 56 28C 56 12.536 43.464 -1.2207e-05 28 -1.2207e-05C 12.536 -1.2207e-05 -6.10352e-06 12.536 -6.10352e-06 28C -6.10352e-06 43.464 12.536 56 28 56Z" transform="translate(366.4 206.8)"/></g><g id="Vector_49"><path fill="#4C5456" d="M 40 -1.2207e-05C 51.2 11.2 51.2 28.8 40 40C 28.8 51.2 11.2 51.2 6.10352e-06 40" transform="translate(373.6 214.8)"/></g><g id="Vector_50"><path fill="#CED8DD" d="M 24.8 49.6C 38.4967 49.6 49.6 38.4967 49.6 24.8C 49.6 11.1033 38.4967 0 24.8 0C 11.1033 0 6.10352e-06 11.1033 6.10352e-06 24.8C 6.10352e-06 38.4967 11.1033 49.6 24.8 49.6Z" transform="translate(369.6 210)"/></g><g id="Vector_51"><path fill="#B2BBC1" d="M 35.2 1.2207e-05C 44.8 9.60001 44.8 25.6 35.2 35.2C 25.6 44.8 9.6 44.8 0 35.2" transform="translate(376 217.2)"/></g><g id="Vector_52" opacity=".2"><path fill="#888F91" d="M 22.4 11.2C 22.4 17.6 17.6 24.8 11.2 24.8C 4.79999 24.8 1.2207e-05 17.6 1.2207e-05 11.2C 1.2207e-05 4.79999 4.79999 6.10352e-06 11.2 6.10352e-06C 16.8 6.10352e-06 22.4 4.79999 22.4 11.2Z" transform="translate(383.2 223.6)"/></g><g id="Vector_53"><path fill="#E7EFF2" d="M 22.4 11.2C 22.4 17.6 17.6 22.4 11.2 22.4C 4.79999 22.4 1.2207e-05 17.6 1.2207e-05 11.2C 1.2207e-05 4.79999 4.79999 6.10352e-06 11.2 6.10352e-06C 16.8 6.10352e-06 22.4 4.79999 22.4 11.2Z" transform="translate(383.2 223.6)"/></g><g id="Vector_54"><path fill="#DAE6EA" d="M -6.10352e-06 6.10352e-06C 6.39999 6.10352e-06 11.2 4.79999 11.2 11.2C 11.2 17.6 6.39999 22.4 -6.10352e-06 22.4" transform="translate(394.4 223.6)"/></g><g id="Vector_55"><path fill="#666E70" d="M 3.19999 0C 2.39999 0 0.800012 0 1.2207e-05 0C 0.800012 3.2 1.59999 6.39999 3.19999 6.39999C 4.79999 6.39999 6.40001 4 6.40001 0C 4.80001 0 3.99999 0 3.19999 0Z" transform="translate(391.2 210)"/></g><g id="Vector_56"><path fill="#535A5B" d="M -6.10352e-06 6.39999C 1.59999 6.39999 3.20001 4 3.20001 0C 2.40001 0 0.799994 0 -6.10352e-06 0" transform="translate(394.4 210)"/></g><g id="Vector_57"><path fill="#666E70" d="M -6.10352e-06 6.40001C 2.39999 6.40001 4.79999 6.40001 6.39999 6.40001C 5.59999 3.20001 4.80001 1.2207e-05 3.20001 1.2207e-05C 2.40001 1.2207e-05 0.799994 2.40001 -6.10352e-06 6.40001Z" transform="translate(390.4 253.2)"/></g><g id="Vector_58"><path fill="#535A5B" d="M 3.20001 6.40001C 2.40001 3.20001 1.59999 1.2207e-05 -6.10352e-06 1.2207e-05Z" transform="translate(394.4 253.2)"/></g><g id="Vector_59"><path fill="#666E70" d="M -6.10352e-06 4.79999C 3.19999 7.19999 5.59999 8 6.39999 6.4C 7.19999 5.6 6.40001 2.40001 4.80001 6.10352e-06C 3.20001 0.800006 1.59999 2.39999 -6.10352e-06 4.79999Z" transform="translate(374.4 215.6)"/></g><g id="Vector_60"><path fill="#535A5B" d="M 1.59999 6.4C 2.39999 5.6 1.60001 2.40001 1.2207e-05 6.10352e-06Z" transform="translate(379.2 215.6)"/></g><g id="Vector_61"><path fill="#666E70" d="M 6.71385 2.43241C 3.51385 0.0324147 1.11386 -0.767591 0.313856 0.832409C -0.486144 1.63241 0.313832 4.8324 1.91383 7.2324C 2.71383 6.4324 3.51386 5.63241 4.31386 4.83241C 5.11386 4.03241 5.91385 3.23241 6.71385 2.43241Z" transform="translate(406.886 247.568)"/></g><g id="Vector_62"><path fill="#535A5B" d="M 4.00001 4.83241C 4.80001 4.03241 5.60001 3.23241 6.40001 2.43241C 3.20001 0.0324147 0.800012 -0.767591 1.2207e-05 0.832409" transform="translate(407.2 247.568)"/></g><g id="Vector_63"><path fill="#666E70" d="M 6.10352e-06 6.4C 3.20001 5.6 6.4 4.79999 6.4 3.19999C 6.4 1.59999 4.00001 6.10352e-06 6.10352e-06 6.10352e-06C 6.10352e-06 0.800006 6.10352e-06 2.39999 6.10352e-06 3.19999C 6.10352e-06 4.79999 6.10352e-06 5.6 6.10352e-06 6.4Z" transform="translate(369.6 231.6)"/></g><g id="Vector_64"><path fill="#535A5B" d="M 6.4 3.19999C 6.4 1.59999 4.00001 6.10352e-06 6.10352e-06 6.10352e-06C 6.10352e-06 0.800006 6.10352e-06 2.39999 6.10352e-06 3.19999" transform="translate(369.6 231.6)"/></g><g id="Vector_65"><path fill="#666E70" d="M 0 3.19999C 0 4.79999 2.39999 6.4 6.39999 6.4C 6.39999 4 6.39999 1.60001 6.39999 6.10352e-06C 3.19999 0.800006 0 1.59999 0 3.19999Z" transform="translate(412 231.6)"/></g><g id="Vector_66"><path fill="#535A5B" d="M 6.39999 6.10352e-06C 3.19999 0.800006 0 1.59999 0 3.19999Z" transform="translate(412 231.6)"/></g><g id="Vector_67"><path fill="#666E70" d="M -6.10352e-06 2.43241C 1.59999 4.03241 3.20001 5.6324 4.80001 7.2324C 7.20001 4.0324 7.99999 1.63241 6.39999 0.832409C 5.59999 -0.767591 3.19999 0.0324147 -6.10352e-06 2.43241Z" transform="translate(374.4 247.568)"/></g><g id="Vector_68"><path fill="#535A5B" d="M 1.2207e-05 6.39999C 2.40001 3.19999 3.19999 0.799994 1.59999 -6.10352e-06Z" transform="translate(379.2 248.4)"/></g><g id="Vector_69"><path fill="#666E70" d="M 2.4324 6.10352e-06C 0.0324023 3.20001 -0.767573 5.6 0.832427 6.4C 1.63243 7.2 4.83242 6.39999 7.23242 4.79999C 5.63242 2.39999 4.0324 0.800006 2.4324 6.10352e-06Z" transform="translate(406.368 215.6)"/></g><g id="Vector_70"><path fill="#535A5B" d="M 2.4324 6.10352e-06C 0.0324023 3.20001 -0.767573 5.6 0.832427 6.4Z" transform="translate(406.368 215.6)"/></g><g id="Vector_71"><path fill="#51859B" d="M 130.4 84L 93.6 -3.05176e-06L 8.8 -3.05176e-06C 4 -3.05176e-06 1.2207e-05 4 1.2207e-05 8.8L 1.2207e-05 76C 1.2207e-05 80.8 4 84.8 8.8 84.8L 128 84.8C 128.8 84 129.6 84 130.4 84Z" transform="translate(303.2 41.2)"/></g><g id="Group_3"><g id="Vector_72"><path fill="#81B6C9" d="M 39.2 -3.05176e-06L 16 -3.05176e-06L -6.10352e-06 15.2L -6.10352e-06 38.4L 39.2 -3.05176e-06Z" transform="translate(302.4 41.2)"/></g><g id="Vector_73"><path fill="#81B6C9" d="M 0 26.4L 35.2 26.4C 36 26.4 36.8 26.4 37.6 25.6L 26.4 3.05176e-06L 0 26.4Z" transform="translate(396 98.8)"/></g></g><g id="Vector_74"><path fill="#3F51B5" d="M 36.2081 109.008C 37.0081 111.408 35.4081 113.808 33.0081 114.608C 30.6081 115.408 28.2081 113.808 27.4081 111.408L 0.208104 5.80811C -0.591896 3.40811 1.00812 1.0081 3.40812 0.208104C 5.80812 -0.591896 8.20809 1.0081 9.00809 3.4081L 36.2081 109.008Z" transform="translate(363.792 21.7919)"/></g><g id="Vector_75"><path fill="#324298" d="M 24 5.60001C 24 8.80001 21.6 11.2 18.4 11.2L 5.60001 11.2C 2.40001 11.2 6.10352e-06 8.80001 6.10352e-06 5.60001C 6.10352e-06 2.40001 2.40001 6.10352e-06 5.60001 6.10352e-06L 18.4 6.10352e-06C 21.6 0.800006 24 3.20001 24 5.60001Z" transform="translate(301.6 139.6)"/></g><g id="Group_4"><g id="Vector_76"><path fill="#3F51B5" d="M 13.6 1.59999C 13.6 2.39999 12.8 3.19999 12 3.19999L 1.6 3.19999C 0.800003 3.19999 -3.05176e-06 2.39999 -3.05176e-06 1.59999C -3.05176e-06 0.799988 0.800003 1.2207e-05 1.6 1.2207e-05L 12 1.2207e-05C 12.8 1.2207e-05 13.6 0.799988 13.6 1.59999Z" transform="translate(163.2 193.2)"/></g><g id="Vector_77"><path fill="#3F51B5" d="M 13.6 1.60001C 13.6 2.40001 12.8 3.20001 12 3.20001L 1.6 3.20001C 0.800003 3.20001 -3.05176e-06 2.40001 -3.05176e-06 1.60001C -3.05176e-06 0.800006 0.800003 0 1.6 0L 12 0C 12.8 0 13.6 0.800006 13.6 1.60001Z" transform="translate(163.2 202)"/></g><g id="Vector_78"><path fill="#3F51B5" d="M 13.6 1.59999C 13.6 2.39999 12.8 3.2 12 3.2L 1.6 3.2C 0.800003 3.2 -3.05176e-06 2.39999 -3.05176e-06 1.59999C -3.05176e-06 0.799994 0.800003 -1.2207e-05 1.6 -1.2207e-05L 12 -1.2207e-05C 12.8 -1.2207e-05 13.6 0.799994 13.6 1.59999Z" transform="translate(163.2 210.8)"/></g></g><g id="Vector_79"><path fill="#FFA300" d="M 12.8 39.2C 12.8 43.2 9.59999 45.6 6.39999 45.6C 2.39999 45.6 0 42.4 0 39.2L 0 6.4C 0 2.4 3.19999 6.10352e-06 6.39999 6.10352e-06C 10.4 6.10352e-06 12.8 3.2 12.8 6.4L 12.8 39.2Z" transform="translate(476 159.6)"/></g><g id="Vector_80"><path fill="#FF7300" d="M 6.40001 45.6C 2.40001 45.6 1.2207e-05 42.4 1.2207e-05 39.2L 1.2207e-05 6.4C 1.2207e-05 2.4 3.20001 6.10352e-06 6.40001 6.10352e-06" transform="translate(475.2 159.6)"/></g></g></g></svg>