<svg width="496" height="233" viewBox="0 0 496 233" version="1.1" xmlns="http://www.w3.org/2000/svg" xmlns:xlink="http://www.w3.org/1999/xlink">
<g id="Canvas" fill="none">
<g id="truck">
<g id="Vector">
<path d="M 256 28C 256 32 252.8 36 248 36L 8 36C 4 36 0 32.8 0 28L 0 7.99999C 0 3.99999 3.2 -1.2207e-05 8 -1.2207e-05L 248 -1.2207e-05C 252 -1.2207e-05 256 3.19999 256 7.99999L 256 28Z" transform="translate(36 175.2)" fill="#7A8A89"/>
</g>
<g id="Vector_2">
<path d="M 358.4 187.2C 358.4 191.2 355.2 194.4 351.2 194.4L 7.2 194.4C 3.2 194.4 0 191.2 0 187.2L 0 7.2C 0 3.2 3.2 6.10352e-06 7.2 6.10352e-06L 351.2 6.10352e-06C 355.2 6.10352e-06 358.4 3.2 358.4 7.2L 358.4 187.2Z" transform="translate(8 0)" fill="#1E275C"/>
</g>
<g id="Vector_3">
<path d="M 351.2 -6.10352e-06L 7.2 -6.10352e-06C 3.2 -6.10352e-06 -1.90735e-07 3.20001 -1.90735e-07 7.20001L -1.90735e-07 166.4C -1.90735e-07 170.4 3.2 173.6 7.2 173.6L 351.2 173.6C 355.2 173.6 358.4 170.4 358.4 166.4L 358.4 7.20001C 359.2 3.20001 356 -6.10352e-06 351.2 -6.10352e-06Z" transform="translate(7.2 20.8)" fill="#263274"/>
</g>
<g id="Vector_4">
<path d="M -1.90735e-07 3.05176e-06L -1.90735e-07 64C -1.90735e-07 68 3.2 71.2 7.2 71.2L 351.2 71.2C 355.2 71.2 358.4 68 358.4 64L 358.4 3.05176e-06L -1.90735e-07 3.05176e-06Z" transform="translate(7.2 123.2)" fill="#1E275C"/>
</g>
<g id="Vector_5">
<path d="M 116 172.8C 116 176.8 112.8 180 108.8 180L 7.20001 180C 3.20001 180 0 176.8 0 172.8L 0 12C 0 7.99999 0.8 -6.10352e-06 4 -6.10352e-06L 102.4 4.8C 106.4 4.8 115.2 36.8 115.2 40.8L 115.2 172.8L 116 172.8L 116 172.8Z" transform="translate(372 8.79999)" fill="#3F51B5"/>
</g>
<g id="Vector_6">
<path d="M 116 168C 116 172 112.8 175.2 108.8 175.2L 7.20001 175.2C 3.20001 175.2 0 172 0 168L 28 16.8C 28 12.8 28.8 4.8 32 4.8L 102.4 -3.05176e-06C 106.4 -3.05176e-06 115.2 32 115.2 36L 115.2 168L 116 168Z" transform="translate(372 13.6)" fill="#3F51B5"/>
</g>
<g id="Vector_7">
<path d="M 0 3.05176e-06L 0 57.6C 0 61.6 3.20001 64.8 7.20001 64.8L 108.8 64.8C 112.8 64.8 116 61.6 116 57.6L 116 3.05176e-06L 0 3.05176e-06L 0 3.05176e-06Z" transform="translate(372 123.2)" fill="#324298"/>
</g>
<g id="Vector_8">
<path d="M 496 7.2C 496 11.2 492.8 14.4 488.8 14.4L 7.2 14.4C 3.2 14.4 0 11.2 0 7.2C 0 3.2 3.2 -1.2207e-05 7.2 -1.2207e-05L 489.6 -1.2207e-05C 492.8 0.799988 496 4 496 7.2Z" transform="translate(0 183.2)" fill="#ADC4C3"/>
</g>
<g id="Vector_9">
<path d="M -7.62939e-07 36C -7.62939e-07 16 16 0 36 0C 56 0 72 16 72 36" transform="translate(24.8 162.4)" fill="black"/>
</g>
<g id="Vector_10">
<path d="M 75.2 37.6L 72 37.6C 72 18.4 56.8 3.20001 37.6 3.20001C 18.4 3.20001 3.2 18.4 3.2 37.6L 7.62939e-07 37.6C 7.62939e-07 16.8 16.8 -6.10352e-06 37.6 -6.10352e-06C 58.4 -6.10352e-06 75.2 16.8 75.2 37.6Z" transform="translate(23.2 160.8)" fill="#8E8E8E"/>
</g>
<g id="Vector_11">
<path d="M 32.8 65.6C 50.9149 65.6 65.6 50.9149 65.6 32.8C 65.6 14.6851 50.9149 -1.2207e-05 32.8 -1.2207e-05C 14.6851 -1.2207e-05 0 14.6851 0 32.8C 0 50.9149 14.6851 65.6 32.8 65.6Z" transform="translate(28 167.2)" fill="#203547"/>
</g>
<g id="Vector_12">
<path d="M 46.4 -6.10352e-06C 59.2 12.8 59.2 33.6 46.4 46.4C 33.6 59.2 12.8 59.2 -1.52588e-06 46.4" transform="translate(37.6 176.8)" fill="#122130"/>
</g>
<g id="Vector_13">
<path d="M 20.8 41.6C 32.2875 41.6 41.6 32.2875 41.6 20.8C 41.6 9.31248 32.2875 -1.2207e-05 20.8 -1.2207e-05C 9.31248 -1.2207e-05 0 9.31248 0 20.8C 0 32.2875 9.31248 41.6 20.8 41.6Z" transform="translate(40 179.2)" fill="#666E70"/>
</g>
<g id="Vector_14">
<path d="M 28.8 1.2207e-05C 36.8 8.00001 36.8 20.8 28.8 28.8C 20.8 36.8 8 36.8 1.52588e-06 28.8" transform="translate(46.4 185.6)" fill="#666E70"/>
</g>
<g id="Vector_15">
<path d="M 17.6 35.2C 27.3202 35.2 35.2 27.3202 35.2 17.6C 35.2 7.87979 27.3202 0 17.6 0C 7.87979 0 0 7.87979 0 17.6C 0 27.3202 7.87979 35.2 17.6 35.2Z" transform="translate(43.2 182.4)" fill="#CED8DD"/>
</g>
<g id="Vector_16">
<path d="M 25.6 -1.2207e-05C 32.8 7.19999 32.8 18.4 25.6 25.6C 18.4 32.8 7.2 32.8 0 25.6" transform="translate(48 187.2)" fill="#B2BBC1"/>
</g>
<g id="Vector_17" opacity="0.2">
<path d="M 16 8.00001C 16 12.8 12 17.6 8 17.6C 3.2 17.6 -7.62939e-07 12.8 -7.62939e-07 8.00001C -7.62939e-07 3.20001 4 6.10352e-06 8 6.10352e-06C 12.8 6.10352e-06 16 3.20001 16 8.00001Z" transform="translate(52.8 192)" fill="#888F91"/>
</g>
<g id="Vector_18">
<path d="M 8 16C 12.4183 16 16 12.4183 16 8.00001C 16 3.58173 12.4183 6.10352e-06 8 6.10352e-06C 3.58172 6.10352e-06 0 3.58173 0 8.00001C 0 12.4183 3.58172 16 8 16Z" transform="translate(52.8 192)" fill="#E7EFF2"/>
</g>
<g id="Vector_19">
<path d="M -7.62939e-07 6.10352e-06C 4.8 6.10352e-06 8 4.00001 8 8.00001C 8 12.8 4 16 -7.62939e-07 16" transform="translate(60.8 192)" fill="#DAE6EA"/>
</g>
<g id="Vector_20">
<path d="M 2.4 0C 1.6 0 0.800002 0 1.52588e-06 0C 1.52588e-06 2.4 1.6 4.79999 2.4 4.79999C 3.2 4.79999 4.8 3.2 4.8 0C 4 0 3.2 0 2.4 0Z" transform="translate(58.4 182.4)" fill="#666E70"/>
</g>
<g id="Vector_21">
<path d="M -7.62939e-07 4.8C 0.799999 4.8 2.4 3.20001 2.4 1.2207e-05C 1.6 1.2207e-05 0.799999 1.2207e-05 -7.62939e-07 1.2207e-05" transform="translate(60.8 181.6)" fill="#535A5B"/>
</g>
<g id="Vector_22">
<path d="M 1.52588e-06 4.80001C 1.6 4.80001 3.2 4.80001 4.8 4.80001C 4.8 2.40001 3.2 -6.10352e-06 2.4 -6.10352e-06C 1.6 -6.10352e-06 1.52588e-06 2.40001 1.52588e-06 4.80001Z" transform="translate(58.4 212.8)" fill="#666E70"/>
</g>
<g id="Vector_23">
<path d="M 2.4 4.80001C 2.4 2.40001 0.799999 -6.10352e-06 -7.62939e-07 -6.10352e-06Z" transform="translate(60.8 212.8)" fill="#535A5B"/>
</g>
<g id="Vector_24">
<path d="M 1.52588e-06 3.20001C 2.4 4.80001 4 5.59999 4.8 4.79999C 5.6 3.99999 4.8 2.4 3.2 0C 2.4 0 0.800002 1.60001 1.52588e-06 3.20001Z" transform="translate(46.4 186.4)" fill="#666E70"/>
</g>
<g id="Vector_25">
<path d="M 1.6 4.8C 2.4 4 1.6 2.40001 -1.52588e-06 1.2207e-05Z" transform="translate(49.6 185.6)" fill="#535A5B"/>
</g>
<g id="Vector_26">
<path d="M 5.11384 1.91383C 2.71384 0.313832 1.11385 -0.486144 0.313845 0.313856C -0.486155 1.11386 0.313844 2.71384 1.91384 5.11384C 2.71384 4.31384 3.51384 4.31384 3.51384 3.51384C 3.51384 2.71384 4.31384 1.91383 5.11384 1.91383Z" transform="translate(70.0862 209.286)" fill="#666E70"/>
</g>
<g id="Vector_27">
<path d="M 3.2 3.51384C 4 2.71384 4 1.91383 4.8 1.91383C 2.4 0.313832 0.800002 -0.486144 1.52588e-06 0.313856" transform="translate(70.4 209.286)" fill="#535A5B"/>
</g>
<g id="Vector_28">
<path d="M 0.355556 4.8C 2.75556 4.8 5.15556 3.20001 5.15556 2.40001C 5.15556 1.60001 3.55556 1.2207e-05 0.355556 1.2207e-05C 0.355556 0.800012 0.355556 1.60001 0.355556 2.40001C 0.355556 3.20001 -0.444444 4 0.355556 4.8Z" transform="translate(42.8445 197.6)" fill="#666E70"/>
</g>
<g id="Vector_29">
<path d="M 4.8 2.40001C 4.8 1.60001 3.2 1.2207e-05 1.52588e-06 1.2207e-05C 1.52588e-06 0.800012 1.52588e-06 1.60001 1.52588e-06 2.40001" transform="translate(42.4 197.6)" fill="#535A5B"/>
</g>
<g id="Vector_30">
<path d="M -1.52588e-06 2.40001C -1.52588e-06 3.20001 1.6 4.8 4.8 4.8C 4.8 3.2 4.8 1.60001 4.8 1.2207e-05C 2.4 0.800012 -1.52588e-06 1.60001 -1.52588e-06 2.40001Z" transform="translate(73.6 197.6)" fill="#666E70"/>
</g>
<g id="Vector_31">
<path d="M 4.8 1.2207e-05C 2.4 1.2207e-05 -1.52588e-06 1.60001 -1.52588e-06 2.40001Z" transform="translate(73.6 197.6)" fill="#535A5B"/>
</g>
<g id="Vector_32">
<path d="M 1.52588e-06 1.91383C 0.800002 3.51383 2.4 4.31384 3.2 5.11384C 4.8 2.71384 5.6 1.11386 4.8 0.313856C 4 -0.486144 2.4 0.313832 1.52588e-06 1.91383Z" transform="translate(46.4 209.286)" fill="#666E70"/>
</g>
<g id="Vector_33">
<path d="M -1.52588e-06 4.8C 1.6 2.4 2.4 0.800012 1.6 1.2207e-05Z" transform="translate(49.6 209.6)" fill="#535A5B"/>
</g>
<g id="Vector_34">
<path d="M 1.91384 1.2207e-05C 0.313841 2.40001 -0.486158 4 0.313842 4.8C 1.11384 5.6 3.51385 4.79999 5.11385 3.19999C 4.31385 2.39999 3.51384 0.800012 1.91384 1.2207e-05Z" transform="translate(69.2862 185.6)" fill="#666E70"/>
</g>
<g id="Vector_35">
<path d="M 1.91384 1.2207e-05C 0.313841 2.40001 -0.486158 4 0.313842 4.8Z" transform="translate(69.2862 185.6)" fill="#535A5B"/>
</g>
<g id="Vector_36">
<path d="M 3.05176e-06 36C 3.05176e-06 16 16 0 36 0C 56 0 72 16 72 36" transform="translate(108.8 162.4)" fill="black"/>
</g>
<g id="Vector_37">
<path d="M 75.2 37.6L 72 37.6C 72 18.4 56.8 3.20001 37.6 3.20001C 18.4 3.20001 3.2 18.4 3.2 37.6L 0 37.6C 0 16.8 16.8 -6.10352e-06 37.6 -6.10352e-06C 58.4 -6.10352e-06 75.2 16.8 75.2 37.6Z" transform="translate(108 160.8)" fill="#8E8E8E"/>
</g>
<g id="Vector_38">
<path d="M 32.8 65.6C 50.9149 65.6 65.6 50.9149 65.6 32.8C 65.6 14.6851 50.9149 -1.2207e-05 32.8 -1.2207e-05C 14.6851 -1.2207e-05 3.05176e-06 14.6851 3.05176e-06 32.8C 3.05176e-06 50.9149 14.6851 65.6 32.8 65.6Z" transform="translate(112.8 167.2)" fill="#203547"/>
</g>
<g id="Vector_39">
<path d="M 46.4 -6.10352e-06C 59.2 12.8 59.2 33.6 46.4 46.4C 33.6 59.2 12.8 59.2 -1.52588e-06 46.4" transform="translate(121.6 176.8)" fill="#122130"/>
</g>
<g id="Vector_40">
<path d="M 20.8 41.6C 32.2875 41.6 41.6 32.2875 41.6 20.8C 41.6 9.31248 32.2875 -1.2207e-05 20.8 -1.2207e-05C 9.31248 -1.2207e-05 3.05176e-06 9.31248 3.05176e-06 20.8C 3.05176e-06 32.2875 9.31248 41.6 20.8 41.6Z" transform="translate(124.8 179.2)" fill="#666E70"/>
</g>
<g id="Vector_41">
<path d="M 28.8 1.2207e-05C 36.8 8.00001 36.8 20.8 28.8 28.8C 20.8 36.8 8 36.8 -3.05176e-06 28.8" transform="translate(131.2 185.6)" fill="#666E70"/>
</g>
<g id="Vector_42">
<path d="M 17.6 35.2C 27.3202 35.2 35.2 27.3202 35.2 17.6C 35.2 7.87979 27.3202 0 17.6 0C 7.87979 0 0 7.87979 0 17.6C 0 27.3202 7.87979 35.2 17.6 35.2Z" transform="translate(128 182.4)" fill="#CED8DD"/>
</g>
<g id="Vector_43">
<path d="M 25.6 -1.2207e-05C 32.8 7.19999 32.8 18.4 25.6 25.6C 18.4 32.8 7.2 32.8 0 25.6" transform="translate(132 187.2)" fill="#B2BBC1"/>
</g>
<g id="Vector_44" opacity="0.2">
<path d="M 16 8.00001C 16 12.8 12 17.6 8.00001 17.6C 4.00001 17.6 6.10352e-06 12.8 6.10352e-06 8.00001C 6.10352e-06 3.20001 4.00001 6.10352e-06 8.00001 6.10352e-06C 12 6.10352e-06 16 3.20001 16 8.00001Z" transform="translate(137.6 192)" fill="#888F91"/>
</g>
<g id="Vector_45">
<path d="M 8.00001 16C 12.4183 16 16 12.4183 16 8.00001C 16 3.58173 12.4183 6.10352e-06 8.00001 6.10352e-06C 3.58173 6.10352e-06 6.10352e-06 3.58173 6.10352e-06 8.00001C 6.10352e-06 12.4183 3.58173 16 8.00001 16Z" transform="translate(137.6 192)" fill="#E7EFF2"/>
</g>
<g id="Vector_46">
<path d="M 6.10352e-06 6.10352e-06C 4.80001 6.10352e-06 8.00001 4.00001 8.00001 8.00001C 8.00001 12.8 4.00001 16 6.10352e-06 16" transform="translate(145.6 192)" fill="#DAE6EA"/>
</g>
<g id="Vector_47">
<path d="M 2.40001 0C 1.60001 0 0.799997 0 -3.05176e-06 0C -3.05176e-06 2.4 1.60001 4.79999 2.40001 4.79999C 3.20001 4.79999 4.8 3.2 4.8 0C 4 0 3.20001 0 2.40001 0Z" transform="translate(143.2 182.4)" fill="#666E70"/>
</g>
<g id="Vector_48">
<path d="M 6.10352e-06 4.8C 0.800006 4.8 2.4 3.20001 2.4 1.2207e-05C 1.6 1.2207e-05 0.800006 1.2207e-05 6.10352e-06 1.2207e-05" transform="translate(145.6 181.6)" fill="#535A5B"/>
</g>
<g id="Vector_49">
<path d="M -3.05176e-06 4.80001C 1.6 4.80001 3.2 4.80001 4.8 4.80001C 4.8 2.40001 3.20001 -6.10352e-06 2.40001 -6.10352e-06C 0.800006 0.799994 -3.05176e-06 2.40001 -3.05176e-06 4.80001Z" transform="translate(143.2 212.8)" fill="#666E70"/>
</g>
<g id="Vector_50">
<path d="M 2.4 4.80001C 2.4 2.40001 0.800006 -6.10352e-06 6.10352e-06 -6.10352e-06Z" transform="translate(145.6 212.8)" fill="#535A5B"/>
</g>
<g id="Vector_51">
<path d="M -3.05176e-06 3.20001C 2.4 4.80001 4 5.59999 4.8 4.79999C 5.6 3.99999 4.79999 2.4 3.19999 0C 1.59999 0 0.799997 1.60001 -3.05176e-06 3.20001Z" transform="translate(131.2 186.4)" fill="#666E70"/>
</g>
<g id="Vector_52">
<path d="M 1.6 4.8C 2.4 4 1.59999 2.40001 -6.10352e-06 1.2207e-05Z" transform="translate(134.4 185.6)" fill="#535A5B"/>
</g>
<g id="Vector_53">
<path d="M 5.11384 1.91383C 2.71384 0.313832 1.11384 -0.486144 0.313838 0.313856C -0.486162 1.11386 0.313844 2.71384 1.91384 5.11384C 2.71384 4.31384 3.51385 4.31384 3.51385 3.51384C 3.51385 2.71384 5.11384 1.91383 5.11384 1.91383Z" transform="translate(154.086 209.286)" fill="#666E70"/>
</g>
<g id="Vector_54">
<path d="M 3.20001 3.51384C 4.00001 2.71384 4 1.91383 4.8 1.91383C 2.4 0.313832 0.799994 -0.486144 -6.10352e-06 0.313856" transform="translate(154.4 209.286)" fill="#535A5B"/>
</g>
<g id="Vector_55">
<path d="M -3.05176e-06 4.8C 2.4 4.8 4.8 3.20001 4.8 2.40001C 4.8 1.60001 3.2 1.2207e-05 -3.05176e-06 1.2207e-05C -3.05176e-06 0.800012 -3.05176e-06 1.60001 -3.05176e-06 2.40001C -3.05176e-06 3.20001 -3.05176e-06 4 -3.05176e-06 4.8Z" transform="translate(127.2 197.6)" fill="#666E70"/>
</g>
<g id="Vector_56">
<path d="M 4.8 2.40001C 4.8 1.60001 3.2 1.2207e-05 -3.05176e-06 1.2207e-05C -3.05176e-06 0.800012 -3.05176e-06 1.60001 -3.05176e-06 2.40001" transform="translate(127.2 197.6)" fill="#535A5B"/>
</g>
<g id="Vector_57">
<path d="M -6.10352e-06 2.40001C -6.10352e-06 3.20001 1.59999 4.8 3.99999 4.8C 3.99999 3.2 3.99999 1.60001 3.99999 1.2207e-05C 2.39999 0.800012 -6.10352e-06 1.60001 -6.10352e-06 2.40001Z" transform="translate(158.4 197.6)" fill="#666E70"/>
</g>
<g id="Vector_58">
<path d="M 4 1.2207e-05C 1.6 1.2207e-05 -3.05176e-06 1.60001 -3.05176e-06 2.40001Z" transform="translate(159.2 197.6)" fill="#535A5B"/>
</g>
<g id="Vector_59">
<path d="M -3.05176e-06 1.91383C 0.799997 3.51383 2.39999 4.31384 3.19999 5.11384C 4.79999 2.71384 5.6 1.11386 4.8 0.313856C 4 -0.486144 1.6 0.313832 -3.05176e-06 1.91383Z" transform="translate(131.2 209.286)" fill="#666E70"/>
</g>
<g id="Vector_60">
<path d="M -6.10352e-06 4.8C 1.59999 2.4 2.4 0.800012 1.6 1.2207e-05Z" transform="translate(134.4 209.6)" fill="#535A5B"/>
</g>
<g id="Vector_61">
<path d="M 1.91384 1.2207e-05C 0.313844 2.40001 -0.486162 4 0.313838 4.8C 1.11384 5.6 2.71384 4.79999 5.11384 3.19999C 4.31384 2.39999 3.51384 0.800012 1.91384 1.2207e-05Z" transform="translate(154.086 185.6)" fill="#666E70"/>
</g>
<g id="Vector_62">
<path d="M 1.91384 1.2207e-05C 0.313844 2.40001 -0.486162 4 0.313838 4.8Z" transform="translate(154.086 185.6)" fill="#535A5B"/>
</g>
<g id="Vector_63">
<path d="M 6.10352e-06 36C 6.10352e-06 16 16 0 36 0C 56 0 72 16 72 36" transform="translate(193.6 162.4)" fill="black"/>
</g>
<g id="Vector_64">
<path d="M 75.2 37.6L 72 37.6C 72 18.4 56.8 3.20001 37.6 3.20001C 18.4 3.20001 3.2 18.4 3.2 37.6L 0 37.6C 0 16.8 16.8 -6.10352e-06 37.6 -6.10352e-06C 58.4 -6.10352e-06 75.2 16.8 75.2 37.6Z" transform="translate(192 160.8)" fill="#8E8E8E"/>
</g>
<g id="Vector_65">
<path d="M 32.8 65.6C 50.9149 65.6 65.6 50.9149 65.6 32.8C 65.6 14.6851 50.9149 -1.2207e-05 32.8 -1.2207e-05C 14.6851 -1.2207e-05 3.05176e-06 14.6851 3.05176e-06 32.8C 3.05176e-06 50.9149 14.6851 65.6 32.8 65.6Z" transform="translate(196.8 167.2)" fill="#203547"/>
</g>
<g id="Vector_66">
<path d="M 46.4 -6.10352e-06C 59.2 12.8 59.2 33.6 46.4 46.4C 33.6 59.2 12.8 59.2 -6.10352e-06 46.4" transform="translate(206.4 176.8)" fill="#122130"/>
</g>
<g id="Vector_67">
<path d="M 20.8 41.6C 32.2875 41.6 41.6 32.2875 41.6 20.8C 41.6 9.31248 32.2875 -1.2207e-05 20.8 -1.2207e-05C 9.31248 -1.2207e-05 3.05176e-06 9.31248 3.05176e-06 20.8C 3.05176e-06 32.2875 9.31248 41.6 20.8 41.6Z" transform="translate(208.8 179.2)" fill="#666E70"/>
</g>
<g id="Vector_68">
<path d="M 28.8 1.2207e-05C 36.8 8.00001 36.8 20.8 28.8 28.8C 20.8 36.8 8 36.8 0 28.8" transform="translate(216 185.6)" fill="#666E70"/>
</g>
<g id="Vector_69">
<path d="M 17.6 35.2C 27.3202 35.2 35.2 27.3202 35.2 17.6C 35.2 7.87979 27.3202 0 17.6 0C 7.87979 0 0 7.87979 0 17.6C 0 27.3202 7.87979 35.2 17.6 35.2Z" transform="translate(212 182.4)" fill="#CED8DD"/>
</g>
<g id="Vector_70">
<path d="M 25.6 -1.2207e-05C 32.8 7.19999 32.8 18.4 25.6 25.6C 18.4 32.8 7.2 32.8 3.05176e-06 25.6" transform="translate(216.8 187.2)" fill="#B2BBC1"/>
</g>
<g id="Vector_71" opacity="0.2">
<path d="M 16 8.00001C 16 12.8 12 17.6 7.99999 17.6C 3.19999 17.6 -6.10352e-06 12.8 -6.10352e-06 8.00001C -6.10352e-06 3.20001 3.99999 6.10352e-06 7.99999 6.10352e-06C 12 6.10352e-06 16 3.20001 16 8.00001Z" transform="translate(222.4 192)" fill="#888F91"/>
</g>
<g id="Vector_72">
<path d="M 8.00001 16C 12.4183 16 16 12.4183 16 8.00001C 16 3.58173 12.4183 6.10352e-06 8.00001 6.10352e-06C 3.58173 6.10352e-06 6.10352e-06 3.58173 6.10352e-06 8.00001C 6.10352e-06 12.4183 3.58173 16 8.00001 16Z" transform="translate(221.6 192)" fill="#E7EFF2"/>
</g>
<g id="Vector_73">
<path d="M 6.10352e-06 6.10352e-06C 4.80001 6.10352e-06 8.00001 4.00001 8.00001 8.00001C 8.00001 12.8 4.00001 16 6.10352e-06 16" transform="translate(229.6 192)" fill="#DAE6EA"/>
</g>
<g id="Vector_74">
<path d="M 2.40001 0C 1.60001 0 0.799997 0 -3.05176e-06 0C -3.05176e-06 2.4 1.60001 4.79999 2.40001 4.79999C 3.20001 4.79999 4.8 3.2 4.8 0C 4 0 3.20001 0 2.40001 0Z" transform="translate(227.2 182.4)" fill="#666E70"/>
</g>
<g id="Vector_75">
<path d="M 6.10352e-06 4.8C 0.800006 4.8 2.4 3.20001 2.4 1.2207e-05C 1.6 1.2207e-05 0.800006 1.2207e-05 6.10352e-06 1.2207e-05" transform="translate(229.6 181.6)" fill="#535A5B"/>
</g>
<g id="Vector_76">
<path d="M -3.05176e-06 4.80001C 1.6 4.80001 3.2 4.80001 4.8 4.80001C 4.8 2.40001 3.20001 -6.10352e-06 2.40001 -6.10352e-06C 1.60001 0.799994 0.799997 2.40001 -3.05176e-06 4.80001Z" transform="translate(227.2 212.8)" fill="#666E70"/>
</g>
<g id="Vector_77">
<path d="M 2.4 4.80001C 2.4 2.40001 0.800006 -6.10352e-06 6.10352e-06 -6.10352e-06Z" transform="translate(229.6 212.8)" fill="#535A5B"/>
</g>
<g id="Vector_78">
<path d="M 0 3.20001C 2.4 4.80001 4 5.59999 4.8 4.79999C 5.6 3.99999 4.8 2.4 3.2 0C 1.6 0 0.8 1.60001 0 3.20001Z" transform="translate(216 186.4)" fill="#666E70"/>
</g>
<g id="Vector_79">
<path d="M 1.6 4.8C 2.4 4 1.6 2.40001 -3.05176e-06 1.2207e-05Z" transform="translate(219.2 185.6)" fill="#535A5B"/>
</g>
<g id="Vector_80">
<path d="M 5.11384 1.91383C 2.71384 0.313832 1.11384 -0.486144 0.313841 0.313856C -0.486159 1.11386 0.313847 2.71384 1.91385 5.11384C 2.71385 4.31384 3.51384 4.31384 3.51384 3.51384C 4.31384 2.71384 5.11384 1.91383 5.11384 1.91383Z" transform="translate(238.886 209.286)" fill="#666E70"/>
</g>
<g id="Vector_81">
<path d="M 3.19999 3.51384C 3.99999 2.71384 4 1.91383 4.8 1.91383C 2.4 0.313832 0.799997 -0.486144 -3.05176e-06 0.313856" transform="translate(239.2 209.286)" fill="#535A5B"/>
</g>
<g id="Vector_82">
<path d="M 0 4.8C 2.4 4.8 4.8 3.20001 4.8 2.40001C 4.8 1.60001 3.2 1.2207e-05 0 1.2207e-05C 0 0.800012 0 1.60001 0 2.40001C 0 3.20001 0 4 0 4.8Z" transform="translate(212 197.6)" fill="#666E70"/>
</g>
<g id="Vector_83">
<path d="M 4.8 2.40001C 4.8 1.60001 3.2 1.2207e-05 0 1.2207e-05C 0 0.800012 0 1.60001 0 2.40001" transform="translate(212 197.6)" fill="#535A5B"/>
</g>
<g id="Vector_84">
<path d="M -3.05176e-06 2.40001C -3.05176e-06 3.20001 1.6 4.8 4 4.8C 4 3.2 4 1.60001 4 1.2207e-05C 1.6 0.800012 -3.05176e-06 1.60001 -3.05176e-06 2.40001Z" transform="translate(243.2 197.6)" fill="#666E70"/>
</g>
<g id="Vector_85">
<path d="M 4 1.2207e-05C 1.6 1.2207e-05 0 1.60001 0 2.40001Z" transform="translate(244 197.6)" fill="#535A5B"/>
</g>
<g id="Vector_86">
<path d="M 0 1.91383C 0.8 3.51383 2.4 4.31384 3.2 5.11384C 4.8 2.71384 5.6 1.11386 4.8 0.313856C 4 -0.486144 1.6 0.313832 0 1.91383Z" transform="translate(216 209.286)" fill="#666E70"/>
</g>
<g id="Vector_87">
<path d="M -3.05176e-06 4.8C 1.6 2.4 2.4 0.800012 1.6 1.2207e-05Z" transform="translate(219.2 209.6)" fill="#535A5B"/>
</g>
<g id="Vector_88">
<path d="M 1.91385 1.2207e-05C 0.313847 2.40001 -0.486159 4 0.313841 4.8C 1.11384 5.6 2.71384 4.79999 5.11384 3.19999C 4.31384 2.39999 3.51385 0.800012 1.91385 1.2207e-05Z" transform="translate(238.886 185.6)" fill="#666E70"/>
</g>
<g id="Vector_89">
<path d="M 1.91385 1.2207e-05C 0.313847 2.40001 -0.486159 4 0.313841 4.8Z" transform="translate(238.886 185.6)" fill="#535A5B"/>
</g>
<g id="Vector_90">
<path d="M 1.2207e-05 36C 1.2207e-05 16 16 0 36 0C 56 0 72 16 72 36" transform="translate(395.2 162.4)" fill="black"/>
</g>
<g id="Vector_91">
<path d="M 75.2 37.6L 72 37.6C 72 18.4 56.8 3.20001 37.6 3.20001C 18.4 3.20001 3.19999 18.4 3.19999 37.6L 6.10352e-06 37.6C 6.10352e-06 16.8 16.8 -6.10352e-06 37.6 -6.10352e-06C 58.4 -6.10352e-06 75.2 16.8 75.2 37.6Z" transform="translate(393.6 160.8)" fill="#8E8E8E"/>
</g>
<g id="Vector_92">
<path d="M 32.8 65.6C 50.915 65.6 65.6 50.9149 65.6 32.8C 65.6 14.6851 50.915 -1.2207e-05 32.8 -1.2207e-05C 14.6851 -1.2207e-05 -6.10352e-06 14.6851 -6.10352e-06 32.8C -6.10352e-06 50.9149 14.6851 65.6 32.8 65.6Z" transform="translate(398.4 167.2)" fill="#203547"/>
</g>
<g id="Vector_93">
<path d="M 46.4 -6.10352e-06C 59.2 12.8 59.2 33.6 46.4 46.4C 33.6 59.2 12.8 59.2 0 46.4" transform="translate(408 176.8)" fill="#122130"/>
</g>
<g id="Vector_94">
<path d="M 20.8 41.6C 32.2875 41.6 41.6 32.2875 41.6 20.8C 41.6 9.31248 32.2875 -1.2207e-05 20.8 -1.2207e-05C 9.31249 -1.2207e-05 -6.10352e-06 9.31248 -6.10352e-06 20.8C -6.10352e-06 32.2875 9.31249 41.6 20.8 41.6Z" transform="translate(410.4 179.2)" fill="#666E70"/>
</g>
<g id="Vector_95">
<path d="M 28.8 1.2207e-05C 36.8 8.00001 36.8 20.8 28.8 28.8C 20.8 36.8 8.00001 36.8 6.10352e-06 28.8" transform="translate(417.6 185.6)" fill="#666E70"/>
</g>
<g id="Vector_96">
<path d="M 35.2 17.6C 35.2 27.2 27.2 35.2 17.6 35.2C 8 35.2 -6.10352e-06 27.2 -6.10352e-06 17.6C -6.10352e-06 8.00001 8 0 17.6 0C 27.2 0 35.2 8.00001 35.2 17.6Z" transform="translate(414.4 182.4)" fill="#CED8DD"/>
</g>
<g id="Vector_97">
<path d="M 25.6 -1.2207e-05C 32.8 7.19999 32.8 18.4 25.6 25.6C 18.4 32.8 7.19999 32.8 -6.10352e-06 25.6" transform="translate(418.4 187.2)" fill="#B2BBC1"/>
</g>
<g id="Vector_98" opacity="0.2">
<path d="M 16 8.00001C 16 12.8 12 17.6 8 17.6C 3.2 17.6 0 12.8 0 8.00001C 0 3.20001 4 6.10352e-06 8 6.10352e-06C 12 6.10352e-06 16 3.20001 16 8.00001Z" transform="translate(424 192)" fill="#888F91"/>
</g>
<g id="Vector_99">
<path d="M 8.00001 16C 12.4183 16 16 12.4183 16 8.00001C 16 3.58173 12.4183 6.10352e-06 8.00001 6.10352e-06C 3.58173 6.10352e-06 1.2207e-05 3.58173 1.2207e-05 8.00001C 1.2207e-05 12.4183 3.58173 16 8.00001 16Z" transform="translate(423.2 192)" fill="#E7EFF2"/>
</g>
<g id="Vector_100">
<path d="M 1.2207e-05 6.10352e-06C 4.80001 6.10352e-06 8.00001 4.00001 8.00001 8.00001C 8.00001 12.8 4.00001 16 1.2207e-05 16" transform="translate(431.2 192)" fill="#DAE6EA"/>
</g>
<g id="Vector_101">
<path d="M 2.40001 0C 1.60001 0 0.799988 0 -1.2207e-05 0C -1.2207e-05 2.4 1.60001 4.79999 2.40001 4.79999C 3.20001 4.79999 4.80001 3.2 4.80001 0C 4.00001 0 3.20001 0 2.40001 0Z" transform="translate(428.8 182.4)" fill="#666E70"/>
</g>
<g id="Vector_102">
<path d="M 1.2207e-05 4.8C 0.800012 4.8 2.40001 3.20001 2.40001 1.2207e-05C 1.60001 1.2207e-05 0.800012 1.2207e-05 1.2207e-05 1.2207e-05" transform="translate(431.2 181.6)" fill="#535A5B"/>
</g>
<g id="Vector_103">
<path d="M -1.2207e-05 4.80001C 1.59999 4.80001 3.20001 4.80001 4.80001 4.80001C 4.80001 2.40001 3.20001 -6.10352e-06 2.40001 -6.10352e-06C 1.60001 -6.10352e-06 0.799988 2.40001 -1.2207e-05 4.80001Z" transform="translate(428.8 212.8)" fill="#666E70"/>
</g>
<g id="Vector_104">
<path d="M 2.40001 4.80001C 2.40001 2.40001 0.800012 -6.10352e-06 1.2207e-05 -6.10352e-06Z" transform="translate(431.2 212.8)" fill="#535A5B"/>
</g>
<g id="Vector_105">
<path d="M 6.10352e-06 3.20001C 2.40001 4.80001 3.99999 5.59999 4.79999 4.79999C 5.59999 3.99999 4.79999 2.4 3.19999 0C 1.59999 0 0.800006 1.60001 6.10352e-06 3.20001Z" transform="translate(417.6 186.4)" fill="#666E70"/>
</g>
<g id="Vector_106">
<path d="M 1.59999 4.8C 2.39999 4 1.59999 2.40001 -1.2207e-05 1.2207e-05Z" transform="translate(420.8 185.6)" fill="#535A5B"/>
</g>
<g id="Vector_107">
<path d="M 5.11385 1.91383C 2.71385 0.313832 1.11383 -0.486144 0.313832 0.313856C -0.486168 1.11386 0.313838 2.71384 1.91384 5.11384C 2.71384 4.31384 3.51384 4.31384 3.51384 3.51384C 3.51384 2.71384 5.11385 1.91383 5.11385 1.91383Z" transform="translate(440.486 209.286)" fill="#666E70"/>
</g>
<g id="Vector_108">
<path d="M 3.2 3.51384C 4 2.71384 4.00001 1.91383 4.80001 1.91383C 2.40001 0.313832 0.799988 -0.486144 -1.2207e-05 0.313856" transform="translate(440.8 209.286)" fill="#535A5B"/>
</g>
<g id="Vector_109">
<path d="M 6.10352e-06 4.8C 2.40001 4.8 4.79999 3.20001 4.79999 2.40001C 4.79999 1.60001 3.20001 1.2207e-05 6.10352e-06 1.2207e-05C 6.10352e-06 0.800012 6.10352e-06 1.60001 6.10352e-06 2.40001C 6.10352e-06 3.20001 6.10352e-06 4 6.10352e-06 4.8Z" transform="translate(413.6 197.6)" fill="#666E70"/>
</g>
<g id="Vector_110">
<path d="M 4.79999 2.40001C 4.79999 1.60001 3.20001 1.2207e-05 6.10352e-06 1.2207e-05C 6.10352e-06 0.800012 6.10352e-06 1.60001 6.10352e-06 2.40001" transform="translate(413.6 197.6)" fill="#535A5B"/>
</g>
<g id="Vector_111">
<path d="M -1.2207e-05 2.40001C -1.2207e-05 3.20001 1.59999 4.8 3.99999 4.8C 3.99999 3.2 3.99999 1.60001 3.99999 1.2207e-05C 1.59999 0.800012 -1.2207e-05 1.60001 -1.2207e-05 2.40001Z" transform="translate(444.8 197.6)" fill="#666E70"/>
</g>
<g id="Vector_112">
<path d="M 4.80001 1.2207e-05C 2.40001 1.2207e-05 -1.2207e-05 1.60001 -1.2207e-05 2.40001Z" transform="translate(444.8 197.6)" fill="#535A5B"/>
</g>
<g id="Vector_113">
<path d="M 6.10352e-06 1.91383C 0.800006 3.51383 2.39999 4.31384 3.19999 5.11384C 4.79999 2.71384 5.59999 1.11386 4.79999 0.313856C 3.99999 -0.486144 1.60001 0.313832 6.10352e-06 1.91383Z" transform="translate(417.6 209.286)" fill="#666E70"/>
</g>
<g id="Vector_114">
<path d="M -1.2207e-05 4.8C 1.59999 2.4 2.39999 0.800012 1.59999 1.2207e-05Z" transform="translate(420.8 209.6)" fill="#535A5B"/>
</g>
<g id="Vector_115">
<path d="M 1.91384 1.2207e-05C 0.313838 2.40001 -0.486168 4 0.313832 4.8C 1.11383 5.6 2.71385 4.79999 5.11385 3.19999C 4.31385 2.39999 3.51384 0.800012 1.91384 1.2207e-05Z" transform="translate(440.486 185.6)" fill="#666E70"/>
</g>
<g id="Vector_116">
<path d="M 1.91384 1.2207e-05C 0.313838 2.40001 -0.486168 4 0.313832 4.8Z" transform="translate(440.486 185.6)" fill="#535A5B"/>
</g>
<g id="Vector_117">
<path d="M -6.10352e-06 7.19999L -6.10352e-06 31.2C -6.10352e-06 35.2 3.19999 39.2 7.99999 39.2L 33.6 39.2L 33.6 20C 33.6 18.4 31.2 8.8 28 -3.05176e-06L 7.20001 -3.05176e-06C 3.20001 -3.05176e-06 -6.10352e-06 3.19999 -6.10352e-06 7.19999Z" transform="translate(454.4 29.6)" fill="#51859B"/>
</g>
<g id="Group">
<g id="Vector_118">
<path d="M 29.6 6.10352e-06L -6.10352e-06 29.6C -6.10352e-06 31.2 0.8 32.8 1.6 33.6L 31.2 4.00001C 30.4 3.20001 29.6 1.60001 29.6 6.10352e-06Z" transform="translate(454.4 32)" fill="#81B6C9"/>
</g>
<g id="Vector_119">
<path d="M 6.10352e-06 13.6L 14.4 13.6L 14.4 3.05176e-06L 6.10352e-06 13.6Z" transform="translate(473.6 55.2)" fill="#81B6C9"/>
</g>
<g id="Vector_120">
<path d="M 8.79999 -3.05176e-06C 3.99999 -3.05176e-06 6.10352e-06 3.2 6.10352e-06 8L 6.10352e-06 8.8L 8.79999 -3.05176e-06Z" transform="translate(453.6 29.6)" fill="#81B6C9"/>
</g>
<g id="Vector_121">
<path d="M 24 -3.05176e-06L 12 -3.05176e-06L -6.10352e-06 12L -6.10352e-06 24L 24 -3.05176e-06Z" transform="translate(454.4 29.6)" fill="#81B6C9"/>
</g>
</g>
<g id="Vector_122">
<path d="M 8.79999 1.6C 8.79999 2.4 8.00001 3.19999 7.20001 3.19999L 1.60001 3.19999C 0.800006 3.19999 0 2.4 0 1.6C 0 0.800003 0.800006 -3.05176e-06 1.60001 -3.05176e-06L 7.20001 -3.05176e-06C 8.00001 -3.05176e-06 8.79999 0.800003 8.79999 1.6Z" transform="translate(456 77.6)" fill="#324298"/>
</g>
<g id="Vector_123">
<path d="M 7.99999 16.8C 7.99999 19.2 6.39999 20.8 3.99999 20.8C 2.39999 20.8 -6.10352e-06 19.2 -6.10352e-06 16.8L -6.10352e-06 4.00001C -6.10352e-06 1.60001 1.59999 1.2207e-05 3.99999 1.2207e-05C 6.39999 1.2207e-05 7.99999 1.60001 7.99999 4.00001L 7.99999 16.8Z" transform="translate(482.4 137.6)" fill="#FF7300"/>
</g>
</g>
</g>
</svg>

